<svg width="174" height="200" viewBox="0 0 174 200" fill="none" xmlns="http://www.w3.org/2000/svg">
<g clip-path="url(#clip0)">
<path d="M110.519 25.692L110.52 25.6925C112.701 26.6351 115.582 27.9549 118.949 29.6788C173.075 61.6154 186.679 126.409 160.266 165.117L160.679 165.399L160.266 165.117C137.635 198.296 88.9503 207.449 54.978 192.584L54.9777 192.584C25.587 179.745 8.03877 149.466 2.45124 117.907C-3.13902 86.3338 3.27474 53.6719 21.5646 36.0991C25.2724 32.5502 29.8722 29.7641 34.9755 27.5607L35.165 27.479L35.236 27.3013C37.5867 26.3834 40.3194 25.4424 43.3841 24.5776L43.3876 24.5766C54.3444 21.3987 66.3397 20.3248 76.0672 20.1189C85.7973 19.9128 93.2229 20.5757 95.0265 20.8543C96.6741 21.1089 98.244 21.4444 99.4033 21.7167C99.9826 21.8527 100.458 21.9727 100.789 22.0586C100.954 22.1015 101.083 22.1359 101.17 22.1595L101.269 22.1864L101.294 22.1933L101.3 22.1949L101.3 22.195C101.3 22.1951 101.301 22.1952 101.301 22.1953C104.62 23.1326 106.973 24.1485 110.519 25.692Z" stroke="black"/>
<path d="M48.4501 134.408C47.7974 132.927 47.1447 131.447 46.4919 129.966C49.1109 133.618 52.4252 137.271 56.6015 140.417C62.3408 144.744 66.6427 145.8 68.6308 146.174C75.1688 147.408 80.7485 145.824 83.5722 144.738C87.2978 143.315 89.6189 141.468 92.1395 139.444L91.8264 139.054L92.1395 139.444C96.154 136.219 98.2186 133.55 101.482 129.332C102.953 127.43 104.667 125.215 106.913 122.491L106.913 122.491L106.968 122.424C109.211 119.703 111.135 117.369 112.572 115.749C113.299 114.931 113.888 114.309 114.326 113.914C114.338 113.903 114.35 113.892 114.362 113.882C114.285 114.125 114.174 114.432 114.021 114.813C113.499 116.105 112.524 118.156 110.905 121.264C107.685 127.444 101.94 137.758 92.2018 154.5H57.3111C54.3561 147.805 51.4035 141.107 48.4509 134.41L48.4501 134.408Z" stroke="black"/>
<path d="M111.376 112.758L111.391 112.739L111.405 112.719C111.404 112.72 111.405 112.719 111.408 112.715C111.413 112.708 111.424 112.693 111.444 112.667C111.473 112.628 111.514 112.575 111.565 112.508C111.669 112.375 111.815 112.189 111.996 111.96C112.359 111.503 112.863 110.878 113.455 110.165C113.979 109.557 114.608 108.764 115.368 107.732C115.61 107.414 117.642 104.95 121.018 102.597C124.403 100.237 129.104 98.0123 134.686 98.131C140.608 98.2629 145.285 100.987 148.533 103.764C151.783 106.542 153.571 109.346 153.702 109.561L153.704 109.563C156.861 114.678 157.434 120.317 156.883 125.673C156.331 131.036 154.658 136.077 153.357 139.98L153.357 139.981C151.748 144.837 149.709 148.675 148.152 151.28L148.147 151.287C145.057 156.664 139.011 165.534 128.454 173.005C113.814 183.324 99.0098 184.991 92.5337 185.313L92.5213 185.314L92.5206 185.314L92.516 185.315L92.4953 185.316C92.4855 185.317 92.473 185.318 92.4578 185.318C92.4437 185.319 92.4274 185.32 92.4087 185.321C92.3311 185.326 92.2141 185.331 92.0596 185.336C91.7506 185.347 91.2919 185.356 90.6991 185.35C89.5135 185.338 87.7921 185.264 85.6605 185.018C81.3965 184.525 75.4951 183.344 68.9568 180.587C55.8954 175.08 40.2546 163.272 30.0495 138.014C27.8243 131.496 14.5847 90.265 37.7515 51.0193C54.0145 23.4906 79.384 12.1721 86.2349 9.20397C95.7977 5.081 105.419 2.69482 112.69 1.50202C116.327 0.905547 119.367 0.60897 121.511 0.541295C122.586 0.507369 123.42 0.53153 123.987 0.599818C124.045 0.606851 124.1 0.614239 124.15 0.621895C123.968 0.721221 123.735 0.83624 123.447 0.969281C122.742 1.29526 121.769 1.70048 120.532 2.21591C120.093 2.399 119.62 2.59599 119.114 2.80828C115.267 4.42233 109.582 6.88585 102.365 10.7131L102.364 10.7137C100.95 11.4682 98.6234 12.8428 95.7753 14.5255C93.7004 15.7515 91.3487 17.1411 88.8711 18.5736C82.2599 22.3841 73.2004 28.6712 64.6032 38.551L64.6028 38.5514C52.2002 52.8364 46.9489 67.6097 44.6354 76.156C42.0552 84.3645 36.2987 106.614 46.9959 127.962L46.9961 127.962L47.0314 128.033C50.2411 134.428 56.0694 146.041 68.0818 148.99L68.0825 148.99C75.9991 150.922 85.9675 148.831 92.485 143.03L92.4852 143.029C97.0118 138.997 101.046 132.234 104.286 126.107C105.447 123.912 106.512 121.786 107.463 119.887C107.842 119.13 108.203 118.409 108.545 117.734C109.759 115.339 110.708 113.572 111.376 112.758Z" fill="white" stroke="#101010"/>
</g>
<defs>
<clipPath id="clip0">
<rect width="173.832" height="200" fill="white"/>
</clipPath>
</defs>
</svg>
