<svg width="300" height="300" viewBox="0 0 300 300" fill="none" xmlns="http://www.w3.org/2000/svg">
<path d="M280 0H20C8.95431 0 0 8.9543 0 20V280C0 291.046 8.9543 300 20 300H280C291.046 300 300 291.046 300 280V20C300 8.95431 291.046 0 280 0Z" fill="#101010"/>
<path d="M174.022 119.936C173.636 120.596 178.563 124.337 185.368 129.5C196.312 137.808 200.539 139.687 206.285 146.265C208.795 149.138 211.017 151.729 212.75 155.888C214.068 159.052 216.001 165.3 214.502 172.627C214.052 174.826 212.772 179.649 207.477 186.11C197.368 198.454 182.981 204.141 175.505 206.535C192.348 199.698 209.193 192.86 226.036 186.02V145.523C184.185 123.09 174.524 119.074 174.022 119.936Z" fill="#F2B09E"/>
<path d="M177.306 126.971C177.06 126.779 176.82 126.588 176.82 126.588C176.312 126.187 175.447 125.497 174.414 124.642C173.733 124.078 172.869 123.385 171.719 122.517C170.961 121.944 160.519 113.283 160.797 100.512C161.092 86.947 173.267 79.1574 173.798 78.8335C185.478 71.6236 199.48 76.2683 208.192 79.1606C213.673 80.9777 217.968 83.2514 220.905 85.0296C226.946 88.4953 236.902 95.2841 245.291 107.177C256.893 123.625 258.749 140.27 259.121 147.544C259.115 147.551 262.662 194.914 206 217.806C206 217.806 206 217.806 206.003 217.806C198.751 220.275 152.541 235.154 108.511 209.158C77.6408 190.933 64.9604 162.473 61.6502 154.796C52.4095 133.371 50.9552 111.667 52.3998 111.275C53.3682 111.009 55.8168 120.253 64.3158 136.295C65.7539 139.01 69.2649 144.762 73.0609 151.347C77.2942 158.689 84.2612 168.75 95.2282 178.272C111.089 192.037 127.475 197.868 136.959 200.439C146.07 203.315 170.721 209.68 194.336 197.832C201.507 194.233 214.272 187.83 217.482 174.687C219.814 165.141 216.649 154.595 210.962 147.952C204.798 140.752 193.87 136.02 189.504 134.129C189.504 134.119 182.641 131.146 177.306 126.971Z" fill="#F9DDD4"/>
<path d="M40.5 81.7259C40.5 169.825 113.243 218.671 174.903 218.671C236.562 218.671 259.501 170.016 259.501 126.877C259.501 100.149 239.924 85.6094 218.233 85.6094C196.542 85.6094 176.966 102.931 176.966 126.877" stroke="white" stroke-width="2" stroke-miterlimit="10"/>
</svg>
