<?xml version="1.0" encoding="UTF-8"?>
<svg viewBox="0 0 66 71" xmlns="http://www.w3.org/2000/svg">
<path d="m0.70526 10.713v-9e-4c1.6942-0.6032 3.0727-1.9879 3.6892-3.6759 8.8e-4 0 0.00177-1e-5 0.00265-8.9e-4 0.05145-0.14281 0.18717-0.24482 0.34772-0.24482 0.17297 0 0.31756 0.11975 0.35836 0.2803h0.00355c0.62181 1.7058 1.9488 3.0434 3.6679 3.6422v0.0017c0.13926 0.055 0.23773 0.1899 0.23773 0.3486 0 0.1579-0.09758 0.2919-0.23507 0.3478l-8.8e-4 8e-4c-1.7262 0.6023-3.0762 1.956-3.6803 3.6715h-8.9e-4c-0.05234 0.1419-0.18805 0.243-0.34772 0.243-0.16676 0-0.30691-0.1109-0.35392-0.2625-8.9e-4 0-0.00178 9e-4 -0.00178 9e-4 -0.61471-1.7058-1.9719-3.0559-3.6838-3.6599-0.14015-0.0533-0.24127-0.1872-0.24127-0.346 0-0.1579 0.099347-0.2918 0.23861-0.3459z" fill="#1A1A1A" fill-opacity=".72"/>
<path d="m11.258 17.998c-1.0778 0.3761-1.9205 1.2206-2.2966 2.2912h-8.8e-4c-0.03282 0.0887-0.11709 0.1517-0.21733 0.1517-0.10467 0-0.1916-0.0692-0.22087-0.1641 0 0-8.9e-4 0-0.00177 9e-4 -0.3832-1.0645-1.2303-1.9071-2.2983-2.2841-0.08782-0.0329-0.14991-0.1171-0.14991-0.2165 0-0.0984 0.06209-0.1818 0.14902-0.2155v-9e-4c1.0573-0.3761 1.9169-1.2401 2.3018-2.2939h0.00178c0.03193-0.0887 0.11708-0.1525 0.21643-0.1525 0.10822 0 0.19781 0.0745 0.22353 0.1747h0.00178c0.38852 1.0644 1.2161 1.8991 2.2894 2.2726v9e-4c0.0869 0.0346 0.1481 0.1188 0.1481 0.2173 9e-4 0.0993-0.0603 0.1827-0.1463 0.2182z" fill="#1A1A1A" fill-opacity=".72"/>
<path d="m57.595 12.488c9e-4 0 0-8e-4 0 0-0.1384-0.0567-0.2351-0.1907-0.2351-0.3486 0-0.1587 0.0985-0.2936 0.2378-0.3486v-0.0017c1.719-0.5988 3.046-1.9364 3.6678-3.6422h0.0036c0.0408-0.16055 0.1854-0.2803 0.3584-0.2803 0.1605 0 0.2953 0.10201 0.3477 0.24482 9e-4 0 9e-4 0 0.0026 8.8e-4 0.6165 1.688 1.995 3.0727 3.6892 3.6759v9e-4c0.1393 0.0532 0.2386 0.1871 0.2386 0.345 0 0.1588-0.1002 0.2936-0.2413 0.346-1.7119 0.604-3.0691 1.9541-3.6838 3.6599-9e-4 0-0.0018-9e-4 -0.0018-9e-4 -0.047 0.1516-0.1863 0.2625-0.3539 0.2625-0.1597 0-0.2954-0.1011-0.3477-0.243h-9e-4c-0.6041-1.7155-1.9541-3.0683-3.6812-3.6706z" fill="#1A1A1A" fill-opacity=".72"/>
<path d="m57.406 16.367c0.0257-0.1002 0.1153-0.1747 0.2235-0.1747 0.1003 0 0.1845 0.0639 0.2165 0.1526h0.0017c0.385 1.0529 1.2454 1.9168 2.3019 2.2938v9e-4c0.0869 0.0337 0.149 0.1171 0.149 0.2156 0 0.0993-0.063 0.1827-0.1499 0.2164-1.068 0.377-1.9151 1.2197-2.2983 2.2841 0 0-9e-4 0-9e-4 -9e-4 -0.0293 0.0949-0.1162 0.1641-0.2208 0.1641-0.1003 0-0.1846-0.0629-0.2174-0.1516h-9e-4c-0.377-1.0707-1.2196-1.9152-2.2965-2.2913v-8e-4c-0.086-0.0346-0.1463-0.1189-0.1463-0.2174 0-0.0993 0.0612-0.1836 0.1481-0.2173v-9e-4c1.0733-0.3734 1.9009-1.209 2.2894-2.2726h9e-4z" fill="#1A1A1A" fill-opacity=".72"/>
<path d="m7.7786 24.203c0.67769 0.18 6.6164 1.8876 6.6164 6.1471 0 2.7693 1.7013 5.9928 4.8574 9.3103 0.2661-1.5745 1.0555-3.0425 1.7314-3.9366 0.2218-0.2937 0.5598-0.4773 0.927-0.503 0.3681-0.031 0.7282 0.1073 0.989 0.3664l10.286 10.196 10.284-10.197c0.2608-0.259 0.6272-0.3974 0.9891-0.3664 0.3672 0.0258 0.7052 0.2094 0.9269 0.503 0.6759 0.895 1.4663 2.363 1.7315 3.9375 3.1561-3.3175 4.8583-6.541 4.8583-9.3103 0-4.2595 5.9396-5.967 6.6173-6.1471 0.6723-0.1765 1.3669 0.2146 1.5567 0.8852 0.063 0.2209 1.515 5.4642-0.0373 9.5002-1.3616 3.5383-3.1338 12.548-3.1516 12.638-0.0559 0.283-0.2049 0.5393-0.4249 0.7256l-9.0956 7.7447v2.9547h3.4488c0.7043 0 1.2755 0.5712 1.2755 1.2755v8.8828c0 0.7043-0.5712 1.2755-1.2755 1.2755h-17.672c-0.0106 0-0.0204-0.0026-0.0319-0.0035-0.0107 0-0.0204 0.0035-0.032 0.0035h-17.671c-0.7052 0-1.2756-0.5712-1.2756-1.2755v-8.881c0-0.7043 0.5713-1.2755 1.2756-1.2755h3.4496v-2.9539l-9.0956-7.7455c-0.2191-0.1872-0.36901-0.4427-0.42489-0.7256-0.01774-0.0905-1.7909-9.101-3.1516-12.638-1.5532-4.036-0.09935-9.2792-0.03725-9.5001 0.18982-0.6724 0.88259-1.0644 1.5558-0.8861zm26.715 43.332h15.119v-6.3316h-15.119v6.3316zm0-8.8827h10.395v-3.5428c0-0.3735 0.1641-0.7292 0.4488-0.9713l9.2065-7.8396c0.3815-1.9001 1.9098-9.3059 3.1872-12.626 0.832-2.1643 0.5402-4.9434 0.2519-6.5596-1.5 0.6227-3.4559 1.7679-3.4559 3.2377 0 3.1197-1.5887 8.1501-9.1577 14.402-0.1499 0.1241-0.3211 0.204-0.4985 0.2492l-3.8915 3.5801c-0.518 0.4772-1.3252 0.4435-1.8024-0.0745-0.4763-0.5181-0.4435-1.3253 0.0754-1.8025l4.7199-4.342c1.123-1.0458 0.6724-2.6771 0.133-3.8125l-9.6118 9.5294v10.573zm-17.735 2.5511v6.3316h15.12v-6.3316h-15.12zm-8.1172-27.532c1.2773 3.3211 2.8057 10.726 3.1871 12.626l9.2074 7.8396c0.2847 0.2421 0.4488 0.5969 0.4488 0.9713v3.5428h10.394v-10.572l-9.6119-9.5311c-0.5402 1.1354-0.9917 2.7648 0.1286 3.808l4.7243 4.3473c0.519 0.4764 0.5518 1.2845 0.0754 1.8025-0.4763 0.518-1.2844 0.5526-1.8024 0.0745l-3.8905-3.5801c-0.1774-0.0452-0.3486-0.125-0.4994-0.2501-7.5682-6.2518-9.1578-11.282-9.1578-14.402 0-1.4689-1.9568-2.6158-3.455-3.2376-0.28918 1.617-0.5819 4.3961 0.25103 6.5604z" fill="#1A1A1A" fill-opacity=".72"/>
<path d="m49.239 19.061-0.0337 0.0275c-0.4551 0.4311-0.9358 0.8169-1.4308 1.1496-9.1081 7.3313-12.939 10.556-13.518 11.154-0.204 0.2945-0.526 0.4932-0.8906 0.5393-0.0532 0.0071-0.1055 0.0098-0.1579 0.0098-0.3539 0-0.6927-0.1473-0.934-0.4072-0.0302-0.0319-0.0586-0.0638-0.0852-0.0984-0.5934-0.6493-5.8606-5.0011-13.467-11.124-3.1321-2.0446-4.9993-5.4854-4.9993-9.2172 0-6.0708 4.939-11.009 11.009-11.009 3.2892 0 6.3849 1.4858 8.4579 3.9739 2.073-2.4872 5.1687-3.9739 8.4579-3.9739 6.0708 0 11.009 4.939 11.009 11.009 0 2.9441-1.1469 5.7045-3.2323 7.7855-0.0559 0.0665-0.118 0.1278-0.1854 0.1819zm-7.593-16.424c-3.0284 0-5.8447 1.641-7.3491 4.2835-0.2271 0.39828-0.6502 0.64488-1.1088 0.64488s-0.8817-0.24571-1.1088-0.64488c-1.5053-2.6425-4.3207-4.2835-7.349-4.2835-4.6641 0-8.4579 3.7938-8.4579 8.4578 0 2.8838 1.4539 5.5413 3.8879 7.1096 0.0381 0.0239 0.0745 0.0505 0.1091 0.078 6.7503 5.434 11.081 8.9937 12.932 10.628 1.8592-1.6419 6.2181-5.2247 13.016-10.696 0.0302-0.0239 0.0621-0.047 0.095-0.0692 0.4027-0.2678 0.7965-0.5836 1.1708-0.942 0.0204-0.0195 0.04-0.0372 0.0612-0.055 1.6499-1.6082 2.5582-3.7583 2.5582-6.054 0-4.664-3.7938-8.4578-8.4569-8.4578z" fill="#1A1A1A" fill-opacity=".72"/>
</svg>
