<svg width="132" height="132" viewBox="0 0 132 132" fill="none"
  xmlns="http://www.w3.org/2000/svg">
  <circle cx="66" cy="66" r="65" fill="white" stroke="#DD2538" stroke-opacity="0.4" stroke-width="2" stroke-linecap="round" stroke-linejoin="bevel" stroke-dasharray="8 20"/>
  <path d="M33.2386 41.7126V41.7117C34.9328 41.1086 36.3113 39.7239 36.9278 38.0359C36.9286 38.0359 36.9295 38.0359 36.9304 38.035C36.9819 37.8922 37.1176 37.7902 37.2781 37.7902C37.4511 37.7902 37.5957 37.9099 37.6365 38.0705C37.6374 38.0705 37.6383 38.0705 37.64 38.0705C38.2619 39.7762 39.5889 41.1139 41.3079 41.7126C41.3079 41.7126 41.3079 41.7135 41.3079 41.7144C41.4472 41.7694 41.5457 41.9042 41.5457 42.063C41.5457 42.2209 41.4481 42.3548 41.3106 42.4107L41.3097 42.4116C39.5835 43.0139 38.2335 44.3675 37.6294 46.083H37.6285C37.5762 46.225 37.4405 46.3261 37.2808 46.3261C37.114 46.3261 36.9739 46.2152 36.9269 46.0635C36.926 46.0635 36.9251 46.0644 36.9251 46.0644C36.3104 44.3586 34.9532 43.0086 33.2412 42.4045C33.1011 42.3513 33 42.2173 33 42.0586C33 41.9007 33.0993 41.7667 33.2386 41.7126Z" fill="#1A1A1A" fill-opacity="0.72"/>
  <path d="M43.7909 48.9982C42.7131 49.3743 41.8705 50.2188 41.4944 51.2895H41.4935C41.4607 51.3782 41.3764 51.4411 41.2761 51.4411C41.1715 51.4411 41.0845 51.3719 41.0553 51.277C41.0553 51.277 41.0544 51.277 41.0535 51.2779C40.6703 50.2135 39.8232 49.3708 38.7552 48.9938C38.6674 48.961 38.6053 48.8767 38.6053 48.7774C38.6053 48.6789 38.6674 48.5955 38.7543 48.5618C38.7543 48.5618 38.7543 48.5618 38.7543 48.5609C39.8117 48.1848 40.6712 47.3209 41.0562 46.2671C41.0571 46.2671 41.0571 46.2671 41.0579 46.2671C41.0899 46.1784 41.175 46.1145 41.2744 46.1145C41.3826 46.1145 41.4722 46.189 41.4979 46.2892C41.4988 46.2892 41.4988 46.2892 41.4997 46.2892C41.8882 47.3537 42.7158 48.1884 43.7891 48.5618V48.5627C43.876 48.5973 43.9372 48.6816 43.9372 48.78C43.9381 48.8794 43.8769 48.9628 43.7909 48.9982Z" fill="#1A1A1A" fill-opacity="0.72"/>
  <path d="M90.1282 43.4885C90.1291 43.4885 90.1282 43.4876 90.1282 43.4885C89.9899 43.4317 89.8932 43.2978 89.8932 43.1399C89.8932 42.9811 89.9916 42.8463 90.1309 42.7913C90.1309 42.7913 90.1309 42.7904 90.1309 42.7895C91.85 42.1908 93.177 40.8531 93.7988 39.1474C93.7997 39.1474 93.8005 39.1474 93.8023 39.1474C93.8431 38.9868 93.9877 38.8671 94.1607 38.8671C94.3212 38.8671 94.4561 38.9691 94.5084 39.1119C94.5093 39.1119 94.5093 39.1119 94.5111 39.1128C95.1275 40.8008 96.506 42.1855 98.2002 42.7886V42.7895C98.3395 42.8427 98.4388 42.9767 98.4388 43.1346C98.4388 43.2934 98.3386 43.4282 98.1976 43.4805C96.4856 44.0846 95.1284 45.4347 94.5137 47.1404C94.5128 47.1404 94.5119 47.1395 94.5119 47.1395C94.4649 47.2912 94.3257 47.4021 94.158 47.4021C93.9984 47.4021 93.8626 47.301 93.8103 47.1591H93.8094C93.2053 45.4435 91.8553 44.0908 90.1282 43.4885Z" fill="#1A1A1A" fill-opacity="0.72"/>
  <path d="M89.9389 47.3666C89.9647 47.2663 90.0542 47.1918 90.1625 47.1918C90.2627 47.1918 90.347 47.2557 90.3789 47.3444C90.3798 47.3444 90.3798 47.3444 90.3807 47.3444C90.7656 48.3973 91.6261 49.2613 92.6825 49.6383V49.6392C92.7695 49.6729 92.8315 49.7562 92.8315 49.8547C92.8315 49.9541 92.7686 50.0374 92.6816 50.0711C91.6136 50.4481 90.7665 51.2908 90.3833 52.3553C90.3833 52.3553 90.3824 52.3553 90.3824 52.3544C90.3532 52.4493 90.2662 52.5185 90.1616 52.5185C90.0613 52.5185 89.9771 52.4555 89.9443 52.3668H89.9434C89.5664 51.2961 88.7237 50.4517 87.6468 50.0756C87.6468 50.0756 87.6468 50.0756 87.6468 50.0747C87.5608 50.0401 87.5005 49.9558 87.5005 49.8574C87.5005 49.758 87.5617 49.6738 87.6486 49.64V49.6392C88.7219 49.2657 89.5495 48.4301 89.938 47.3666C89.938 47.3666 89.938 47.3666 89.9389 47.3666Z" fill="#1A1A1A" fill-opacity="0.72"/>
  <path d="M66.8726 77.678L75.5618 68.445C76.1409 67.8289 77.1569 67.9818 77.5304 68.741C77.714 69.114 77.8967 69.4861 78.0803 69.8599C78.5252 70.764 78.4025 71.844 77.7687 72.6271C76.9327 73.6585 76.2088 74.6474 74.5316 76.4389C73.9101 77.1026 73.0123 78.1216 73.0724 78.1826C73.1571 78.2674 75.1054 76.4309 78.6868 73.0495C81.539 70.3566 81.8347 70.0375 82.2037 69.5709C83.9728 67.3349 84.9041 64.8992 85.4029 62.7197C85.7463 61.1404 85.8399 59.7732 86.9283 58.4881C87.5622 57.7404 88.3461 57.2402 89.1432 56.9026C90.2123 56.4501 91.4252 57.1288 91.5805 58.2804C91.7041 59.1978 91.7792 60.2274 91.7598 61.3516C91.7324 62.9097 91.5285 64.2664 91.2857 65.3649C90.2617 69.3986 89.2386 73.4322 88.2145 77.4658C88.1227 77.8282 87.9179 78.1517 87.631 78.3894C84.8547 80.6899 82.0784 82.9913 79.3012 85.2919C78.9004 85.6242 78.6665 86.1173 78.6629 86.6388C78.6559 87.6463 78.6409 88.7767 78.6356 89.7656C78.6338 90.0811 78.3787 90.3357 78.0635 90.3357C76.0111 90.3357 69.0169 90.3357 66.9618 90.3357C66.6458 90.3357 66.3898 90.0785 66.3898 89.7621C66.3898 86.1376 66.3898 82.5326 66.3933 78.8861C66.3942 78.4371 66.5654 78.005 66.8726 77.678Z" stroke="#5A5A5A" stroke-width="2" stroke-miterlimit="10" stroke-linecap="round" stroke-linejoin="round"/>
  <path d="M83.1395 90.3278H66.3721V100H83.1395V90.3278Z" stroke="#5A5A5A" stroke-width="2" stroke-miterlimit="10"/>
  <path d="M65.8902 77.678L57.201 68.445C56.6219 67.8289 55.6059 67.9818 55.2325 68.741C55.0488 69.114 54.8661 69.4861 54.6825 69.8599C54.2376 70.764 54.3603 71.844 54.9941 72.6271C55.8301 73.6585 56.554 74.6474 58.2312 76.4389C58.8527 77.1026 59.7505 78.1216 59.6905 78.1826C59.6057 78.2674 57.6574 76.4309 54.076 73.0495C51.2238 70.3566 50.9281 70.0375 50.5591 69.5709C48.79 67.3349 47.8587 64.8992 47.3599 62.7197C47.0165 61.1404 46.9229 59.7732 45.8345 58.4881C45.2006 57.7404 44.4167 57.2402 43.6196 56.9026C42.5505 56.4501 41.3376 57.1288 41.1822 58.2804C41.0587 59.1978 40.9836 60.2274 41.003 61.3516C41.0304 62.9097 41.2343 64.2664 41.4771 65.3649C42.5011 69.3986 43.5242 73.4322 44.5483 77.4658C44.6401 77.8282 44.8449 78.1517 45.1318 78.3894C47.9081 80.6899 50.6844 82.9913 53.4616 85.2919C53.8624 85.6242 54.0963 86.1173 54.0999 86.6388C54.1069 87.6463 54.1219 88.7767 54.1272 89.7656C54.129 90.0811 54.3841 90.3357 54.6993 90.3357C56.7517 90.3357 63.7459 90.3357 65.801 90.3357C66.117 90.3357 66.373 90.0785 66.373 89.7621C66.373 86.1376 66.373 82.5326 66.3695 78.8861C66.3686 78.4371 66.1974 78.005 65.8902 77.678Z" stroke="#5A5A5A" stroke-width="2" stroke-miterlimit="10" stroke-linecap="round" stroke-linejoin="round"/>
  <path d="M49.6225 100L66.3899 100L66.3899 90.3278L49.6225 90.3278L49.6225 100Z" stroke="#5A5A5A" stroke-width="2" stroke-miterlimit="10"/>
  <path d="M83.7647 34.2798C82.9474 32.6589 81.7146 31.2695 80.1307 30.3214C75.7576 27.704 69.6847 29.0477 66.5811 33.7069C63.4775 29.0477 57.4046 27.704 53.0315 30.3214C51.4485 31.2686 50.2148 32.6589 49.3975 34.2798C47.2473 38.5433 48.3707 43.7604 51.9872 46.8379C56.842 50.9689 61.6978 55.0999 66.5526 59.2318V59.2794C66.5618 59.271 66.571 59.2636 66.5811 59.2552C66.5903 59.2636 66.5995 59.271 66.6096 59.2794V59.2318C71.4644 55.1008 76.3202 50.9698 81.175 46.8379C84.7915 43.7604 85.914 38.5433 83.7647 34.2798Z" stroke="#5A5A5A" stroke-width="2" stroke-miterlimit="10" stroke-linecap="round" stroke-linejoin="round"/>
</svg>
