<svg xmlns="http://www.w3.org/2000/svg" viewBox="0 0 50 50"><style><![CDATA[.B{stroke-linejoin:round}.C{stroke-miterlimit:10}.D{stroke-linecap:round}]]></style><g fill="none" stroke="#000" class="B C"><g class="D"><path d="M24.5 30.5c.12-.24 3-4 5-5 .42-.2.84.54 1 1 .58 1.7-2.1 3.9-2 4 .07.07 1.46-.98 3-3 1-1.33 2.6-3.56 3-5 .14-.5.32-1.3 1-2l.02-.02c.78-.77 2.1-.1 2.06 1l-.08 1.03c-.16 1.34-.45 2-1 4l-.82 3.63c-.06.17-.14.3-.18.37"/><path d="M24.58 30.5c-.12-.24-3-4-5-5-.42-.2-.84.54-1 1-.58 1.7 2.1 3.9 2 4-.07.07-1.46-.98-3-3-1-1.33-2.6-3.56-3-5-.14-.5-.32-1.3-1-2l-.02-.02c-.78-.77-2.1-.1-2.06 1l.08 1.03c.16 1.34.45 2 1 4l.82 3.63c.06.17.14.3.18.37m.92 11h19"/><path d="M24.5 41.5v-11m-10 11v-4m19 4v-4"/></g><path d="M17.5 37.5v-3.25"/><path d="M14.5 37.5h19" class="D"/><path d="M30.5 37.5v-3.25"/><g class="D"><path d="M13.5 30.5l4 4m18-4l-5 4m-6-13l6-4c.9-.73 1.48-1.2 2-2 .75-1.15.94-2.3 1-3"/><path d="M33.03 14.5c.9-2.2.47-4.62-1-6-1.98-1.86-5.78-2.18-8.03.5m.5 12.5l-3.47-2-3-2c-.92-.75-1.5-1.2-2-2-.75-1.15-.94-2.3-1-3"/><path d="M15.5 14.5c-.9-2.2-.47-4.62 1-6 2-1.86 5.25-2.18 7.5.5"/></g></g></svg>