<?xml version="1.0" encoding="UTF-8"?>
<svg viewBox="0 0 62 71" xmlns="http://www.w3.org/2000/svg">
<path d="m48.574 70.005c-9.4413 0-16.566-2.4405-21.179-7.2516-5.2524-5.4809-5.7746-12.474-5.6183-16.154l0.0064-0.1635c0.0087-0.7302 0.6032-1.3231 1.3325-1.3231h8e-3c0.7333 4e-3 1.3254 0.5937 1.3254 1.327 0 0.0532-0.0032 0.1453-0.0088 0.2723-0.1381 3.2563 0.3127 9.4309 4.8802 14.197 3.7381 3.9008 9.4722 6.0428 17.064 6.3825-3.9334-8.6825 0.1595-13.07 4.4746-17.697 3.8698-4.1492 7.8722-8.4405 7.8722-16.762 0-9.5103-8.0087-13.329-12.101-14.66 0.4667 1.7833 0.731 4.2405-0.3278 6.5127-0.3103 0.6682-1.1047 0.9571-1.7698 0.6452-0.6675-0.3103-0.9572-1.1032-0.6453-1.7698 1.3596-2.9207-0.5468-6.6683-0.5658-6.7072-0.2326-0.4476-0.1921-0.9904 0.1047-1.3984 0.2985-0.4079 0.7969-0.6135 1.2977-0.5309 0.1666 0.0277 16.674 2.9666 16.674 17.909 0 9.3714-4.7619 14.478-8.5881 18.58-4.4699 4.7929-7.6992 8.2556-3.0691 16.614 0.2286 0.4119 0.2214 0.9151-0.0182 1.3222-0.2413 0.4056-0.6778 0.6556-1.1492 0.6556z" fill="#1A1A1A" fill-opacity=".72"/>
<path d="m32.935 46.967c-4.9643 0-7.8604-2.4008-9.1008-3.7588-2.1929 0.9119-7.65 3.0976-10.464 3.4842-3.9802 0.5523-8.8429-6.3604-9.7786-7.7516-0.37222-0.554-0.27778-1.2961 0.22143-1.7397l9.8952-8.7952c2.0047-3.6397 5.7643-6.9135 7.3587-8.2056l-5.469-18.484c-0.1683-0.56984 0.0611-1.1825 0.5619-1.5024 0.5-0.31905 1.1531-0.26905 1.5984 0.1246l13.226 11.695c0.8555-1.6365 2.2587-2.9404 2.4801-3.1404 0.3961-0.35873 0.9683-0.44603 1.4508-0.22222 9.1619 4.2167 7.2135 12.629 7.1929 12.713-0.1754 0.7151-0.8961 1.1532-1.6119 0.977-0.7135-0.1754-1.15-0.8936-0.9778-1.6071 0.0611-0.2627 1.2905-5.9024-4.8945-9.25-0.8111 0.8928-1.6388 2.0984-1.6388 2.8992 0 0.5238-0.3072 1-0.785 1.2151-0.4769 0.2166-1.0381 0.1309-1.4301-0.2159l-11.3-9.9897 4.4087 14.899c0.1579 0.5349-0.0341 1.1119-0.4801 1.446-0.0532 0.0389-5.2548 3.9604-7.4524 8.1127-0.0746 0.1405-0.1738 0.2667-0.2937 0.3723l-9.1785 8.1587c2.0278 2.7428 5.0555 5.8587 6.5333 5.65 3.1389-0.4302 10.631-3.6524 10.706-3.6841 0.604-0.2588 1.3016-0.0445 1.6532 0.5087 0.0865 0.1317 2.3111 3.427 7.5691 3.427 4.2063 0 7.3158-3.0913 7.5531-3.8207 0.127-0.7254 0.8127-1.1936 1.5373-1.0666 0.7246 0.1262 1.2064 0.8349 1.0802 1.5603-0.3651 2.1039-4.8056 5.9913-10.171 5.9913z" fill="#1A1A1A" fill-opacity=".72"/>
<path d="m27.273 29.92c-0.4516 0-0.8921-0.2293-1.1421-0.6436-0.3801-0.631-0.1778-1.45 0.4524-1.8302 4.3746-2.6405 9.5238-0.3008 9.7405-0.1992 0.6682 0.3103 0.9571 1.1032 0.6476 1.7698-0.3095 0.6675-1.104 0.9588-1.7675 0.6485-0.0722-0.0318-4.1087-1.8286-7.242 0.0635-0.2167 0.1301-0.454 0.1912-0.6889 0.1912z" fill="#1A1A1A" fill-opacity=".72"/>
<path d="m51.364 60.155c0-0.1833 0.1143-0.3389 0.2746-0.4024v-0.0016c1.9841-0.6905 3.515-2.2349 4.2325-4.2032h4e-3c0.0468-0.1857 0.2135-0.323 0.4135-0.323 0.1849 0 0.3412 0.1183 0.4008 0.2826 8e-4 0 0.0016 0 0.0031 8e-4 0.7119 1.9476 2.3024 3.5452 4.2572 4.2412v8e-4c0.1603 0.0619 0.2746 0.2167 0.2746 0.3984 0 0.1834-0.1159 0.3389-0.2778 0.3992-1.9754 0.6969-3.5413 2.2548-4.2508 4.2231-8e-4 -8e-4 -0.0016-8e-4 -0.0024-8e-4 -0.0539 0.1746-0.215 0.3031-0.4079 0.3031-0.1849 0-0.3405-0.1174-0.4008-0.2801h-0.0016c-0.6968-1.9802-2.2547-3.5413-4.2468-4.2365l-8e-4 -8e-4c-0.1595-0.0643-0.2714-0.2191-0.2714-0.4008z" fill="#1A1A1A" fill-opacity=".72"/>
<path d="m4.4329 14.938c0-0.2294 0.14286-0.4238 0.34365-0.504v-0.0024c2.4833-0.8643 4.3992-2.7976 5.2976-5.2603h0.0048c0.0587-0.23175 0.2675-0.40477 0.5175-0.40477 0.2317 0 0.4269 0.14762 0.5015 0.35397 0.0016 8e-4 0.0016 0 0.0032 8e-4 0.8905 2.4381 2.8818 4.4373 5.3278 5.3087v0.0016c0.2008 0.077 0.3444 0.2707 0.3444 0.4992 0 0.2294-0.1452 0.4238-0.3476 0.5-2.4722 0.8722-4.4325 2.8222-5.3198 5.2865-8e-4 -8e-4 -0.0024-8e-4 -0.0032-0.0016-0.0683 0.2191-0.2698 0.3794-0.5111 0.3794-0.231 0-0.4262-0.1468-0.5024-0.3508h-0.0016c-0.8722-2.4786-2.8222-4.4325-5.3158-5.3024l-7.9e-4 -8e-4c-0.19762-0.0809-0.3381-0.2754-0.3381-0.5031z" fill="#1A1A1A" fill-opacity=".72"/>
<path d="m0.9779 23.13c0-0.1428 0.088885-0.2651 0.21428-0.3143v-0.0015c1.5492-0.5397 2.7452-1.7453 3.3056-3.2826h0.00317c0.03651-0.1444 0.16667-0.2524 0.32302-0.2524 0.14444 0 0.26666 0.0921 0.31349 0.2207 7.9e-4 0 0.00158 0 0.00238 8e-4 0.55555 1.5214 1.7984 2.769 3.3246 3.3127v8e-4c0.1254 0.0484 0.21508 0.169 0.21508 0.3111 0 0.1428-0.09048 0.2643-0.21746 0.3119-1.5429 0.5444-2.7659 1.7611-3.3198 3.2984-7.9e-4 0-0.00159-8e-4 -0.00159-8e-4 -0.04206 0.1365-0.16825 0.2365-0.31905 0.2365-0.14444 0-0.26587-0.0913-0.31349-0.2191h-7.9e-4c-0.54445-1.5468-1.7611-2.7658-3.3167-3.3087l-7.9e-4 -8e-4c-0.12381-0.0492-0.2119-0.1706-0.2119-0.3127z" fill="#1A1A1A" fill-opacity=".72"/>
</svg>
