<svg width="132" height="132" viewBox="0 0 132 132" fill="none"
  xmlns="http://www.w3.org/2000/svg">
  <circle cx="66" cy="66" r="65" fill="white" stroke="#9280F9" stroke-opacity="0.4" stroke-width="2" stroke-linecap="round" stroke-linejoin="bevel" stroke-dasharray="8 20"/>
  <path d="M86.3429 91.15C86.3429 90.9667 86.4572 90.8111 86.6175 90.7476C86.6175 90.7468 86.6175 90.7468 86.6175 90.746C88.6016 90.0556 90.1326 88.5111 90.85 86.5429C90.8516 86.5429 90.8524 86.5429 90.854 86.5429C90.9008 86.3572 91.0675 86.2198 91.2675 86.2198C91.4524 86.2198 91.6088 86.3381 91.6683 86.5024C91.6691 86.5024 91.6699 86.5024 91.6715 86.5032C92.3834 88.4508 93.9738 90.0484 95.9286 90.7445C95.9286 90.7452 95.9286 90.7452 95.9286 90.7452C96.0889 90.8071 96.2032 90.9619 96.2032 91.1437C96.2032 91.327 96.0873 91.4825 95.9254 91.5429C93.95 92.2397 92.3842 93.7976 91.6746 95.7659C91.6738 95.7651 91.6731 95.7651 91.6723 95.7651C91.6183 95.9397 91.4572 96.0683 91.2643 96.0683C91.0794 96.0683 90.9238 95.9508 90.8635 95.7881C90.8627 95.7881 90.8627 95.7881 90.8619 95.7881C90.1651 93.8079 88.6072 92.2468 86.6151 91.5516L86.6143 91.5508C86.4548 91.4865 86.3429 91.3318 86.3429 91.15Z" fill="#1A1A1A" fill-opacity="0.72"/>
  <path d="M39.412 45.9327C39.412 45.7033 39.5548 45.5088 39.7556 45.4287C39.7556 45.4279 39.7556 45.4271 39.7556 45.4263C42.239 44.562 44.1548 42.6287 45.0533 40.166C45.0548 40.166 45.0564 40.166 45.058 40.166C45.1167 39.9342 45.3255 39.7612 45.5755 39.7612C45.8072 39.7612 46.0025 39.9088 46.0771 40.1152C46.0787 40.116 46.0787 40.1152 46.0802 40.116C46.9707 42.5541 48.962 44.5533 51.408 45.4247C51.408 45.4255 51.408 45.4255 51.408 45.4263C51.6088 45.5033 51.7525 45.6969 51.7525 45.9255C51.7525 46.1549 51.6072 46.3493 51.4048 46.4255C48.9326 47.2977 46.9723 49.2477 46.085 51.712C46.0842 51.7112 46.0826 51.7112 46.0818 51.7104C46.0136 51.9295 45.812 52.0898 45.5707 52.0898C45.3398 52.0898 45.1445 51.943 45.0683 51.739C45.0675 51.739 45.0675 51.739 45.0667 51.739C44.1945 49.2604 42.2445 47.3065 39.7509 46.4366L39.7501 46.4358C39.5525 46.3549 39.412 46.1604 39.412 45.9327Z" fill="#1A1A1A" fill-opacity="0.72"/>
  <path d="M35.957 54.1251C35.957 53.9822 36.0459 53.86 36.1713 53.8108C36.1713 53.8108 36.1713 53.81 36.1713 53.8092C37.7205 53.2695 38.9166 52.064 39.4769 50.5267C39.4777 50.5267 39.4785 50.5267 39.48 50.5267C39.5166 50.3822 39.6467 50.2743 39.8031 50.2743C39.9475 50.2743 40.0697 50.3664 40.1166 50.4949C40.1173 50.4949 40.1181 50.4949 40.1189 50.4957C40.6745 52.0171 41.9173 53.2648 43.4435 53.8084V53.8092C43.5689 53.8576 43.6586 53.9783 43.6586 54.1203C43.6586 54.2632 43.5681 54.3846 43.4412 54.4322C41.8983 54.9767 40.6753 56.1933 40.1213 57.7306C40.1205 57.7306 40.1197 57.7298 40.1197 57.7298C40.0777 57.8664 39.9515 57.9664 39.8007 57.9664C39.6562 57.9664 39.5348 57.8751 39.4872 57.7473H39.4864C38.942 56.2005 37.7253 54.9814 36.1697 54.4386L36.1689 54.4378C36.0451 54.3886 35.957 54.2671 35.957 54.1251Z" fill="#1A1A1A" fill-opacity="0.72"/>
  <path d="M36.1228 53.8581C36.1224 53.7121 36.2129 53.589 36.3401 53.5383C36.3401 53.5383 36.3409 53.5375 36.3401 53.5366C37.9163 52.9915 39.129 51.7675 39.696 50.2052C39.6976 50.2052 39.6976 50.2052 39.6992 50.2052C39.7362 50.0577 39.8681 49.9485 40.0271 49.9489C40.1747 49.9493 40.2982 50.0437 40.3464 50.1744C40.3472 50.1752 40.348 50.1744 40.3488 50.1752C40.918 51.7249 42.1857 52.9974 43.7403 53.5553C43.7403 53.5553 43.7403 53.5553 43.7403 53.5569C43.8677 53.6067 43.9597 53.7294 43.9592 53.8746C43.9596 54.0206 43.8675 54.1436 43.7394 54.192C42.1714 54.742 40.9287 55.9765 40.3698 57.5404C40.369 57.5396 40.3682 57.5404 40.3674 57.5396C40.3247 57.6782 40.1968 57.7801 40.0436 57.7789C39.8976 57.7785 39.7732 57.6849 39.7242 57.555C39.7242 57.555 39.7242 57.555 39.7226 57.555C39.1647 55.9794 37.9239 54.7353 36.3385 54.179L36.3377 54.1782C36.2127 54.126 36.1231 54.0025 36.1228 53.8581Z" fill="#5A5A5A"/>
  <path d="M76.0499 50.5798C76.2301 49.9478 77.1671 46.4292 75.1146 42.8604C73.2023 39.5369 70.0332 38.4926 69.3326 38.2797C68.7952 38.6496 68.0801 39.234 67.4195 40.1035C66.4875 41.3301 66.1024 42.5466 65.9315 43.2846C60.7166 38.591 55.501 33.8967 50.2862 29.2031C52.1849 35.9894 54.0844 42.7756 55.9831 49.5619C54.7936 50.6773 53.5198 51.9998 52.2418 53.5488C50.6093 55.5278 49.3296 57.4424 48.3305 59.1474C44.8724 62.3989 41.4151 65.6512 37.957 68.9026C38.389 70.0003 39.2903 71.8767 41.1031 73.653C42.8241 75.3402 44.6114 76.1979 45.6946 76.622C49.833 75.2368 53.9705 73.8507 58.1088 72.4654C58.3248 72.7691 61.8696 77.5653 67.9721 77.2158C74.328 76.8519 77.2896 71.2609 77.4103 71.0233" stroke="#5A5A5A" stroke-width="2" stroke-miterlimit="10" stroke-linecap="round" stroke-linejoin="round"/>
  <path d="M57.0885 76.622C57.0281 78.3262 56.8912 87.0873 63.6357 94.1814C71.9889 102.967 82.995 101.088 84.1701 100.925C82.5189 97.779 81.507 93.7556 82.7672 89.1766C84.0945 84.3541 87.516 83.5508 91.185 78.2338C92.2785 76.6492 98.6157 67.4649 95.6915 58.2992C92.69 48.8918 81.5419 44.5401 80.7265 45.4053C80.4008 45.7514 81.7553 46.9992 81.7468 49.3922C81.7409 50.993 81.1278 52.3519 80.4714 53.3792" stroke="#5A5A5A" stroke-width="2" stroke-miterlimit="10" stroke-linecap="round" stroke-linejoin="round"/>
  <path d="M61.4249 58.2143C62.4172 57.774 64.1722 57.1472 66.4416 57.1115C68.6923 57.0767 70.4541 57.6392 71.4583 58.0446" stroke="#5A5A5A" stroke-width="2" stroke-miterlimit="10" stroke-linecap="round" stroke-linejoin="round"/>
</svg>
