<svg width="719" height="1041" viewBox="0 0 719 1041" fill="none" xmlns="http://www.w3.org/2000/svg">
<path d="M57.3727 548.784C55.3362 548.784 53.6038 547.518 52.9038 545.729L52.8896 545.729C45.2246 523.696 28.0701 506.697 6.22056 498.721C6.22056 498.707 6.22057 498.692 6.22057 498.678C4.16288 498.162 2.63554 496.31 2.62847 494.082C2.62847 492.032 3.94368 490.292 5.76802 489.627C5.76802 489.613 5.76802 489.613 5.77509 489.592C27.4055 481.694 45.1468 464.023 52.8755 442.322L52.8896 442.322C53.5755 440.533 55.2938 439.267 57.3161 439.267C59.3526 439.267 61.0779 440.554 61.7496 442.357C69.4854 464.292 86.7954 481.687 108.652 489.557C108.645 489.564 108.645 489.578 108.638 489.585C110.582 490.186 112.004 491.975 111.997 494.117C111.997 496.168 110.696 497.893 108.885 498.572L108.885 498.586C86.8944 506.322 69.5561 523.632 61.8345 545.75L61.8274 545.757C61.1132 547.532 59.3879 548.777 57.3727 548.784Z" fill="#6E6E6E"/>
<path d="M97.004 625.312C95.7312 625.312 94.6564 624.52 94.2109 623.41C94.2109 623.41 94.2038 623.403 94.1967 623.41C89.4096 609.657 78.7111 599.057 65.0781 594.079C65.0781 594.065 65.0781 594.065 65.0781 594.051C63.7912 593.726 62.8365 592.573 62.8365 591.187C62.8365 589.9 63.6568 588.826 64.7953 588.408C64.8023 588.401 64.7952 588.394 64.8023 588.387C78.301 583.459 89.3672 572.435 94.1968 558.894C94.1968 558.894 94.1968 558.894 94.211 558.894C94.6423 557.784 95.71 556.985 96.9757 556.992C98.2485 556.992 99.3233 557.798 99.7476 558.915C104.577 572.598 115.368 583.459 129.015 588.366C129.008 588.373 129.015 588.38 129.008 588.387C130.217 588.762 131.108 589.879 131.101 591.216C131.101 592.488 130.288 593.57 129.156 593.995C129.156 593.995 129.156 593.995 129.156 594.009C115.431 598.838 104.612 609.629 99.797 623.439L99.7899 623.446C99.3374 624.535 98.2626 625.312 97.004 625.312Z" fill="#6E6E6E"/>
<path d="M546.764 284.475C535.914 146.595 409.124 10.5851 403.724 4.86513C401.244 2.05513 397.594 0.565127 393.844 0.505127C393.814 0.505127 393.784 0.505127 393.754 0.505127C393.724 0.505127 393.694 0.505127 393.664 0.505127C389.914 0.565127 386.264 2.04513 383.784 4.85513C378.384 10.5751 251.454 146.465 240.484 284.335C229.584 421.265 307.254 574.835 310.574 581.305C312.824 585.705 317.254 588.575 322.194 588.835L393.484 592.555L464.774 588.905C469.714 588.645 474.144 585.785 476.404 581.385C479.714 574.915 557.534 421.425 546.764 284.475ZM455.184 561.625L393.494 564.785L331.804 561.565C316.884 530.045 259.124 399.595 268.124 286.525C276.584 180.315 363.594 70.5151 393.744 35.3951C423.864 70.5451 510.774 180.425 519.124 286.645C528.014 399.725 470.134 530.115 455.184 561.625Z" fill="#6E6E6E"/>
<path d="M433.574 284.755C411.534 306.775 375.704 306.755 353.684 284.715C331.674 262.685 331.694 226.855 353.724 204.835C375.764 182.815 411.594 182.835 433.604 204.865C455.634 226.905 455.614 262.745 433.574 284.755ZM373.334 224.455C362.114 235.665 362.104 253.905 373.304 265.125C384.514 276.345 402.754 276.355 413.974 265.145C425.194 253.935 425.204 235.695 413.994 224.475C402.794 213.255 384.554 213.245 373.334 224.455Z" fill="#6E6E6E"/>
<path d="M477.894 120.855C477.584 121.165 477.264 121.465 476.914 121.745C411.904 175.525 317.734 129.815 313.764 127.845C306.914 124.445 304.104 116.115 307.504 109.255C310.924 102.415 319.214 99.5951 326.064 102.985C326.884 103.395 408.164 142.625 459.244 100.375C465.144 95.4951 473.884 96.3251 478.764 102.225C483.364 107.775 482.894 115.855 477.894 120.855Z" fill="#6E6E6E"/>
<path d="M485.394 501.345H305.394V530.345H485.394V501.345Z" fill="#6E6E6E"/>
<path d="M586.964 696.955C581.544 702.375 572.764 702.365 567.354 696.955L454.064 583.665C448.654 578.255 448.644 569.475 454.064 564.055C459.484 558.635 468.264 558.645 473.674 564.055L574.494 664.875C582.424 647.195 593.604 608.595 589.464 535.915C582.894 420.425 505.254 222.415 504.474 220.435C501.674 213.305 505.174 205.265 512.284 202.445C519.404 199.635 527.464 203.135 530.274 210.255C533.534 218.535 610.334 414.385 617.154 534.335C624.084 656.125 590.784 693.135 586.964 696.955Z" fill="#6E6E6E"/>
<path d="M200.144 696.955C205.564 702.375 214.344 702.365 219.754 696.955L333.044 583.665C338.454 578.255 338.464 569.475 333.044 564.055C327.624 558.635 318.844 558.645 313.434 564.055L212.614 664.875C204.684 647.195 193.504 608.595 197.644 535.915C204.214 420.425 281.854 222.415 282.634 220.435C285.434 213.305 281.934 205.265 274.824 202.445C267.704 199.635 259.644 203.135 256.834 210.255C253.574 218.535 176.774 414.385 169.954 534.335C163.024 656.125 196.324 693.135 200.144 696.955Z" fill="#6E6E6E"/>
<path d="M402.134 859.475C399.464 862.145 395.804 863.625 392.014 863.535C388.134 863.445 384.464 861.735 381.904 858.815C266.794 727.415 341.314 612.655 342.084 611.515C346.344 605.115 354.954 603.455 361.324 607.715C367.664 611.965 369.384 620.555 365.154 626.915C362.624 630.745 306.494 718.805 392.284 827.935C413.774 799.405 460.544 723.335 435.114 628.635C433.124 621.245 437.524 613.645 444.904 611.645C452.304 609.655 459.904 614.045 461.894 621.435C498.364 757.185 406.294 855.175 402.354 859.275C402.274 859.335 402.204 859.405 402.134 859.475Z" fill="#6E6E6E"/>
<path d="M239.394 908.845V757.845C239.394 749.835 245.884 743.345 253.894 743.345C261.904 743.345 268.394 749.835 268.394 757.845V908.845C268.394 916.855 261.904 923.345 253.894 923.345C245.884 923.345 239.394 916.855 239.394 908.845Z" fill="#6E6E6E"/>
<path d="M308.394 1025.85V874.845C308.394 866.835 314.884 860.345 322.894 860.345C330.904 860.345 337.394 866.835 337.394 874.845V1025.85C337.394 1033.86 330.904 1040.35 322.894 1040.35C314.884 1040.35 308.394 1033.86 308.394 1025.85Z" fill="#6E6E6E"/>
<path d="M518.394 908.845V757.845C518.394 749.835 524.884 743.345 532.894 743.345C540.904 743.345 547.394 749.835 547.394 757.845V908.845C547.394 916.855 540.904 923.345 532.894 923.345C524.884 923.345 518.394 916.855 518.394 908.845Z" fill="#6E6E6E"/>
<path d="M446.394 1025.85V874.845C446.394 866.835 452.884 860.345 460.894 860.345C468.904 860.345 475.394 866.835 475.394 874.845V1025.85C475.394 1033.86 468.904 1040.35 460.894 1040.35C452.884 1040.35 446.394 1033.86 446.394 1025.85Z" fill="#6E6E6E"/>
<path d="M643.373 229.784C641.336 229.784 639.604 228.518 638.904 226.729L638.89 226.729C631.224 204.696 614.07 187.697 592.22 179.721C592.22 179.707 592.22 179.692 592.22 179.678C590.163 179.162 588.635 177.309 588.628 175.082C588.628 173.032 589.944 171.292 591.768 170.627C591.768 170.613 591.768 170.613 591.775 170.592C613.405 162.694 631.147 145.023 638.875 123.322L638.89 123.322C639.575 121.533 641.294 120.267 643.316 120.267C645.352 120.267 647.078 121.554 647.75 123.357C655.485 145.292 672.795 162.687 694.652 170.557C694.645 170.564 694.645 170.578 694.638 170.585C696.582 171.186 698.004 172.975 697.997 175.117C697.997 177.168 696.696 178.893 694.885 179.572L694.885 179.586C672.894 187.322 655.556 204.632 647.834 226.75L647.827 226.757C647.113 228.532 645.388 229.777 643.373 229.784Z" fill="#6E6E6E"/>
<path d="M683.004 306.312C681.731 306.312 680.656 305.52 680.211 304.41C680.211 304.41 680.204 304.403 680.197 304.41C675.41 290.657 664.711 280.057 651.078 275.079C651.078 275.065 651.078 275.065 651.078 275.051C649.791 274.726 648.837 273.573 648.837 272.187C648.837 270.9 649.657 269.826 650.795 269.408C650.802 269.401 650.795 269.394 650.802 269.387C664.301 264.459 675.367 253.435 680.197 239.894C680.197 239.894 680.197 239.894 680.211 239.894C680.642 238.784 681.71 237.985 682.976 237.992C684.248 237.992 685.323 238.798 685.748 239.915C690.577 253.598 701.368 264.459 715.015 269.366C715.008 269.373 715.015 269.38 715.008 269.387C716.217 269.762 717.108 270.879 717.101 272.216C717.101 273.488 716.287 274.57 715.156 274.995C715.156 274.995 715.156 274.995 715.156 275.009C701.431 279.838 690.612 290.629 685.797 304.439L685.79 304.446C685.337 305.535 684.263 306.312 683.004 306.312Z" fill="#6E6E6E"/>
</svg>
