<svg width="132" height="132" viewBox="0 0 132 132" fill="none"
  xmlns="http://www.w3.org/2000/svg">
  <circle cx="66" cy="66" r="65" fill="white" stroke="#2CCBC7" stroke-opacity="0.4" stroke-width="2" stroke-linecap="round" stroke-linejoin="bevel" stroke-dasharray="8 20"/>
  <path d="M78.221 48.529C77.9968 34.0214 66.7876 24 66.7876 24H66.747C66.747 24 55.5378 34.0214 55.3145 48.529C55.0911 63.0366 59.5179 71.8303 59.5179 71.8303H65.847H66.747H66.7876H67.7039H74.0168C74.0168 71.8303 78.4444 63.0374 78.221 48.529Z" stroke="#5A5A5A" stroke-width="2" stroke-miterlimit="10"/>
  <path d="M58.0688 36.4031C54.7922 41.649 49.0536 52.607 49.6181 66.8729C49.8041 71.5725 50.6367 75.691 51.6374 79.0926C53.2448 77.7041 54.8759 76.2413 56.5223 74.7018C57.5514 73.7392 58.5497 72.7815 59.5171 71.8303" stroke="#5A5A5A" stroke-width="2" stroke-miterlimit="10"/>
  <path d="M75.547 36.5873C78.7741 41.9181 84.248 52.7897 83.6648 66.873C83.4698 71.5685 82.6405 75.6861 81.6455 79.0926C80.038 77.7041 78.407 76.2413 76.7605 74.7018C75.7314 73.7392 74.7331 72.7815 73.7657 71.8303" stroke="#5A5A5A" stroke-width="2" stroke-miterlimit="10"/>
  <path d="M63.2535 75.6086C62.6029 77.1271 61.0174 81.3854 62.2008 86.6644C63.1228 90.7756 65.2777 93.5137 66.4116 94.7721C67.6917 93.3852 70.4177 90.0515 71.4021 84.9576C72.1722 80.9733 71.5337 77.688 71.0512 75.9189" stroke="#5A5A5A" stroke-width="2" stroke-miterlimit="10" stroke-linecap="round"/>
  <path d="M56.865 63.6888H76.6833" stroke="#5A5A5A" stroke-width="2" stroke-miterlimit="10" stroke-linecap="round"/>
  <path d="M67.0689 47.4848C69.3164 47.4848 71.1384 45.6721 71.1384 43.4359C71.1384 41.1997 69.3164 39.3869 67.0689 39.3869C64.8215 39.3869 62.9995 41.1997 62.9995 43.4359C62.9995 45.6721 64.8215 47.4848 67.0689 47.4848Z" stroke="#5A5A5A" stroke-width="2" stroke-miterlimit="10" stroke-linecap="round"/>
  <path d="M53.5299 81.1503V96.6786" stroke="#5A5A5A" stroke-width="2" stroke-miterlimit="10" stroke-linecap="round"/>
  <path d="M58.8892 91.444V107.06" stroke="#5A5A5A" stroke-width="2" stroke-miterlimit="10" stroke-linecap="round"/>
  <path d="M73.7649 92.1721V106.332" stroke="#5A5A5A" stroke-width="2" stroke-miterlimit="10" stroke-linecap="round"/>
  <path d="M78.2291 82.7189V98.5745" stroke="#5A5A5A" stroke-width="2" stroke-miterlimit="10" stroke-linecap="round"/>
  <path d="M83.8232 38.4316C83.7062 38.3152 83.6794 38.1439 83.742 38.0017L83.7412 38.0009C84.5664 36.3037 84.5575 34.3519 83.7607 32.6475C83.7615 32.6467 83.7623 32.6459 83.7631 32.6451C83.6746 32.498 83.6932 32.3048 83.8208 32.1771C83.9385 32.06 84.114 32.0357 84.2569 32.102C84.2578 32.1012 84.2578 32.1012 84.2594 32.1004C85.9554 32.8851 87.9893 32.8891 89.6796 32.0907L89.6804 32.0915C89.8226 32.0284 89.9939 32.0543 90.1101 32.1699C90.2271 32.2862 90.2522 32.4584 90.1873 32.5998C89.3718 34.2954 89.3669 36.2786 90.1702 37.9774C90.1694 37.9774 90.1686 37.9782 90.1678 37.9782C90.2449 38.1237 90.2238 38.3072 90.1003 38.4292C89.9826 38.5464 89.8087 38.5706 89.6658 38.506L89.665 38.5068C87.9576 37.6921 85.9676 37.6905 84.2537 38.5132H84.2529C84.1099 38.5747 83.9394 38.5472 83.8232 38.4316Z" fill="#5A5A5A"/>
  <path d="M87.0072 45.104C86.9341 45.0312 86.9179 44.9246 86.9561 44.8357C86.9561 44.8357 86.9561 44.8348 86.9552 44.8348C87.4702 43.7753 87.4645 42.5582 86.9674 41.4946C86.9682 41.4938 86.9682 41.4938 86.9691 41.493C86.9138 41.4009 86.9252 41.2805 87.0048 41.2013C87.0787 41.1277 87.1875 41.1132 87.2769 41.1544C87.2777 41.1544 87.2777 41.1536 87.2785 41.1536C88.3369 41.6434 89.6057 41.6458 90.6608 41.1479C90.6608 41.1479 90.6608 41.1479 90.6616 41.1487C90.7501 41.11 90.8573 41.1253 90.9296 41.198C91.0027 41.2708 91.0182 41.3783 90.9784 41.4664C90.4699 42.5243 90.4658 43.7616 90.9678 44.8219C90.967 44.8219 90.967 44.8227 90.9662 44.8227C91.0141 44.9132 91.0011 45.028 90.924 45.104C90.8508 45.1767 90.742 45.1921 90.6527 45.1517C90.6527 45.1517 90.6527 45.1517 90.6518 45.1525C89.5862 44.6441 88.345 44.6425 87.2753 45.1565H87.2745C87.1859 45.1929 87.0795 45.1759 87.0072 45.104Z" fill="#5A5A5A"/>
  <path d="M38.1148 65.2736C37.9979 65.1572 37.9711 64.9859 38.0336 64.8436L38.0328 64.8428C38.858 63.1457 38.8491 61.1939 38.0523 59.4895C38.0531 59.4887 38.0539 59.4879 38.0547 59.4871C37.9662 59.34 37.9849 59.1468 38.1124 59.0191C38.2302 58.9019 38.4056 58.8777 38.5486 58.944C38.5494 58.9432 38.5494 58.9431 38.551 58.9423C40.247 59.7271 42.2809 59.7311 43.9712 58.9326L43.972 58.9335C44.1142 58.8704 44.2856 58.8963 44.4017 59.0118C44.5187 59.1282 44.5439 59.3004 44.4789 59.4418C43.6634 61.1374 43.6585 63.1206 44.4618 64.8194C44.461 64.8194 44.4602 64.8202 44.4594 64.8202C44.5366 64.9657 44.5154 65.1491 44.392 65.2712C44.2742 65.3884 44.1004 65.4126 43.9574 65.348L43.9566 65.3488C42.2492 64.5341 40.2592 64.5325 38.5453 65.3552H38.5445C38.4016 65.4158 38.231 65.3884 38.1148 65.2736Z" fill="#5A5A5A"/>
  <path d="M41.2989 71.9451C41.2258 71.8724 41.2095 71.7657 41.2477 71.6768C41.2477 71.6768 41.2477 71.676 41.2469 71.676C41.7618 70.6165 41.7562 69.3993 41.2591 68.3358C41.2599 68.335 41.2599 68.335 41.2607 68.3342C41.2054 68.242 41.2168 68.1216 41.2964 68.0424C41.3703 67.9689 41.4792 67.9543 41.5685 67.9955C41.5693 67.9955 41.5693 67.9947 41.5701 67.9947C42.6285 68.4845 43.8973 68.4869 44.9524 67.9891C44.9524 67.9891 44.9524 67.9891 44.9532 67.9899C45.0417 67.9511 45.149 67.9664 45.2213 68.0392C45.2944 68.1119 45.3098 68.2194 45.27 68.3075C44.7615 69.3654 44.7575 70.6027 45.2594 71.663C45.2586 71.663 45.2586 71.6639 45.2578 71.6639C45.3057 71.7544 45.2927 71.8691 45.2156 71.9451C45.1425 72.0178 45.0336 72.0332 44.9443 71.9928C44.9443 71.9928 44.9443 71.9928 44.9435 71.9936C43.8778 71.4852 42.6366 71.4836 41.5669 71.9976H41.5661C41.4776 72.034 41.3711 72.017 41.2989 71.9451Z" fill="#5A5A5A"/>
</svg>
