<svg width="692" height="1041" viewBox="0 0 692 1041" fill="none" xmlns="http://www.w3.org/2000/svg">
<path d="M1.95711 532.775C0.517106 531.335 0.187106 529.215 0.957106 527.455L0.947112 527.445C11.1071 506.445 10.9971 482.295 1.18712 461.205C1.19712 461.195 1.20712 461.185 1.21712 461.175C0.127116 459.355 0.357107 456.965 1.92711 455.385C3.37711 453.935 5.53712 453.635 7.29712 454.455C7.30712 454.445 7.30712 454.445 7.32712 454.435C28.2071 464.145 53.2471 464.195 74.0571 454.315L74.0671 454.325C75.8171 453.545 77.9271 453.865 79.3571 455.295C80.7971 456.735 81.1071 458.865 80.3071 460.615C70.2671 481.595 70.2071 506.135 80.0971 527.155C80.0871 527.155 80.0771 527.165 80.0671 527.165C81.0171 528.965 80.7571 531.235 79.2371 532.745C77.7871 534.195 75.6471 534.495 73.8871 533.695L73.8771 533.705C52.8571 523.625 28.3571 523.605 7.25711 533.785H7.24711C5.48711 534.535 3.38711 534.195 1.95711 532.775Z" fill="#6E6E6E"/>
<path d="M56.1569 615.325C55.2569 614.425 55.0569 613.105 55.5269 612.005C55.5269 612.005 55.5269 611.995 55.5169 611.995C61.8569 598.885 61.7869 583.825 55.6669 570.665C55.6769 570.655 55.6769 570.655 55.6869 570.645C55.0069 569.505 55.1469 568.015 56.1269 567.035C57.0369 566.125 58.3769 565.945 59.4769 566.455C59.4869 566.455 59.4869 566.445 59.4969 566.445C72.5269 572.505 88.1469 572.535 101.137 566.375C101.137 566.375 101.137 566.375 101.147 566.385C102.237 565.905 103.557 566.095 104.447 566.995C105.347 567.895 105.537 569.225 105.047 570.315C98.7869 583.405 98.7369 598.715 104.917 611.835C104.907 611.835 104.907 611.845 104.897 611.845C105.487 612.965 105.327 614.385 104.377 615.325C103.477 616.225 102.137 616.415 101.037 615.915C101.037 615.915 101.037 615.915 101.027 615.925C87.9069 609.635 72.6269 609.615 59.4569 615.975H59.4469C58.3569 616.425 57.0469 616.215 56.1569 615.325Z" fill="#6E6E6E"/>
<path d="M530.067 284.475C519.217 146.595 392.427 10.5851 387.027 4.86513C384.547 2.05513 380.897 0.565127 377.147 0.505127C377.117 0.505127 377.087 0.505127 377.057 0.505127C377.027 0.505127 376.997 0.505127 376.967 0.505127C373.217 0.565127 369.567 2.04513 367.087 4.85513C361.687 10.5751 234.757 146.465 223.787 284.335C212.887 421.265 290.557 574.835 293.877 581.305C296.127 585.705 300.557 588.575 305.497 588.835L376.787 592.555L448.077 588.905C453.017 588.645 457.447 585.785 459.707 581.385C463.017 574.915 540.837 421.425 530.067 284.475ZM438.487 561.625L376.797 564.785L315.107 561.565C300.187 530.045 242.427 399.595 251.427 286.525C259.887 180.315 346.897 70.5151 377.047 35.3951C407.167 70.5451 494.077 180.425 502.427 286.645C511.317 399.725 453.437 530.115 438.487 561.625Z" fill="#6E6E6E"/>
<path d="M416.877 284.755C394.837 306.775 359.007 306.755 336.987 284.715C314.977 262.685 314.997 226.855 337.027 204.835C359.067 182.815 394.897 182.835 416.907 204.865C438.937 226.905 438.917 262.745 416.877 284.755ZM356.637 224.455C345.417 235.665 345.407 253.905 356.607 265.125C367.817 276.345 386.057 276.355 397.277 265.145C408.497 253.935 408.507 235.695 397.297 224.475C386.097 213.255 367.857 213.245 356.637 224.455Z" fill="#6E6E6E"/>
<path d="M461.197 120.855C460.887 121.165 460.567 121.465 460.217 121.745C395.207 175.525 301.037 129.815 297.067 127.845C290.217 124.445 287.407 116.115 290.807 109.255C294.227 102.415 302.517 99.5951 309.367 102.985C310.187 103.395 391.467 142.625 442.547 100.375C448.447 95.4951 457.187 96.3251 462.067 102.225C466.667 107.775 466.197 115.855 461.197 120.855Z" fill="#6E6E6E"/>
<path d="M468.697 501.345H288.697V530.345H468.697V501.345Z" fill="#6E6E6E"/>
<path d="M570.267 696.955C564.847 702.375 556.067 702.365 550.657 696.955L437.367 583.665C431.957 578.255 431.947 569.475 437.367 564.055C442.787 558.635 451.567 558.645 456.977 564.055L557.797 664.875C565.727 647.195 576.907 608.595 572.767 535.915C566.197 420.425 488.557 222.415 487.777 220.435C484.977 213.305 488.477 205.265 495.587 202.445C502.707 199.635 510.767 203.135 513.577 210.255C516.837 218.535 593.637 414.385 600.457 534.335C607.387 656.125 574.087 693.135 570.267 696.955Z" fill="#6E6E6E"/>
<path d="M183.447 696.955C188.867 702.375 197.647 702.365 203.057 696.955L316.347 583.665C321.757 578.255 321.767 569.475 316.347 564.055C310.927 558.635 302.147 558.645 296.737 564.055L195.917 664.875C187.987 647.195 176.807 608.595 180.947 535.915C187.517 420.425 265.157 222.415 265.937 220.435C268.737 213.305 265.237 205.265 258.127 202.445C251.007 199.635 242.947 203.135 240.137 210.255C236.877 218.535 160.077 414.385 153.257 534.335C146.327 656.125 179.627 693.135 183.447 696.955Z" fill="#6E6E6E"/>
<path d="M385.437 859.475C382.767 862.145 379.107 863.625 375.317 863.535C371.437 863.445 367.767 861.735 365.207 858.815C250.097 727.415 324.617 612.655 325.387 611.515C329.647 605.115 338.257 603.455 344.627 607.715C350.967 611.965 352.687 620.555 348.457 626.915C345.927 630.745 289.797 718.805 375.587 827.935C397.077 799.405 443.847 723.335 418.417 628.635C416.427 621.245 420.827 613.645 428.207 611.645C435.607 609.655 443.207 614.045 445.197 621.435C481.667 757.185 389.597 855.175 385.657 859.275C385.577 859.335 385.507 859.405 385.437 859.475Z" fill="#6E6E6E"/>
<path d="M222.697 908.845V757.845C222.697 749.835 229.187 743.345 237.197 743.345C245.207 743.345 251.697 749.835 251.697 757.845V908.845C251.697 916.855 245.207 923.345 237.197 923.345C229.187 923.345 222.697 916.855 222.697 908.845Z" fill="#6E6E6E"/>
<path d="M291.697 1025.85V874.845C291.697 866.835 298.187 860.345 306.197 860.345C314.207 860.345 320.697 866.835 320.697 874.845V1025.85C320.697 1033.86 314.207 1040.35 306.197 1040.35C298.187 1040.35 291.697 1033.86 291.697 1025.85Z" fill="#6E6E6E"/>
<path d="M501.697 908.845V757.845C501.697 749.835 508.187 743.345 516.197 743.345C524.207 743.345 530.697 749.835 530.697 757.845V908.845C530.697 916.855 524.207 923.345 516.197 923.345C508.187 923.345 501.697 916.855 501.697 908.845Z" fill="#6E6E6E"/>
<path d="M429.697 1025.85V874.845C429.697 866.835 436.187 860.345 444.197 860.345C452.207 860.345 458.697 866.835 458.697 874.845V1025.85C458.697 1033.86 452.207 1040.35 444.197 1040.35C436.187 1040.35 429.697 1033.86 429.697 1025.85Z" fill="#6E6E6E"/>
<path d="M587.957 213.775C586.517 212.335 586.187 210.215 586.957 208.455L586.947 208.445C597.107 187.445 596.997 163.295 587.187 142.205C587.197 142.195 587.207 142.185 587.217 142.175C586.127 140.355 586.357 137.965 587.927 136.385C589.377 134.935 591.537 134.635 593.297 135.455C593.307 135.445 593.307 135.445 593.327 135.435C614.207 145.145 639.247 145.195 660.057 135.315L660.067 135.325C661.817 134.545 663.927 134.865 665.357 136.295C666.797 137.735 667.107 139.865 666.307 141.615C656.267 162.595 656.207 187.135 666.097 208.155C666.087 208.155 666.077 208.165 666.067 208.165C667.017 209.965 666.757 212.235 665.237 213.745C663.787 215.195 661.647 215.495 659.887 214.695L659.877 214.705C638.857 204.625 614.357 204.605 593.257 214.785H593.247C591.487 215.535 589.387 215.195 587.957 213.775Z" fill="#6E6E6E"/>
<path d="M642.157 296.325C641.257 295.425 641.057 294.105 641.527 293.005C641.527 293.005 641.527 292.995 641.517 292.995C647.857 279.885 647.787 264.825 641.667 251.665C641.677 251.655 641.677 251.655 641.687 251.645C641.007 250.505 641.147 249.015 642.127 248.035C643.037 247.125 644.377 246.945 645.477 247.455C645.487 247.455 645.487 247.445 645.497 247.445C658.527 253.505 674.147 253.535 687.137 247.375C687.137 247.375 687.137 247.375 687.147 247.385C688.237 246.905 689.557 247.095 690.447 247.995C691.347 248.895 691.537 250.225 691.047 251.315C684.787 264.405 684.737 279.715 690.917 292.835C690.907 292.835 690.907 292.845 690.897 292.845C691.487 293.965 691.327 295.385 690.377 296.325C689.477 297.225 688.137 297.415 687.037 296.915C687.037 296.915 687.037 296.915 687.027 296.925C673.907 290.635 658.627 290.615 645.457 296.975H645.447C644.357 297.425 643.047 297.215 642.157 296.325Z" fill="#6E6E6E"/>
</svg>
