<?xml version="1.0" encoding="UTF-8"?>
<svg fill="none" viewBox="0 0 108 109" xmlns="http://www.w3.org/2000/svg">
<path d="m57.665 58.545-9.1963-0.488-9.7374 9.7375c-0.4846 0.4846-1.2715 0.4835-1.7574-0.0025-0.3426-0.3425-3.3304-3.6631-2.7246-14.573 0.5302-9.5498 6.0041-24.464 7.4201-28.186 3.1056-10.147 11.262-18.89 11.67-19.321 0.222-0.2512 0.5487-0.38379 0.8845-0.38839 0.3358-0.00461 0.6597 0.12698 0.8976 0.36488 0.3397 0.3397 7.2422 7.374 8.7934 18.78 0.0382 0.0619 0.0714 0.128 0.099 0.198 0.2931 0.7423 7.1979 18.298 7.8241 29.047 0.6353 10.911-2.3428 14.222-2.6851 14.565-0.4846 0.4846-1.2714 0.4835-1.7573-0.0024l-9.731-9.7309zm6.4395-26.365c-0.4166 6.8204-1.5844 13.052-2.6745 17.656 0.0606 0.1592 0.0893 0.3334 0.0787 0.5142-0.0186 0.3155-0.1538 0.5966-0.3606 0.8035-0.0164 0.0163-0.0332 0.0322-0.0504 0.0476-0.6604 2.6393-1.2581 4.612-1.5959 5.6703l8.5307 8.5307c0.708-1.5835 1.7048-5.0405 1.3259-11.552-0.3701-6.3598-3.1499-15.516-5.2539-21.67zm-2.3937-1.8861c-0.2878 7.1115-1.5026 13.779-2.643 18.663-7.8431-0.4776-11.474-0.6713-13.234-0.6701-1.6719-4.9138-3.2725-11.4-2.8101-17.348 0.1337-1.7196 0.4973-3.4495 1.0191-5.1483 0.1606-0.4231 0.254-0.662 0.2619-0.6819 0.0482-0.1227 0.0755-0.2485 0.0836-0.3736 0.791-2.2786 1.8445-4.4846 2.9835-6.5158 2.2311 0.8898 7.837 2.6311 12.4-0.0741 1.2494 3.3989 2.127 7.501 1.9385 12.149zm-2.8984-14.485c-3.4319 2.261-8.0327 1.0183-10.154 0.2382 2.1591-3.4611 4.3856-6.2078 5.5881-7.6096 1.0775 1.3022 2.9583 3.8404 4.5654 7.3714zm-12.075 34.98c2.6313 0.1 7.7058 0.3817 11.728 0.6207-0.5424 2.1063-1.0208 3.7028-1.3087 4.6202l-8.3828-0.4455c-0.4112-0.8657-1.1844-2.5643-2.0365-4.7954zm-2.8327-0.4436c-0.208-0.242-0.3081-0.5452-0.2998-0.8457-1.3357-3.8435-2.6559-8.6975-3.0377-13.635-1.7692 5.6628-3.5584 12.457-3.8385 17.498-0.3641 6.5621 0.6353 9.9972 1.3489 11.565l8.3955-8.3956c-0.5395-1.1309-1.5379-3.336-2.5684-6.1867zm-22.023 0.503c0-0.1821 0.1137-0.3373 0.2729-0.401v-0.0018c1.971-0.6881 3.492-2.2268 4.206-4.1871h0.0036c0.0465-0.1848 0.212-0.3221 0.4107-0.3221 0.1843 0 0.339 0.1176 0.3981 0.2817l0.0014 2e-4c4e-4 1e-4 8e-4 3e-4 0.0013 7e-4 0.7068 1.9406 2.2877 3.5322 4.2292 4.2257v9e-4c0.1593 0.0619 0.2729 0.2153 0.2729 0.3975 0 0.183-0.1154 0.3373-0.2764 0.3983-1.963 0.6944-3.5189 2.2465-4.223 4.2077-9e-4 -9e-4 -0.0018-9e-4 -0.0027-9e-4 -0.0537 0.1741-0.2139 0.3015-0.4053 0.3015-0.1834 0-0.3382-0.1166-0.3991-0.279h-9e-4c-0.6925-1.9729-2.2403-3.5286-4.2194-4.2212l-9e-4 -9e-4c-0.1565-0.0646-0.2684-0.2189-0.2684-0.4002zm4.0666 8.7019c0-0.114 0.0707-0.2109 0.17-0.2503v-9e-4c1.2302-0.4298 2.1795-1.3898 2.6242-2.6126h0.0026c0.0296-0.1148 0.1325-0.201 0.2568-0.201 0.1145 0 0.2112 0.0736 0.2487 0.1759h0.0018c0.4411 1.2112 1.4271 2.2043 2.6394 2.6368v9e-4c0.0993 0.0385 0.1709 0.1345 0.1709 0.2476 0 0.1139-0.0716 0.2108-0.1727 0.2485-1.2248 0.4333-2.1956 1.4014-2.6349 2.626-9e-4 0-9e-4 0-0.0018-9e-4 -0.034 0.1086-0.1333 0.1884-0.2532 0.1884-0.1145 0-0.2111-0.0726-0.2487-0.174h-9e-4c-0.4321-1.2309-1.3975-2.2017-2.6331-2.6341v-9e-4c-0.0993-0.0404-0.1691-0.1364-0.1691-0.2494zm42.256-35.082c-0.0675 0.1576-0.0381 0.3477 0.0907 0.4765 0.1281 0.1281 0.3169 0.1588 0.4727 0.0931h0.0013c1.8891-0.9096 4.0837-0.9041 5.9684 0.0013l6e-4 -6e-4c0.1579 0.0718 0.3498 0.0448 0.4795-0.0849 0.1354-0.1354 0.1585-0.3387 0.0734-0.4997 6e-4 -7e-4 0.0013-0.0013 0.0025-0.0013-0.8889-1.8847-0.8862-4.0824 0.0108-5.9614 0.0708-0.157 0.0433-0.3478-0.0862-0.4772-0.1287-0.1288-0.3176-0.1569-0.474-0.0881l-6e-4 -6e-4c-1.8632 0.8825-4.1065 0.8749-5.9785 0.0025l-0.0013 3e-4c-5e-4 2e-4 -9e-4 6e-4 -0.0013 1e-3 -0.1578-0.0743-0.3504-0.048-0.4807 0.0823-0.1404 0.1405-0.1604 0.3546-0.0626 0.5182l-0.0026 0.0025c0.8813 1.891 0.8938 4.0545-0.0133 5.9348l0.0012 0.0013zm3.1199 7.2516c-0.057-0.0987-0.0442-0.218 0.0221-0.3018l-5e-4 -8e-4c0.8505-0.9873 1.1926-2.2933 0.9663-3.5746l0.0023-0.0013c-0.0318-0.1143 0.0142-0.2403 0.1219-0.3025 0.0992-0.0572 0.2197-0.0418 0.3034 0.0279l0.0015-9e-4c0.9876 0.8284 2.338 1.1955 3.6042 0.9639l4e-4 8e-4c0.1053-0.0163 0.2153 0.0311 0.2718 0.129 0.057 0.0986 0.0434 0.2183-0.0253 0.3015-0.844 0.9877-1.2007 2.3115-0.9688 3.5917l-8e-4 3e-4 -0.0012-2e-4c0.0248 0.111-0.0213 0.2298-0.1251 0.2897-0.0992 0.0573-0.2192 0.0427-0.3024-0.0263l-8e-4 4e-4c-0.9897-0.8499-2.3119-1.2075-3.5974-0.9646l-5e-4 -8e-4c-0.1057 0.0155-0.2146-0.0335-0.2711-0.1314zm-22.213-0.8462c1.9762 1.9761 5.1869 1.9805 7.1576 0.0098s1.9669-5.1807-0.0099-7.1575c-1.9755-1.9755-5.1862-1.9799-7.1569-0.0092s-1.9663 5.1814 0.0092 7.1569zm1.7544-1.7544c-1.0055-1.0055-1.0078-2.64-0.0044-3.6433 1.0034-1.0034 2.6378-1.0012 3.6434 0.0044 1.0061 1.0061 1.0084 2.6406 5e-3 3.644s-2.6379 1.0011-3.644-0.0051zm1.2037 54.502c0.3396 0.0093 0.6669-0.1227 0.9061-0.3618l0.019-0.019c0.3517-0.3669 8.5893-9.1349 5.3049-21.302-0.1796-0.6629-0.8612-1.056-1.5236-0.8795-0.6612 0.1777-1.0536 0.8582-0.8747 1.5205 2.2905 8.4879-1.8909 15.297-3.8126 17.85-7.6994-9.7883-2.682-17.671-2.4557-18.014 0.3781-0.5684 0.2231-1.3383-0.3457-1.7199-0.5707-0.3821-1.3415-0.2343-1.7227 0.3385-0.0683 0.1025-6.7308 10.375 3.5985 22.162 0.2291 0.262 0.5581 0.4164 0.9065 0.4245zm-12.537 2.8325c-0.2398 0.2397-0.576 0.3805-0.9422 0.361-0.6855-0.0364-1.2128-0.6219-1.1783-1.3073l0.7597-15.094c0.0346-0.6854 0.6186-1.211 1.3028-1.1746 0.6855 0.0364 1.2128 0.6219 1.1783 1.3073l-0.7597 15.094c-0.016 0.3193-0.1512 0.6041-0.3606 0.8136zm24.695 2.3474c0.3662 0.0195 0.7024-0.1213 0.9422-0.3611 0.2094-0.2094 0.3452-0.4937 0.3606-0.8136l0.7597-15.094c0.0345-0.6854-0.4927-1.2709-1.1782-1.3073-0.6843-0.0364-1.2677 0.4886-1.3028 1.1747l-0.7597 15.094c-0.0346 0.6854 0.4927 1.2709 1.1782 1.3073zm-5.8086 10.823c-0.2397 0.2398-0.576 0.3801-0.9422 0.3611-0.6861-0.0371-1.2127-0.6219-1.1782-1.3073l0.7603-15.094c0.0345-0.6854 0.6186-1.2111 1.3028-1.1746 0.6862 0.037 1.2128 0.6218 1.1783 1.3073l-0.7604 15.094c-0.016 0.3193-0.1512 0.6042-0.3606 0.8136zm-14.603 2.0321c0.3662 0.019 0.7024-0.121 0.9422-0.361 0.2094-0.21 0.3452-0.494 0.3606-0.814l0.7597-15.094c0.0345-0.6854-0.4928-1.2709-1.1783-1.3073-0.6849-0.0358-1.2683 0.4892-1.3028 1.1746l-0.7597 15.095c-0.0345 0.685 0.4928 1.27 1.1783 1.307z" clip-rule="evenodd" fill="#1A1A1A" fill-opacity=".72" fill-rule="evenodd"/>
</svg>
