<svg width="103" height="41" viewBox="0 0 103 41" fill="none" xmlns="http://www.w3.org/2000/svg">
<path d="M51.1858 18.8035C50.4754 18.1101 50.1203 17.1584 50.1203 15.9483C50.1203 15.1598 50.2842 14.4663 50.6257 13.8545C50.9672 13.2427 51.4453 12.7804 52.0601 12.4541C52.6748 12.1142 53.3851 11.951 54.2047 11.951C54.7512 11.951 55.2976 12.0326 55.8167 12.2094C56.3358 12.3725 56.7593 12.6037 57.0598 12.9028L56.4587 14.4799C56.1582 14.2352 55.8303 14.0585 55.4615 13.9225C55.1063 13.7865 54.7512 13.7186 54.4097 13.7186C53.7813 13.7186 53.3032 13.9089 52.9616 14.276C52.6201 14.6567 52.4425 15.2005 52.4425 15.9211C52.4425 16.6553 52.6065 17.1992 52.948 17.5799C53.2895 17.9606 53.7813 18.1373 54.4097 18.1373C54.7512 18.1373 55.1063 18.0693 55.4615 17.9334C55.8167 17.7974 56.1582 17.6071 56.4587 17.3759L57.0598 18.9531C56.7319 19.2386 56.2948 19.4697 55.762 19.6329C55.2293 19.796 54.6692 19.8776 54.0955 19.8776C52.866 19.8504 51.8961 19.4969 51.1858 18.8035Z" fill="#345FD6"/>
<path d="M65.7889 12.1414V19.7281H63.5485V18.5996C63.3163 18.9939 62.9885 19.293 62.565 19.5106C62.1415 19.7281 61.6634 19.8369 61.1306 19.8369C60.4749 19.8369 59.8875 19.6737 59.3821 19.361C58.8766 19.0483 58.4805 18.586 58.1936 17.9878C57.9067 17.3896 57.7701 16.7098 57.7701 15.9348C57.7701 15.1598 57.9067 14.4664 58.1936 13.8546C58.4805 13.2427 58.8766 12.7805 59.3957 12.4406C59.9012 12.1007 60.4886 11.9375 61.1443 11.9375C61.677 11.9375 62.1552 12.0463 62.5786 12.2774C63.0021 12.5085 63.33 12.8213 63.5622 13.2019V12.1278H65.7889V12.1414ZM63.0977 17.5663C63.3983 17.1856 63.5485 16.6418 63.5485 15.9212C63.5485 15.2006 63.3983 14.6567 63.0977 14.2624C62.7972 13.8818 62.3601 13.6914 61.8 13.6914C61.2399 13.6914 60.8028 13.8954 60.4886 14.2896C60.1744 14.6839 60.0241 15.2414 60.0241 15.9484C60.0241 16.6554 60.1744 17.1992 60.4886 17.5663C60.7891 17.947 61.2263 18.1238 61.8 18.1238C62.3737 18.1238 62.7972 17.9334 63.0977 17.5663Z" fill="#345FD6"/>
<path d="M72.8786 12.1142L72.865 14.1808C72.4961 14.0176 72.1273 13.9225 71.7584 13.9225C71.1574 13.9225 70.6929 14.0856 70.3787 14.4119C70.0646 14.7382 69.9006 15.1869 69.9006 15.7715V19.7416H67.633V14.3167C67.633 13.5146 67.592 12.7804 67.51 12.1414H69.6411L69.7913 13.4466C69.9826 12.9707 70.2831 12.6036 70.6793 12.3453C71.0891 12.087 71.5399 11.9646 72.059 11.9646C72.3868 11.9646 72.66 12.0054 72.8786 12.1142Z" fill="#345FD6"/>
<path d="M80.4876 16.1251H75.4605C75.5015 16.8321 75.6791 17.3487 76.0206 17.675C76.3484 18.0014 76.8402 18.1645 77.4959 18.1645C77.8921 18.1645 78.2746 18.0965 78.6707 17.9742C79.0669 17.8382 79.4221 17.6614 79.7499 17.4031L80.351 18.9259C79.9958 19.2114 79.545 19.4425 78.9986 19.6057C78.4658 19.7689 77.9194 19.8504 77.3866 19.8504C76.1026 19.8504 75.0917 19.4969 74.3677 18.7899C73.63 18.0829 73.2748 17.1312 73.2748 15.9075C73.2748 15.1462 73.4388 14.4527 73.753 13.8545C74.0671 13.2563 74.5179 12.7804 75.078 12.4541C75.6518 12.1142 76.2938 11.951 77.0178 11.951C78.097 11.951 78.9439 12.3046 79.5587 12.998C80.1734 13.6914 80.4876 14.6295 80.4876 15.7988V16.1251ZM76.0343 13.9089C75.7747 14.1536 75.5971 14.5207 75.5152 14.9966H78.5341C78.4112 14.0177 77.9331 13.5282 77.0725 13.5282C76.6353 13.5282 76.2938 13.6642 76.0343 13.9089Z" fill="#345FD6"/>
<path d="M92.5634 12.4269C93.0688 12.7533 93.465 13.2155 93.7518 13.8002C94.0387 14.3984 94.1753 15.0782 94.1753 15.8532C94.1753 16.6282 94.0387 17.3216 93.7518 17.9198C93.465 18.518 93.0688 18.9939 92.5634 19.3202C92.0579 19.6601 91.4705 19.8233 90.8148 19.8233C90.2821 19.8233 89.804 19.7145 89.3805 19.4834C88.957 19.2522 88.6292 18.9531 88.4106 18.5588V19.7009H86.1566V8.68799H88.4243V13.1747C88.6428 12.7804 88.9707 12.4813 89.3942 12.2502C89.8176 12.0327 90.2957 11.9103 90.8148 11.9103C91.4705 11.9511 92.0579 12.1142 92.5634 12.4269ZM91.4432 17.5391C91.7438 17.1448 91.894 16.5874 91.894 15.8668C91.894 15.1734 91.7438 14.6295 91.4432 14.2488C91.1427 13.8681 90.7056 13.6778 90.1455 13.6778C89.5854 13.6778 89.1483 13.8681 88.8477 14.2488C88.5472 14.6295 88.3833 15.1734 88.3833 15.894C88.3833 16.6146 88.5335 17.1584 88.8477 17.5527C89.1483 17.9334 89.5854 18.1237 90.1455 18.1237C90.7192 18.1237 91.1427 17.9334 91.4432 17.5391Z" fill="#345FD6"/>
<path d="M103 12.1414L99.4756 20.136C99.0384 21.1013 98.5057 21.8083 97.85 22.2706C97.1943 22.7192 96.3883 23.0184 95.4321 23.1407L94.8993 21.4004C95.596 21.2509 96.1287 21.0605 96.4839 20.8294C96.8391 20.5982 97.1123 20.2719 97.3172 19.8233L97.5494 19.3338L94.4075 12.1278H96.7845L98.7379 17.0496L100.76 12.1278H103V12.1414Z" fill="#345FD6"/>
<path d="M59.6143 33.4466H56.8276L53.836 30.0476V33.4466H51.5683V22.4337H53.836V29.123L56.691 25.8736H59.4231L56.1856 29.5173L59.6143 33.4466Z" fill="#345FD6"/>
<path d="M65.4474 25.8327L65.4337 27.8993C65.0649 27.7362 64.6961 27.641 64.3272 27.641C63.7262 27.641 63.2617 27.8042 62.9475 28.1305C62.6333 28.4568 62.4694 28.9054 62.4694 29.4901V33.4466H60.2018V28.0217C60.2018 27.2195 60.1608 26.4853 60.0788 25.8463H62.2098L62.3601 27.1515C62.5514 26.6757 62.8519 26.3086 63.248 26.0502C63.6579 25.7919 64.1087 25.6696 64.6278 25.6696C64.9556 25.6832 65.2152 25.7375 65.4474 25.8327Z" fill="#345FD6"/>
<path d="M73.0562 29.8436H68.0292C68.0702 30.5506 68.2477 31.0672 68.5893 31.3936C68.9171 31.7199 69.4089 31.883 70.0646 31.883C70.4607 31.883 70.8432 31.815 71.2394 31.6927C71.6355 31.5567 71.9907 31.38 72.3186 31.1216L72.9196 32.6444C72.5645 32.9299 72.1137 33.1611 71.5672 33.3242C71.0345 33.4874 70.4881 33.5689 69.9553 33.5689C68.6712 33.5689 67.6603 33.2154 66.9363 32.5084C66.2123 31.8014 65.8435 30.8497 65.8435 29.626C65.8435 28.8647 66.0074 28.1713 66.3216 27.573C66.6358 26.9748 67.0866 26.4989 67.6467 26.1726C68.2068 25.8463 68.8625 25.6696 69.5865 25.6696C70.6656 25.6696 71.5126 26.0231 72.1273 26.7165C72.742 27.4099 73.0562 28.348 73.0562 29.5173V29.8436ZM68.5893 27.6274C68.3297 27.8721 68.1521 28.2392 68.0702 28.7151H71.0891C70.9662 27.7362 70.4881 27.2467 69.6275 27.2467C69.204 27.2603 68.8625 27.3827 68.5893 27.6274Z" fill="#345FD6"/>
<path d="M82.1131 25.8599V33.4466H79.8728V32.3181C79.6406 32.7124 79.3127 33.0115 78.8893 33.2291C78.4658 33.4466 77.9877 33.5554 77.4549 33.5554C76.7992 33.5554 76.2118 33.3922 75.7064 33.0795C75.2009 32.7668 74.8048 32.3045 74.5179 31.7063C74.231 31.1081 74.0944 30.4283 74.0944 29.6533C74.0944 28.8783 74.231 28.1849 74.5179 27.5731C74.8048 26.9612 75.2009 26.499 75.72 26.1591C76.2255 25.8192 76.8129 25.656 77.4686 25.656C78.0013 25.656 78.4794 25.7648 78.9029 25.9959C79.3264 26.227 79.6542 26.5398 79.8865 26.9205V25.8464H82.1131V25.8599ZM79.422 31.2848C79.7226 30.9041 79.8728 30.3603 79.8728 29.6397C79.8728 28.9191 79.7226 28.3752 79.422 27.981C79.1215 27.6003 78.6844 27.4099 78.1243 27.4099C77.5642 27.4099 77.1271 27.6139 76.8129 28.0081C76.4987 28.4024 76.3484 28.9599 76.3484 29.6669C76.3484 30.3739 76.4987 30.9177 76.8129 31.2848C77.1134 31.6655 77.5505 31.8423 78.1243 31.8423C78.698 31.8559 79.1215 31.6655 79.422 31.2848Z" fill="#345FD6"/>
<path d="M86.8124 27.5595V30.5099C86.8124 30.9314 86.9216 31.2305 87.1402 31.4344C87.3588 31.6248 87.6456 31.7199 88.0008 31.7199C88.2194 31.7199 88.4653 31.6791 88.7521 31.6112V33.3651C88.397 33.501 87.9598 33.569 87.4407 33.569C86.4982 33.569 85.7742 33.3107 85.2824 32.7804C84.7906 32.2502 84.5447 31.5024 84.5447 30.5507V27.5595H83.0967V25.8736H84.5447V24.0925L86.8124 23.3583V25.8736H88.7521V27.5595H86.8124Z" fill="#345FD6"/>
<path d="M89.8313 22.2977H92.2492V24.4187H89.8313V22.2977ZM89.9133 33.4466V25.8599H92.1809V33.4466H89.9133Z" fill="#345FD6"/>
<path d="M99.3117 25.8735H101.552L98.1915 33.4466H96.2654L92.9596 25.8735H95.3365L97.2899 30.7818L99.3117 25.8735Z" fill="#345FD6"/>
<path d="M9.48037 26.7029C14.7162 26.7029 18.9607 22.4784 18.9607 17.2672C18.9607 12.056 14.7162 7.83142 9.48037 7.83142C4.24451 7.83142 0 12.056 0 17.2672C0 22.4784 4.24451 26.7029 9.48037 26.7029Z" fill="#DD2638"/>
<path d="M26.7882 9.40857C29.3986 9.40857 31.5147 7.30239 31.5147 4.70428C31.5147 2.10618 29.3986 0 26.7882 0C24.1778 0 22.0617 2.10618 22.0617 4.70428C22.0617 7.30239 24.1778 9.40857 26.7882 9.40857Z" fill="#9280FA"/>
<path d="M5.44641 22.828C5.44641 32.43 13.2912 40.25 22.9496 40.25C32.5942 40.25 40.4528 32.4301 40.4528 22.828C40.4528 13.226 32.608 5.40601 22.9496 5.40601C13.2912 5.40601 5.44641 13.226 5.44641 22.828ZM6.76604 22.828C6.76604 13.9394 14.0295 6.72178 22.9496 6.72178C31.8699 6.72178 39.1331 13.9261 39.1331 22.8144C39.1331 31.703 31.8697 38.9206 22.9496 38.9206C14.0292 38.9206 6.76604 31.7163 6.76604 22.828Z" fill="#345FD6" stroke="#345FD6" stroke-width="0.5"/>
<path d="M13.3873 12.2366C16.7823 12.2366 19.5345 9.49732 19.5345 6.11829C19.5345 2.73925 16.7823 0 13.3873 0C9.99224 0 7.24004 2.73925 7.24004 6.11829C7.24004 9.49732 9.99224 12.2366 13.3873 12.2366Z" fill="#2CCBC7"/>
</svg>
