<svg xmlns="http://www.w3.org/2000/svg" width="103" height="578" fill="#333" opacity=".4"><path d="M.016.94c-.034.26.033.533.2.755l4.9 6.26A1 1 0 1 0 6.7 6.734L2.183.94H.016zm17.16 21.627a1 1 0 0 1 1.394.242l4.546 6.574a1 1 0 0 1-1.655 1.123l-4.527-6.546a1 1 0 0 1 .242-1.393zm15.422 23.25a1 1 0 0 1 1.376.325l4.14 6.832a1 1 0 0 1-1.719 1.021l-4.12-6.803a1 1 0 0 1 .325-1.376zm13.99 24.14a1 1 0 0 1 1.354.408l3.716 7.066a1 1 0 0 1-1.778.916l-3.7-7.036a1 1 0 0 1 .408-1.354zm12.5 24.935a1 1 0 0 1 1.327.489l3.284 7.284a1 1 0 0 1-1.83.806l-3.27-7.252a1 1 0 0 1 .489-1.327zm10.965 25.65a1 1 0 0 1 1.295.569l2.838 7.48a1 1 0 0 1-1.876.693l-2.826-7.446a1 1 0 0 1 .569-1.295zm9.388 26.277a1 1 0 0 1 1.258.647l2.374 7.628a1 1 0 0 1-1.915.578l-2.364-7.595a1 1 0 0 1 .647-1.258zm7.77 26.8a1 1 0 0 1 1.216.722l1.903 7.744a1 1 0 0 1-1.946.46l-1.894-7.7a1 1 0 0 1 .722-1.216zm6.123 27.205a1 1 0 0 1 1.17.794l1.43 7.856a1 1 0 1 1-1.971.342l-1.425-7.822a1 1 0 0 1 .795-1.17zm4.463 27.532a1 1 0 0 1 1.12.863l.955 7.942a1 1 0 0 1-1.988.222l-.95-7.908a1 1 0 0 1 .864-1.119zm2.804 27.758a1 1 0 0 1 1.065.93l.477 8a1 1 0 0 1-.948 1.05 1 1 0 0 1-1.049-.948l-.475-7.967a1 1 0 0 1 .93-1.066zM101.716 284a1 1 0 0 1 1.009.991l.017 4.014-.017 4.014a1 1 0 1 1-2-.017l.017-3.997-.017-3.997a1 1 0 0 1 .991-1.008zm-.532 27.914a1 1 0 0 1 .948 1.05l-.477 8a1 1 0 0 1-1.065.93 1 1 0 0 1-.93-1.066l.475-7.967a1 1 0 0 1 1.049-.948zm-2.197 27.83a1 1 0 0 1 .883 1.105l-.955 7.94a1 1 0 0 1-1.984-.255l.95-7.908a1 1 0 0 1 1.105-.883zM95.12 367.38a1 1 0 0 1 .815 1.155l-1.43 7.856a1 1 0 0 1-1.964-.375l1.425-7.822a1 1 0 0 1 1.156-.814zm-5.534 27.34a1 1 0 0 1 .743 1.203l-1.902 7.744a1 1 0 0 1-1.938-.494l1.894-7.7a1 1 0 0 1 1.203-.743zm-7.183 26.95a1 1 0 0 1 .668 1.246l-2.375 7.628a1 1 0 0 1-1.904-.611l2.364-7.595a1 1 0 0 1 1.246-.668zm-8.8 26.465a1 1 0 0 1 .591 1.284l-2.838 7.48a1 1 0 1 1-1.864-.726l2.826-7.446a1 1 0 0 1 1.285-.591zm-10.408 25.89a1 1 0 0 1 .512 1.318l-3.284 7.285a1 1 0 1 1-1.816-.838l3.27-7.253a1 1 0 0 1 1.318-.512zm-11.96 25.206a1 1 0 0 1 .431 1.347l-3.716 7.066a1 1 0 0 1-1.762-.946l3.7-7.036a1 1 0 0 1 1.347-.431zm-13.462 24.432a1 1 0 0 1 .349 1.37l-4.14 6.832a1 1 0 1 1-1.702-1.051l4.12-6.802a1 1 0 0 1 1.37-.349zM22.85 547.237a1 1 0 0 1 .266 1.39L18.57 555.2a1 1 0 1 1-1.635-1.152l4.527-6.546a1 1 0 0 1 1.389-.266zm-16.3 22.637a1 1 0 0 1 .182 1.403l-4.93 6.286a1 1 0 0 1-1.405.157 1 1 0 0 1-.157-1.405l4.9-6.26a1 1 0 0 1 1.402-.182z" fill-opacity=".72"/></svg>