<svg width="102" height="103" viewBox="0 0 102 103" fill="none" xmlns="http://www.w3.org/2000/svg">
<path d="M51 31.0414C57.675 31.0414 58.4667 31.0664 61.1042 31.1872C67.8792 31.4956 71.0437 34.7102 71.3521 41.4352C71.4729 44.0706 71.4958 44.8622 71.4958 51.5372C71.4958 58.2143 71.4708 59.0039 71.3521 61.6393C71.0417 68.3581 67.8854 71.5789 61.1042 71.8872C58.4667 72.0081 57.6792 72.0331 51 72.0331C44.325 72.0331 43.5333 72.0081 40.8979 71.8872C34.1062 71.5768 30.9583 68.3477 30.65 61.6372C30.5292 59.0018 30.5042 58.2122 30.5042 51.5352C30.5042 44.8602 30.5312 44.0706 30.65 41.4331C30.9604 34.7102 34.1167 31.4935 40.8979 31.1852C43.5354 31.0664 44.325 31.0414 51 31.0414ZM51 26.5352C44.2104 26.5352 43.3604 26.5643 40.6937 26.6852C31.6146 27.1018 26.5687 32.1393 26.1521 41.2268C26.0292 43.8956 26 44.7456 26 51.5352C26 58.3247 26.0292 59.1768 26.15 61.8435C26.5667 70.9227 31.6042 75.9685 40.6917 76.3852C43.3604 76.506 44.2104 76.5352 51 76.5352C57.7896 76.5352 58.6417 76.506 61.3083 76.3852C70.3792 75.9685 75.4375 70.931 75.8479 61.8435C75.9708 59.1768 76 58.3247 76 51.5352C76 44.7456 75.9708 43.8956 75.85 41.2289C75.4417 32.1581 70.3979 27.1039 61.3104 26.6872C58.6417 26.5643 57.7896 26.5352 51 26.5352V26.5352ZM51 38.6977C43.9104 38.6977 38.1625 44.4456 38.1625 51.5352C38.1625 58.6247 43.9104 64.3747 51 64.3747C58.0896 64.3747 63.8375 58.6268 63.8375 51.5352C63.8375 44.4456 58.0896 38.6977 51 38.6977ZM51 59.8685C46.3979 59.8685 42.6667 56.1393 42.6667 51.5352C42.6667 46.9331 46.3979 43.2018 51 43.2018C55.6021 43.2018 59.3333 46.9331 59.3333 51.5352C59.3333 56.1393 55.6021 59.8685 51 59.8685ZM64.3458 35.1914C62.6875 35.1914 61.3438 36.5352 61.3438 38.1914C61.3438 39.8477 62.6875 41.1914 64.3458 41.1914C66.0021 41.1914 67.3437 39.8477 67.3437 38.1914C67.3437 36.5352 66.0021 35.1914 64.3458 35.1914Z" fill="#5A5A5A"/>
<circle cx="51" cy="51.5352" r="50" stroke="#ADADAD" stroke-width="2" stroke-linecap="round" stroke-linejoin="bevel" stroke-dasharray="8 20"/>
</svg>
