<svg width="50" height="51" fill="none" xmlns="http://www.w3.org/2000/svg"><path d="M25 5.041c6.675 0 7.467.025 10.104.146 6.775.309 9.94 3.523 10.248 10.248.12 2.636.144 3.427.144 10.102 0 6.677-.025 7.467-.144 10.102-.31 6.72-3.467 9.94-10.248 10.248-2.637.121-3.425.146-10.104.146-6.675 0-7.467-.025-10.102-.146-6.792-.31-9.94-3.54-10.248-10.25-.12-2.635-.146-3.425-.146-10.102 0-6.675.027-7.464.146-10.102.31-6.723 3.467-9.94 10.248-10.248 2.637-.119 3.427-.144 10.102-.144zm0-4.506c-6.79 0-7.64.03-10.306.15C5.614 1.102.569 6.14.152 15.227.03 17.896 0 18.746 0 25.535c0 6.79.03 7.642.15 10.308.417 9.08 5.454 14.125 14.542 14.542 2.668.121 3.518.15 10.308.15s7.642-.029 10.308-.15c9.071-.416 14.13-5.454 14.54-14.541.123-2.667.152-3.52.152-10.309 0-6.79-.03-7.64-.15-10.306-.408-9.07-5.452-14.125-14.54-14.542C32.642.564 31.79.535 25 .535zm0 12.163c-7.09 0-12.838 5.748-12.838 12.837 0 7.09 5.748 12.84 12.838 12.84 7.09 0 12.837-5.748 12.837-12.84 0-7.09-5.747-12.837-12.837-12.837zm0 21.17a8.334 8.334 0 110-16.666 8.334 8.334 0 010 16.666zM38.346 9.191a3.001 3.001 0 100 6 2.999 2.999 0 002.998-3c0-1.656-1.342-3-2.998-3z" fill="#333" fill-opacity=".72"/></svg>