<svg width="752" height="745" fill="none" xmlns="http://www.w3.org/2000/svg"><path d="M658.44 577.565c51.666 0 93.55-41.884 93.55-93.55s-41.884-93.55-93.55-93.55-93.55 41.884-93.55 93.55 41.884 93.55 93.55 93.55z" fill="#F8B625"/><path d="M381.59 657.445c174.837 0 316.57-141.733 316.57-316.57S556.427 24.305 381.59 24.305 65.02 166.038 65.02 340.875s141.733 316.57 316.57 316.57z" fill="#DD2638"/><path d="M85.34 316.555c47.132 0 85.34-38.208 85.34-85.34 0-47.132-38.208-85.34-85.34-85.34-47.132 0-85.34 38.208-85.34 85.34 0 47.132 38.208 85.34 85.34 85.34z" fill="#9280FA"/><path d="M294.53 33.425c0 6.69 2.17 15.61 2.17 15.61s-2.08-1.93-10.23-1.93-31.49 9.03-49.3 55.83c0 0-22.69 9.23-30.1 22.31-7.41 13.08-13.5 26.31-15.9 44.36-16.18 84.28-43.06 115-49.39 146.93 0 0-16.92 54.83 13.59 98.98 0 0-37.34 33.48-37.34 74.96 0 20.85 3.19 26.65 3.19 26.65s-61.23 9.82-84.28 112.84c0 0-4.53 115.02 259.76 115.02 264.29 0 421.24-45.23 421.24-45.23s-7.29-110.49-53.23-148.85c0 0 19.07-30.46-11.1-69.41-30.17-38.95-38-51.13-38.47-81.84 0-27.5 11.28-31.09 11.28-47.38 0-14.99-10.53-32.84-21.42-49.06 0 0 3.11-15.11-1.11-49.33s-10.99-51.38-14.49-57.91c-3.5-6.53-18.84-50.09-23.28-59.87-4.44-9.78-25.06-68.23-75.09-89.01-25.45-9.66-30.67-10.04-30.67-10.04s-27.15-36.05-90.92-36.05-74.91 23.56-74.91 32.42z" fill="#fff"/><path d="M370.46 544.955c-8.3-58.48 102.36-106.58 102.36-157.34 0-50.76 0 0 0 0s-32.57 16.12-79.84 16.12-91.71-69-91.71-110.45c0-7.19-24.72-8.46-24.72-34.9 0-26.44-.42-30.03 6.98-38.49s23.79-17.55 23.79-17.55-8.57 7.7-10.12 13.37c0 0 1.97 1.16 5.15 1.16 3.18 0 0 0 0 0s12.86-14.52 28.6-14.52c15.74 0 39.85 6.13 39.85 23.79 0 0 3.88-5.39 3.88-16.64s-9.44-32.01-34.15-32.01-49.65 20.06-49.65 20.06h-6.22s3.68-1.62 3.68-13.29c0-11.67 7.74-77.02 53.14-113.22 0 0-54 2.63-61.54 86-2.06 16.21-11.05 35.72-11.05 35.72s1.43 11.39-1.13 25.93c0 0-4.2 9.37-4.2 24.7s8.84 29.73 9.75 37.18c.91 7.44 9.73 18.72 9.73 31.48 2.03 13.25 2.79 35.71 9.88 47.71 7.1 12 7.35 12.65 9.85 15.37l-1.51-.78s4.95 39.22 1.51 65.85c0 0 2.52 3.36 6.84 6.6 4.32 3.24 13.25 7.82 18.46 12.61 5.21 4.79 13.06 11.64 17.81 23.04 4.76 11.41 11.5 39.82-15.21 53.49l.01 3.03s.03-.74 3.65 1.08 17.94 4.9 36.13 4.9z" fill="#D8D8D8"/><path d="M338.65 329.025s31.13-13.8 43.15-13.8 5.11 2.17 14.38 2.17 5.04-3.02 12.97-3.02c7.93 0 38.05 8.86 38.05 8.86s-7.98-1.33-13.23-.63c-8.95 0-15.81 4.69-21.63 4.69-5.82 0-15.53 1.56-23.7.73-8.18-.83-21.5-1.02-21.5-1.02s-8.41-1.01-28.49 2.02zM363.67 337.135s4.32 14.38 24.62 21.15c0 0 17.34.99 23.69 0 0 0-3.15-13.44 3.64-18.28 0 0-26.93 5.24-51.95-2.87zM332.74 539.305c0 8.62-.24 23.95-7.33 32.3 0 0 61.76 26.86 115.26 4.02 0 0-46.72 25.24-113.78 5.92 0 0-13.52 20.33-87.34 38.19 74.65-29.31 87.39-64.6 87.39-64.6s3.75-8.01 3.75-17.47c.01 0 .44.9 2.05 1.64zM407.47 215.505s.27-16.78 9.73-25.69 26.55-15.72 26.55-15.72 35.03 3.04 41.04 7.89l7.53 19.79s-11.02 2.82-13.46.56c-2.44-2.26-9.26-12.53-28.41-12.53 0 0 10.46 2.94 17.65 11.12 0 0-7.33-5.6-28.27-4.07-8.22 0-13.32 7.05-13.32 7.05s.11-6.65 3.01-9.11c0 .01-19.66 12.73-22.05 20.71zM424.7 219.195s18.63 11.07 30.17 11.07c11.54 0 20.6-4.09 20.6-4.09s-26.6-.28-37.01-5.5c-10.41-5.22-13.76-1.48-13.76-1.48zM374.26 261.985s-.21 8.78 5.5 10.26c5.71 1.48 16.43 7.83 16.43 7.83s1.45 1.69 6.52-2.75c1.59-1.8 6.66-.32 6.66-.32s-6.34 5.5-8.78 12.16c-2.43 6.66-8.46 8.14-17.45 8.57-8.99.43-11.1 5.71-16.6 4.34-5.5-1.37-13.64-5.5-13.64-16.6 0-11.1 10.68-19.03 10.68-19.03s-5.6 10.57 2.22 12.37c7.83 1.8 14.91 2.01 19.14 5.82 0 0-3.07-6.77-10.68-7.3-7.61-.55-7.08-13.97 0-15.35zM60.34 593.745S95.87 700.615 97 707.385l4.79 1.97c0 .01-23.97-93.9-41.45-115.61zM70.35 564.845s-4.51 25.94 11.84 42.16c0 0 2.26-2.11 2.26-3.38s-14.66-21.01-8.04-47.44c0 0-4.51 3.15-3.52 20.8 0-.02-1.84-5.87-2.54-12.14zM115.61 675.805s4.65 27.07 4.65 38.63l3.24 1.27s2.54-24.67-7.89-39.9zM144.79 681.445s12.27 31.16 12.83 47.66l4.23 1.13c.01-.01-1.97-39.49-17.06-48.79zM628.9 666.775s-16.92 18.4-20.51 54.14l4.44 2.33s4.86-28.34 16.07-56.47zM667.6 564.205s-20.3 22.21-23.69 68.52c0 0 9.31-44.84 26.22-65.99l-2.53-2.53z" fill="#D8D8D8"/><path d="M260.27 96.815c-11.84 0-45.15 11.84-56.26 33.42-19.03 37.43-18.47 72.66-28.02 98.07M298.06 100.545c-23.69 22.56-7.05 91.51-55.55 124M215.12 199.245c0 32.15-77.79 68.81-77.79 150.02 0 37.79 10.15 51.89 10.15 51.89M193.16 360.545c0 29.33-75.57 69.37-75.57 132.53 0 37.79 27.07 64.29 27.07 64.29M270.28 212.075c-17.2 41.03 3.95 56.05 3.95 75.93 0 19.88-9.09 25.8-9.09 25.8M279.94 297.725c9.31 36.8 2.54 48.85 20.09 74.02 12.9 16.92 27.71 20.3 27.71 20.3M405.56 404.105c34.05 0 64.5-12.48 76.56-22.84 12.05-10.36 24.53-37.65 24.53-48.22M504.96 315.705c0-18.4 12.06-30.03 12.06-46.11 0-16.07-.63-27.28-2.11-31.72" stroke="#000" stroke-width="1.5" stroke-miterlimit="10" stroke-linecap="round" stroke-linejoin="round"/><path d="M480.85 170.195s15.39 49.85 29.56 63.71c12.27 11.63 18.24 12.22 18.24 12.22M439.83 86.655s27.92 84.17 98.13 115.69M426.29 86.655s-28.97-19.67-58.16-19.67c-38.49 0-56.89 23.9-73.6 19.67M285.51 393.815c-3.95 21.15 14.31 48.78 31.86 58.3 17.55 9.52 38.07 32.15 31.94 62.18M219.24 627.235s111.46-35.11 111.46-89.25c0-45.26-15.23-52.87-15.23-52.87M330.7 537.985s6.77 6.98 41.88 6.98c51.82 0 74.23-13.96 74.23-13.96" stroke="#000" stroke-width="1.5" stroke-miterlimit="10" stroke-linecap="round" stroke-linejoin="round"/><path d="M456.53 563.145s-9.73-13.96-9.73-45.47c0-49.49 47.37-92.63 37.01-134.93M551.7 654.515s-69.37-32.57-69.37-102.36c0-16.5 5.5-31.72 11.42-37.86M134.22 593.605s3.38 8.88 29.61 8.88 89.25-35.11 74.02-123.93M36.93 629.985s17.98-96.25 84.28-112.84M653.22 565.265s16.92-11.84 16.92-38.07c0-57.1-66.41-68.52-53.3-144.45M625.3 368.575s11.42-32.15-31.72-79.94c-23.69-27.49-41.88-28.76-41.88-28.76M606.27 283.135s-2.44-58.37-17.08-87.56c-14.64-29.19-31.56-118.86-97.97-148.46M477.26 63.605s-20.73-62.6-110.4-62.6c-80.79 0-72.33 38.91-72.33 38.91" stroke="#000" stroke-width="1.5" stroke-miterlimit="10" stroke-linecap="round" stroke-linejoin="round"/><path d="M426.29 72.915s-6.56-44.41-45.89-44.41c-29.75 0-28.34 16.5-28.34 16.5M301.3 50.705s-4.23-3.6-13.11-3.6c-8.88 0-31.18 5.71-51.02 55.83M717.94 699.775s-12.9-98.34-35.32-127.53c-11.21-16.28-17.91-21.32-17.91-21.32M342.75 329.025c9.73-2.96 27.49-2.11 32.57-1.48 5.08.63 30.88.85 39.97-.62 8.88-1.6 13.96-6.57 33.84-3.4M358.4 321.285s17.06-6.06 23.41-6.06c6.34 0 8.81 2.61 14.13 2.61s8-3.45 13.22-3.45c5.22 0 18.89 4.09 24.82 4.65M360.94 336.005s11.63 5.92 35 5.92c23.37 0 29.08-5.92 29.08-5.92M453.36 315.705l3.81 7.82M338.1 331.355l2.11-8.88M388.22 298.785s-4.02 7.61 2.96 10.79M374.26 277.315c7.61 0 9.31 8.67 17.45 8.67 9.52 0 6.13-8.67 17.66-8.67M414.55 286.725s12.9-4.97 12.9-14.38c0-6.34-2.43-6.56-2.43-6.56M364.75 284.615s-4.76-3.07-4.76-8.35c0-5.28 3.6-9.83 3.6-9.83M300.03 207.275s6.77-11 30.31-11M339.26 201.785c-25.48 0-36.91 15.09-36.91 15.09s.88.35 3.19.35M308.91 219.895s8.14 7.4 26.44 2.86M350.57 210.425s4.55 3.39 1.27 7.25" stroke="#000" stroke-width="1.5" stroke-miterlimit="10" stroke-linecap="round" stroke-linejoin="round"/><path d="M349.42 217.575s6.09.49 8.27-.7c0 0-11.14-13.89-29.22-13.89" stroke="#000" stroke-width="1.5" stroke-miterlimit="10" stroke-linecap="round" stroke-linejoin="round"/><path d="M311.8 221.695s-2.99 1.85-3.41 3.7l3.41-3.7z" fill="#000"/><path d="M311.8 221.695s-2.99 1.85-3.41 3.7M314.35 222.735l-1.42 2.66M317.05 223.495l-.52 2.64M320.69 224.065l.22 2.71M326.31 224.165v1.97" stroke="#000" stroke-width="1.5" stroke-miterlimit="10" stroke-linecap="round" stroke-linejoin="round"/><path d="M319.85 205.815c-.49.03-.97-.11-1.39-.39-.73 1.49-1.16 3.16-1.16 4.93 0 3.3 1.44 6.26 3.71 8.32.28-.38.57-.76.89-1.11a9.77 9.77 0 01-3.18-7.21c.01-1.63.42-3.18 1.13-4.54zM334.92 202.935c2.09 1.8 3.43 4.46 3.43 7.43 0 2.3-.8 4.41-2.13 6.08.35.39.58.89.66 1.42 1.79-1.99 2.9-4.62 2.9-7.5 0-2.65-.93-5.09-2.48-7.02-.8-.19-1.59-.33-2.38-.41zM328.53 214.805a4.04 4.04 0 100-8.08 4.04 4.04 0 000 8.08z" fill="#000"/><path d="M317.92 213.365s6.08-3.33 11.08-3.33h10.79l-2.62-5.96s-6.26-1.51-9.64-1.09c-3.38.42-8.75 2.88-8.75 2.88s-2.14 2.3-.86 7.5z" fill="#000"/><path d="M329.99 212.355l4.34 4.34M440.25 197.555c-4.02 1.13-12.34 14.24-12.34 14.24s3.52 1.69 6.17 1.62" stroke="#000" stroke-width="1.5" stroke-miterlimit="10" stroke-linecap="round" stroke-linejoin="round"/><path d="M471.2 208.905s4.23-1.41 5.15-1.41c0 0-11-13.82-38.21-9.94M431.13 207.055s-1.68 4.08 1.92 6.31" stroke="#000" stroke-width="1.5" stroke-miterlimit="10" stroke-linecap="round" stroke-linejoin="round"/><path d="M444.74 196.885c-.29.08-.59.16-.88.25-.39.12-.76.15-1.09.12a12.156 12.156 0 00-1.73 6.24c0 2.69.88 5.17 2.35 7.19.35-.34.77-.59 1.25-.71a10.748 10.748 0 01-2.17-6.48c0-2.49.85-4.78 2.27-6.61zM463.3 199.345c.53 1.28.84 2.67.84 4.14 0 3.56-1.73 6.71-4.39 8.69.33.32.64.68.94 1.08 2.95-2.24 4.87-5.78 4.87-9.76 0-1.37-.24-2.68-.66-3.91-.55.08-1.12.01-1.6-.24zM453.3 208.895a4.98 4.98 0 10-.001-9.961 4.98 4.98 0 00.001 9.961z" fill="#000"/><path d="M441.87 205.115s9.02-.94 11.84-.72c2.82.21 10.45 3.04 10.45 3.04s1.38-2.11.29-7.65c0 0-8.28-3.59-20.69-2.81.01 0-2.53 3.65-1.89 8.14z" fill="#000"/><path d="M453.3 203.915l3.52 8.23M444.2 215.885s10.5 3.17 21.64-1.41l5.92 2.11M465.91 218.775l-3-3.27M461.19 219.195l-1.29-2.93M456.82 219.195l-.7-2.39M451.74 218.775v-1.84" stroke="#000" stroke-width="1.5" stroke-miterlimit="10" stroke-linecap="round" stroke-linejoin="round"/><path d="M359.14 177.385l-6.11 9.2M353.03 173.585l1.25 9.09M351.8 183.525l4.29-6.98M347.83 183.525l6.87-9.94M346.56 172.635l5.24 8.35M344.76 180.455l12.94-3.07M342.33 181.985l9.47-9.35M351.8 176.015l-11.27-.64M343.09 173.585l3.98 8.4M356.09 179.605l-16.3-1.82M339.79 182.675l8.78-9.09M339.26 173.585l2.22 9.94M339.06 180.035v-8.04M335.35 180.455l6.98-5.92M330.34 181.985l8.92-7.45M327.63 180.985l9.94-6.45M326.78 174.535c.32.42 13.92 5.5 13.92 5.5M331.54 174.535l9.94 4.39M321.5 180.985l8.84-6.45M337.04 173.585l-10.26 6.45M317.05 180.455l7.44-5.08M318.01 175.695l13.53 6.98M310.71 179.605l17.6-3.59M307.33 180.455l12.18-5.08M301.93 180.985l7.23-3.23M296.86 180.985h8.46M293.37 184.265l6.66-1.06M291.15 186.585l4.33-.63M289.77 189.125l2.22-.53M287.45 191.345h1.79M285.86 193.465h1.59M351.8 173.585l-6.37 9.09M354.7 175.375l.74 11.21M353.33 183.525l-11-6.98M421.65 173.355l6.11 9.2M427.76 169.555l-1.25 9.09M428.98 179.495l-4.28-6.98M432.96 179.495l-6.87-9.94M434.23 168.595l-5.25 8.36M436.03 176.425l-12.94-3.07M438.46 177.955l-9.48-9.36M428.98 171.985l11.28-.64M437.7 169.555l-3.98 8.4M424.7 175.575l16.3-1.82M441 178.645l-8.78-9.09M441.53 169.555l-2.22 9.94M441.73 176.005v-8.04M445.44 176.425l-6.98-5.92M450.44 177.955l-8.91-7.45M453.16 176.955l-9.94-6.45M454 170.505c-.32.42-13.92 5.5-13.92 5.5M449.25 170.505l-9.94 4.39M459.29 176.955l-8.85-6.45M443.75 169.555l10.25 6.45M463.73 176.425l-7.43-5.08M462.78 171.665l-13.53 6.98M470.08 175.575l-17.61-3.59M473.46 176.425l-12.18-5.08M478.85 176.955l-7.22-3.23M483.93 176.955h-8.46M428.98 169.555l6.38 9.09M426.09 171.345l-.74 11.21M427.46 179.495l11-6.98" stroke="#000" stroke-width=".75" stroke-miterlimit="10" stroke-linecap="round" stroke-linejoin="round"/><path d="M441 191.065s22.11-6.74 38.7 11.08" stroke="#000" stroke-width="1.5" stroke-miterlimit="10" stroke-linecap="round" stroke-linejoin="round"/><path d="M290.72 70.235s-17.74 6.91-21.49 30.31M311.45 72.915s-12.27-.99-18.33 6.91M287.9 92.365s-5.08-.28-6.06 10.57c-.99 10.86-1.86 13.68-1.86 13.68M267.18 78.415s14.24-20.02 27.35-20.73c7.75 0 8.46 2.4 8.46 2.4M309.48 35.545s3.52-22.98 38.35-27.63M351.35 19.755s8.74-7.9 39.34-4.37c30.6 3.53 48.22 25.94 48.22 25.94M424.95 21.735s34.12 12.65 46.81 54.62M456.3 70.235s14.64 48.36 29.01 64.72M427.76 44.435s12.79 11.99 15.99 32.64M355.44 55.425s15.65-16.36 43.29-11M367.71 57.685s25-5.75 41.45 3.07M395.13 65.015s11.49 0 23.9 10.01M332.16 65.015s-10-20.3 18.41-34.4M319.51 57.685s-12.64-18.89 19.33-34.68M493.34 60.755s23.82 12.16 40.17 48.25M513.43 98.855s17.6 33.54 38.28 43.14M491.02 76.345s3.87 22.79 15.43 35.2M520.83 128.185s22.28 29.33 40.61 34.12M482.48 102.595s11.84 57.18 71.34 75.37M564.53 175.335s14.1 14.43 17.2 31.71M508.98 168.595s23.12 28.39 61.76 32.34M501.37 187.315s27.07 36.18 71.77 42.95M508.98 212.145s31.86 33.35 69.93 38.14M580.04 296.665c19.25 6.34 15.02 63.02 22.84 75.5M528.65 259.875s26.44 11 37.43 37.86c10.99 26.86 18.19 35.32 18.19 35.32M581.52 352.295c-.21 17.55-12.9 89.46 19.67 129.22M596.33 413.835c-3.03 43.99 61.54 63.45 47.44 142.97M610.78 504.915s14.66 27.07 14.1 58.09M592.45 533.965s-3.38 40.89 38.91 78.67M621.01 649.015s-91.16-68.17-59.01-176.07M580.04 504.915s0-63.17-32.15-108M556.46 372.175s4.12-53.51-27.81-89.04M524.21 309.575s15.23 28.13 8.04 62.6M517.02 357.155c14.38 27.49 29.24 63.02 17.16 106.59M506.66 372.175s6.13 26.86-15.44 76.35M466.05 558.915s-12.06-46.95 22.63-95.17M499.34 492.515c13.87-22 17.26-55.83 13.45-70.64M527.82 485.105s-46.33 88.19 36.15 151.64M542.82 560.925c.42.53 12.27 57.21 65.56 102.89M539.41 516.195s-.4-28.76 8.49-52.45M263.54 111.615c2.02 9.09-7.71 27.28-7.71 27.28M269.23 117.535s14.3 58.29-41.32 98.73M256.67 150.105s-6.56 19.03-37.86 39.02M225.8 145.875c1.06 0 24.96-16.5 26.65-28.34M229.6 125.255s-29.61 14.42-28.55 72.29M172.55 248.445s12.22-16.34 19.62-40.32M223.05 230.265s-67.68 57.81-67.68 119.56c0 29.61 4.23 35.53 4.23 35.53M179.06 367.305s-9.02-25.24 6.49-43.78M180.99 312.035s7.09-35.53 61.51-75.01M196.26 341.925s-3.95-31.3 35.81-67.4M252.09 256.765s3.52 78.11-62.88 137.05M256.67 279.755s16.32 45.68-16.48 80.79M268.88 344.885s-6.92 56.68-40.97 70.64M172.71 457.195s5.88-33.12 46.53-56.05M206.97 438.365s-28.76 32.57-5.5 72.96M208.67 560.985s-29.79-14.33-32.45-68.47M137.32 581.335c.28 1.27 41.14 2.54 38.9-34.68" stroke="#D9D9D9" stroke-width=".75" stroke-miterlimit="10" stroke-linecap="round" stroke-linejoin="round"/><path d="M163.41 548.765s-21.15-24.94-21.15-75.82c0-43.78 38.74-68.84 38.74-68.84M232.07 435.405s-15.37 33.1-9.02 75.93M257.73 401.145s-21.07 35.53 3 82.06M274.97 446.405s-18.93-41.88 7.72-70.22M290.3 450.915s30.03 38.58 6.34 75.83M279.94 466.705s17.55 98.34-56.89 117.69M260.73 502.235s.81 40.61-18.23 56.68M220.67 602.485s79.36-10.15 100.94-78.67M312.72 462.055s23.69 12.27 25.38 52.24" stroke="#D9D9D9" stroke-width=".75" stroke-miterlimit="10" stroke-linecap="round" stroke-linejoin="round"/><path d="M301.27 373.335s4.4 33.46 2.56 60.81" stroke="#000" stroke-width="1.5" stroke-miterlimit="10" stroke-linecap="round" stroke-linejoin="round"/></svg>