<svg width="752" height="745" viewBox="0 0 752 745" fill="none" xmlns="http://www.w3.org/2000/svg">
<path d="M658.44 577.565C710.106 577.565 751.99 535.681 751.99 484.015C751.99 432.349 710.106 390.465 658.44 390.465C606.774 390.465 564.89 432.349 564.89 484.015C564.89 535.681 606.774 577.565 658.44 577.565Z" fill="#F8B625"/>
<path d="M381.59 657.445C556.427 657.445 698.16 515.712 698.16 340.875C698.16 166.038 556.427 24.305 381.59 24.305C206.753 24.305 65.02 166.038 65.02 340.875C65.02 515.712 206.753 657.445 381.59 657.445Z" fill="#DD2638"/>
<path d="M85.34 316.555C132.472 316.555 170.68 278.347 170.68 231.215C170.68 184.083 132.472 145.875 85.34 145.875C38.208 145.875 0 184.083 0 231.215C0 278.347 38.208 316.555 85.34 316.555Z" fill="#9280FA"/>
<path d="M294.53 33.425C294.53 40.115 296.7 49.035 296.7 49.035C296.7 49.035 294.62 47.105 286.47 47.105C278.32 47.105 254.98 56.135 237.17 102.935C237.17 102.935 214.48 112.165 207.07 125.245C199.66 138.325 193.57 151.555 191.17 169.605C174.99 253.885 148.11 284.605 141.78 316.535C141.78 316.535 124.86 371.365 155.37 415.515C155.37 415.515 118.03 448.995 118.03 490.475C118.03 511.325 121.22 517.125 121.22 517.125C121.22 517.125 59.99 526.945 36.94 629.965C36.94 629.965 32.41 744.985 296.7 744.985C560.99 744.985 717.94 699.755 717.94 699.755C717.94 699.755 710.65 589.265 664.71 550.905C664.71 550.905 683.78 520.445 653.61 481.495C623.44 442.545 615.61 430.365 615.14 399.655C615.14 372.155 626.42 368.565 626.42 352.275C626.42 337.285 615.89 319.435 605 303.215C605 303.215 608.11 288.105 603.89 253.885C599.67 219.665 592.9 202.505 589.4 195.975C585.9 189.445 570.56 145.885 566.12 136.105C561.68 126.325 541.06 67.875 491.03 47.095C465.58 37.435 460.36 37.055 460.36 37.055C460.36 37.055 433.21 1.005 369.44 1.005C305.67 1.005 294.53 24.565 294.53 33.425Z" fill="white"/>
<path d="M370.46 544.955C362.16 486.475 472.82 438.375 472.82 387.615C472.82 336.855 472.82 387.615 472.82 387.615C472.82 387.615 440.25 403.735 392.98 403.735C345.71 403.735 301.27 334.735 301.27 293.285C301.27 286.095 276.55 284.825 276.55 258.385C276.55 231.945 276.13 228.355 283.53 219.895C290.93 211.435 307.32 202.345 307.32 202.345C307.32 202.345 298.75 210.045 297.2 215.715C297.2 215.715 299.17 216.875 302.35 216.875C305.53 216.875 302.35 216.875 302.35 216.875C302.35 216.875 315.21 202.355 330.95 202.355C346.69 202.355 370.8 208.485 370.8 226.145C370.8 226.145 374.68 220.755 374.68 209.505C374.68 198.255 365.24 177.495 340.53 177.495C315.82 177.495 290.88 197.555 290.88 197.555H284.66C284.66 197.555 288.34 195.935 288.34 184.265C288.34 172.595 296.08 107.245 341.48 71.045C386.88 34.845 341.48 71.045 341.48 71.045C341.48 71.045 287.48 73.675 279.94 157.045C277.88 173.255 268.89 192.765 268.89 192.765C268.89 192.765 270.32 204.155 267.76 218.695C267.76 218.695 263.56 228.065 263.56 243.395C263.56 258.725 272.4 273.125 273.31 280.575C274.22 288.015 283.04 299.295 283.04 312.055C285.07 325.305 285.83 347.765 292.92 359.765C300.02 371.765 300.27 372.415 302.77 375.135L301.26 374.355C301.26 374.355 306.21 413.575 302.77 440.205C302.77 440.205 305.29 443.565 309.61 446.805C313.93 450.045 322.86 454.625 328.07 459.415C333.28 464.205 341.13 471.055 345.88 482.455C350.64 493.865 357.38 522.275 330.67 535.945L330.68 538.975C330.68 538.975 330.71 538.235 334.33 540.055C337.95 541.875 352.27 544.955 370.46 544.955Z" fill="#D8D8D8"/>
<path d="M338.65 329.025C338.65 329.025 369.78 315.225 381.8 315.225C393.82 315.225 386.91 317.395 396.18 317.395C405.45 317.395 401.22 314.375 409.15 314.375C417.08 314.375 447.2 323.235 447.2 323.235C447.2 323.235 439.22 321.905 433.97 322.605C425.02 322.605 418.16 327.295 412.34 327.295C406.52 327.295 396.81 328.855 388.64 328.025C380.46 327.195 367.14 327.005 367.14 327.005C367.14 327.005 358.73 325.995 338.65 329.025Z" fill="#D8D8D8"/>
<path d="M363.67 337.135C363.67 337.135 367.99 351.515 388.29 358.285C388.29 358.285 405.63 359.275 411.98 358.285C411.98 358.285 408.83 344.845 415.62 340.005C415.62 340.005 388.69 345.245 363.67 337.135Z" fill="#D8D8D8"/>
<path d="M332.74 539.305C332.74 547.925 332.5 563.255 325.41 571.605C325.41 571.605 387.17 598.465 440.67 575.625C440.67 575.625 393.95 600.865 326.89 581.545C326.89 581.545 313.37 601.875 239.55 619.735C314.2 590.425 326.94 555.135 326.94 555.135C326.94 555.135 330.69 547.125 330.69 537.665C330.7 537.665 331.13 538.565 332.74 539.305Z" fill="#D8D8D8"/>
<path d="M407.47 215.505C407.47 215.505 407.74 198.725 417.2 189.815C426.66 180.905 443.75 174.095 443.75 174.095C443.75 174.095 478.78 177.135 484.79 181.985L492.32 201.775C492.32 201.775 481.3 204.595 478.86 202.335C476.42 200.075 469.6 189.805 450.45 189.805C450.45 189.805 460.91 192.745 468.1 200.925C468.1 200.925 460.77 195.325 439.83 196.855C431.61 196.855 426.51 203.905 426.51 203.905C426.51 203.905 426.62 197.255 429.52 194.795C429.52 194.805 409.86 207.525 407.47 215.505Z" fill="#D8D8D8"/>
<path d="M424.7 219.195C424.7 219.195 443.33 230.265 454.87 230.265C466.41 230.265 475.47 226.175 475.47 226.175C475.47 226.175 448.87 225.895 438.46 220.675C428.05 215.455 424.7 219.195 424.7 219.195Z" fill="#D8D8D8"/>
<path d="M374.26 261.985C374.26 261.985 374.05 270.765 379.76 272.245C385.47 273.725 396.19 280.075 396.19 280.075C396.19 280.075 397.64 281.765 402.71 277.325C404.3 275.525 409.37 277.005 409.37 277.005C409.37 277.005 403.03 282.505 400.59 289.165C398.16 295.825 392.13 297.305 383.14 297.735C374.15 298.165 372.04 303.445 366.54 302.075C361.04 300.705 352.9 296.575 352.9 285.475C352.9 274.375 363.58 266.445 363.58 266.445C363.58 266.445 357.98 277.015 365.8 278.815C373.63 280.615 380.71 280.825 384.94 284.635C384.94 284.635 381.87 277.865 374.26 277.335C366.65 276.785 367.18 263.365 374.26 261.985Z" fill="#D8D8D8"/>
<path d="M60.34 593.745C60.34 593.745 95.87 700.615 97 707.385L101.79 709.355C101.79 709.365 77.82 615.455 60.34 593.745Z" fill="#D8D8D8"/>
<path d="M70.35 564.845C70.35 564.845 65.84 590.785 82.19 607.005C82.19 607.005 84.45 604.895 84.45 603.625C84.45 602.355 69.79 582.615 76.41 556.185C76.41 556.185 71.9 559.335 72.89 576.985C72.89 576.965 71.05 571.115 70.35 564.845Z" fill="#D8D8D8"/>
<path d="M115.61 675.805C115.61 675.805 120.26 702.875 120.26 714.435L123.5 715.705C123.5 715.705 126.04 691.035 115.61 675.805Z" fill="#D8D8D8"/>
<path d="M144.79 681.445C144.79 681.445 157.06 712.605 157.62 729.105L161.85 730.235C161.86 730.225 159.88 690.745 144.79 681.445Z" fill="#D8D8D8"/>
<path d="M628.9 666.775C628.9 666.775 611.98 685.175 608.39 720.915L612.83 723.245C612.83 723.245 617.69 694.905 628.9 666.775Z" fill="#D8D8D8"/>
<path d="M667.6 564.205C667.6 564.205 647.3 586.415 643.91 632.725C643.91 632.725 653.22 587.885 670.13 566.735L667.6 564.205Z" fill="#D8D8D8"/>
<path d="M260.27 96.815C248.43 96.815 215.12 108.655 204.01 130.235C184.98 167.665 185.54 202.895 175.99 228.305" stroke="black" stroke-width="1.5" stroke-miterlimit="10" stroke-linecap="round" stroke-linejoin="round"/>
<path d="M298.06 100.545C274.37 123.105 291.01 192.055 242.51 224.545" stroke="black" stroke-width="1.5" stroke-miterlimit="10" stroke-linecap="round" stroke-linejoin="round"/>
<path d="M215.12 199.245C215.12 231.395 137.33 268.055 137.33 349.265C137.33 387.055 147.48 401.155 147.48 401.155" stroke="black" stroke-width="1.5" stroke-miterlimit="10" stroke-linecap="round" stroke-linejoin="round"/>
<path d="M193.16 360.545C193.16 389.875 117.59 429.915 117.59 493.075C117.59 530.865 144.66 557.365 144.66 557.365" stroke="black" stroke-width="1.5" stroke-miterlimit="10" stroke-linecap="round" stroke-linejoin="round"/>
<path d="M270.28 212.075C253.08 253.105 274.23 268.125 274.23 288.005C274.23 307.885 265.14 313.805 265.14 313.805" stroke="black" stroke-width="1.5" stroke-miterlimit="10" stroke-linecap="round" stroke-linejoin="round"/>
<path d="M279.94 297.725C289.25 334.525 282.48 346.575 300.03 371.745C312.93 388.665 327.74 392.045 327.74 392.045" stroke="black" stroke-width="1.5" stroke-miterlimit="10" stroke-linecap="round" stroke-linejoin="round"/>
<path d="M405.56 404.105C439.61 404.105 470.06 391.625 482.12 381.265C494.17 370.905 506.65 343.615 506.65 333.045" stroke="black" stroke-width="1.5" stroke-miterlimit="10" stroke-linecap="round" stroke-linejoin="round"/>
<path d="M504.96 315.705C504.96 297.305 517.02 285.675 517.02 269.595C517.02 253.525 516.39 242.315 514.91 237.875" stroke="black" stroke-width="1.5" stroke-miterlimit="10" stroke-linecap="round" stroke-linejoin="round"/>
<path d="M480.85 170.195C480.85 170.195 496.24 220.045 510.41 233.905C522.68 245.535 528.65 246.125 528.65 246.125" stroke="black" stroke-width="1.5" stroke-miterlimit="10" stroke-linecap="round" stroke-linejoin="round"/>
<path d="M439.83 86.655C439.83 86.655 467.75 170.825 537.96 202.345" stroke="black" stroke-width="1.5" stroke-miterlimit="10" stroke-linecap="round" stroke-linejoin="round"/>
<path d="M426.29 86.655C426.29 86.655 397.32 66.985 368.13 66.985C329.64 66.985 311.24 90.885 294.53 86.655" stroke="black" stroke-width="1.5" stroke-miterlimit="10" stroke-linecap="round" stroke-linejoin="round"/>
<path d="M285.51 393.815C281.56 414.965 299.82 442.595 317.37 452.115C334.92 461.635 355.44 484.265 349.31 514.295" stroke="black" stroke-width="1.5" stroke-miterlimit="10" stroke-linecap="round" stroke-linejoin="round"/>
<path d="M219.24 627.235C219.24 627.235 330.7 592.125 330.7 537.985C330.7 492.725 315.47 485.115 315.47 485.115" stroke="black" stroke-width="1.5" stroke-miterlimit="10" stroke-linecap="round" stroke-linejoin="round"/>
<path d="M330.7 537.985C330.7 537.985 337.47 544.965 372.58 544.965C424.4 544.965 446.81 531.005 446.81 531.005" stroke="black" stroke-width="1.5" stroke-miterlimit="10" stroke-linecap="round" stroke-linejoin="round"/>
<path d="M456.53 563.145C456.53 563.145 446.8 549.185 446.8 517.675C446.8 468.185 494.17 425.045 483.81 382.745" stroke="black" stroke-width="1.5" stroke-miterlimit="10" stroke-linecap="round" stroke-linejoin="round"/>
<path d="M551.7 654.515C551.7 654.515 482.33 621.945 482.33 552.155C482.33 535.655 487.83 520.435 493.75 514.295" stroke="black" stroke-width="1.5" stroke-miterlimit="10" stroke-linecap="round" stroke-linejoin="round"/>
<path d="M134.22 593.605C134.22 593.605 137.6 602.485 163.83 602.485C190.06 602.485 253.08 567.375 237.85 478.555" stroke="black" stroke-width="1.5" stroke-miterlimit="10" stroke-linecap="round" stroke-linejoin="round"/>
<path d="M36.9301 629.985C36.9301 629.985 54.91 533.735 121.21 517.145" stroke="black" stroke-width="1.5" stroke-miterlimit="10" stroke-linecap="round" stroke-linejoin="round"/>
<path d="M653.22 565.265C653.22 565.265 670.14 553.425 670.14 527.195C670.14 470.095 603.73 458.675 616.84 382.745" stroke="black" stroke-width="1.5" stroke-miterlimit="10" stroke-linecap="round" stroke-linejoin="round"/>
<path d="M625.3 368.575C625.3 368.575 636.72 336.425 593.58 288.635C569.89 261.145 551.7 259.875 551.7 259.875" stroke="black" stroke-width="1.5" stroke-miterlimit="10" stroke-linecap="round" stroke-linejoin="round"/>
<path d="M606.27 283.135C606.27 283.135 603.83 224.765 589.19 195.575C574.55 166.385 557.63 76.715 491.22 47.115" stroke="black" stroke-width="1.5" stroke-miterlimit="10" stroke-linecap="round" stroke-linejoin="round"/>
<path d="M477.26 63.605C477.26 63.605 456.53 1.005 366.86 1.005C286.07 1.005 294.53 39.915 294.53 39.915" stroke="black" stroke-width="1.5" stroke-miterlimit="10" stroke-linecap="round" stroke-linejoin="round"/>
<path d="M426.29 72.915C426.29 72.915 419.73 28.505 380.4 28.505C350.65 28.505 352.06 45.005 352.06 45.005" stroke="black" stroke-width="1.5" stroke-miterlimit="10" stroke-linecap="round" stroke-linejoin="round"/>
<path d="M301.3 50.705C301.3 50.705 297.07 47.105 288.19 47.105C279.31 47.105 257.01 52.815 237.17 102.935" stroke="black" stroke-width="1.5" stroke-miterlimit="10" stroke-linecap="round" stroke-linejoin="round"/>
<path d="M717.94 699.775C717.94 699.775 705.04 601.435 682.62 572.245C671.41 555.965 664.71 550.925 664.71 550.925" stroke="black" stroke-width="1.5" stroke-miterlimit="10" stroke-linecap="round" stroke-linejoin="round"/>
<path d="M342.75 329.025C352.48 326.065 370.24 326.915 375.32 327.545C380.4 328.175 406.2 328.395 415.29 326.925C424.17 325.325 429.25 320.355 449.13 323.525" stroke="black" stroke-width="1.5" stroke-miterlimit="10" stroke-linecap="round" stroke-linejoin="round"/>
<path d="M358.4 321.285C358.4 321.285 375.46 315.225 381.81 315.225C388.15 315.225 390.62 317.835 395.94 317.835C401.26 317.835 403.94 314.385 409.16 314.385C414.38 314.385 428.05 318.475 433.98 319.035" stroke="black" stroke-width="1.5" stroke-miterlimit="10" stroke-linecap="round" stroke-linejoin="round"/>
<path d="M360.94 336.005C360.94 336.005 372.57 341.925 395.94 341.925C419.31 341.925 425.02 336.005 425.02 336.005" stroke="black" stroke-width="1.5" stroke-miterlimit="10" stroke-linecap="round" stroke-linejoin="round"/>
<path d="M453.36 315.705L457.17 323.525" stroke="black" stroke-width="1.5" stroke-miterlimit="10" stroke-linecap="round" stroke-linejoin="round"/>
<path d="M338.1 331.355L340.21 322.475" stroke="black" stroke-width="1.5" stroke-miterlimit="10" stroke-linecap="round" stroke-linejoin="round"/>
<path d="M388.22 298.785C388.22 298.785 384.2 306.395 391.18 309.575" stroke="black" stroke-width="1.5" stroke-miterlimit="10" stroke-linecap="round" stroke-linejoin="round"/>
<path d="M374.26 277.315C381.87 277.315 383.57 285.985 391.71 285.985C401.23 285.985 397.84 277.315 409.37 277.315" stroke="black" stroke-width="1.5" stroke-miterlimit="10" stroke-linecap="round" stroke-linejoin="round"/>
<path d="M414.55 286.725C414.55 286.725 427.45 281.755 427.45 272.345C427.45 266.005 425.02 265.785 425.02 265.785" stroke="black" stroke-width="1.5" stroke-miterlimit="10" stroke-linecap="round" stroke-linejoin="round"/>
<path d="M364.75 284.615C364.75 284.615 359.99 281.545 359.99 276.265C359.99 270.985 363.59 266.435 363.59 266.435" stroke="black" stroke-width="1.5" stroke-miterlimit="10" stroke-linecap="round" stroke-linejoin="round"/>
<path d="M300.03 207.275C300.03 207.275 306.8 196.275 330.34 196.275" stroke="black" stroke-width="1.5" stroke-miterlimit="10" stroke-linecap="round" stroke-linejoin="round"/>
<path d="M339.26 201.785C313.78 201.785 302.35 216.875 302.35 216.875C302.35 216.875 303.23 217.225 305.54 217.225" stroke="black" stroke-width="1.5" stroke-miterlimit="10" stroke-linecap="round" stroke-linejoin="round"/>
<path d="M308.91 219.895C308.91 219.895 317.05 227.295 335.35 222.755" stroke="black" stroke-width="1.5" stroke-miterlimit="10" stroke-linecap="round" stroke-linejoin="round"/>
<path d="M350.57 210.425C350.57 210.425 355.12 213.815 351.84 217.675" stroke="black" stroke-width="1.5" stroke-miterlimit="10" stroke-linecap="round" stroke-linejoin="round"/>
<path d="M349.42 217.575C349.42 217.575 355.51 218.065 357.69 216.875C357.69 216.875 346.55 202.985 328.47 202.985" stroke="black" stroke-width="1.5" stroke-miterlimit="10" stroke-linecap="round" stroke-linejoin="round"/>
<path d="M311.8 221.695C311.8 221.695 308.81 223.545 308.39 225.395L311.8 221.695Z" fill="black"/>
<path d="M311.8 221.695C311.8 221.695 308.81 223.545 308.39 225.395" stroke="black" stroke-width="1.5" stroke-miterlimit="10" stroke-linecap="round" stroke-linejoin="round"/>
<path d="M314.35 222.735L312.93 225.395" stroke="black" stroke-width="1.5" stroke-miterlimit="10" stroke-linecap="round" stroke-linejoin="round"/>
<path d="M317.05 223.495L316.53 226.135" stroke="black" stroke-width="1.5" stroke-miterlimit="10" stroke-linecap="round" stroke-linejoin="round"/>
<path d="M320.69 224.065L320.91 226.775" stroke="black" stroke-width="1.5" stroke-miterlimit="10" stroke-linecap="round" stroke-linejoin="round"/>
<path d="M326.31 224.165V226.135" stroke="black" stroke-width="1.5" stroke-miterlimit="10" stroke-linecap="round" stroke-linejoin="round"/>
<path d="M319.85 205.815C319.36 205.845 318.88 205.705 318.46 205.425C317.73 206.915 317.3 208.585 317.3 210.355C317.3 213.655 318.74 216.615 321.01 218.675C321.29 218.295 321.58 217.915 321.9 217.565C319.95 215.775 318.72 213.205 318.72 210.355C318.73 208.725 319.14 207.175 319.85 205.815Z" fill="black"/>
<path d="M334.92 202.935C337.01 204.735 338.35 207.395 338.35 210.365C338.35 212.665 337.55 214.775 336.22 216.445C336.57 216.835 336.8 217.335 336.88 217.865C338.67 215.875 339.78 213.245 339.78 210.365C339.78 207.715 338.85 205.275 337.3 203.345C336.5 203.155 335.71 203.015 334.92 202.935Z" fill="black"/>
<path d="M328.53 214.805C330.761 214.805 332.57 212.996 332.57 210.765C332.57 208.534 330.761 206.725 328.53 206.725C326.299 206.725 324.49 208.534 324.49 210.765C324.49 212.996 326.299 214.805 328.53 214.805Z" fill="black"/>
<path d="M317.92 213.365C317.92 213.365 324 210.035 329 210.035C334.01 210.035 339.79 210.035 339.79 210.035L337.17 204.075C337.17 204.075 330.91 202.565 327.53 202.985C324.15 203.405 318.78 205.865 318.78 205.865C318.78 205.865 316.64 208.165 317.92 213.365Z" fill="black"/>
<path d="M329.99 212.355L334.33 216.695" stroke="black" stroke-width="1.5" stroke-miterlimit="10" stroke-linecap="round" stroke-linejoin="round"/>
<path d="M440.25 197.555C436.23 198.685 427.91 211.795 427.91 211.795C427.91 211.795 431.43 213.485 434.08 213.415" stroke="black" stroke-width="1.5" stroke-miterlimit="10" stroke-linecap="round" stroke-linejoin="round"/>
<path d="M471.2 208.905C471.2 208.905 475.43 207.495 476.35 207.495C476.35 207.495 465.35 193.675 438.14 197.555" stroke="black" stroke-width="1.5" stroke-miterlimit="10" stroke-linecap="round" stroke-linejoin="round"/>
<path d="M431.13 207.055C431.13 207.055 429.45 211.135 433.05 213.365" stroke="black" stroke-width="1.5" stroke-miterlimit="10" stroke-linecap="round" stroke-linejoin="round"/>
<path d="M444.74 196.885C444.45 196.965 444.15 197.045 443.86 197.135C443.47 197.255 443.1 197.285 442.77 197.255C441.68 199.085 441.04 201.215 441.04 203.495C441.04 206.185 441.92 208.665 443.39 210.685C443.74 210.345 444.16 210.095 444.64 209.975C443.28 208.165 442.47 205.925 442.47 203.495C442.47 201.005 443.32 198.715 444.74 196.885Z" fill="black"/>
<path d="M463.3 199.345C463.83 200.625 464.14 202.015 464.14 203.485C464.14 207.045 462.41 210.195 459.75 212.175C460.08 212.495 460.39 212.855 460.69 213.255C463.64 211.015 465.56 207.475 465.56 203.495C465.56 202.125 465.32 200.815 464.9 199.585C464.35 199.665 463.78 199.595 463.3 199.345Z" fill="black"/>
<path d="M453.3 208.895C456.05 208.895 458.28 206.665 458.28 203.915C458.28 201.165 456.05 198.935 453.3 198.935C450.55 198.935 448.32 201.165 448.32 203.915C448.32 206.665 450.55 208.895 453.3 208.895Z" fill="black"/>
<path d="M441.87 205.115C441.87 205.115 450.89 204.175 453.71 204.395C456.53 204.605 464.16 207.435 464.16 207.435C464.16 207.435 465.54 205.325 464.45 199.785C464.45 199.785 456.17 196.195 443.76 196.975C443.77 196.975 441.23 200.625 441.87 205.115Z" fill="black"/>
<path d="M453.3 203.915L456.82 212.145" stroke="black" stroke-width="1.5" stroke-miterlimit="10" stroke-linecap="round" stroke-linejoin="round"/>
<path d="M444.2 215.885C444.2 215.885 454.7 219.055 465.84 214.475L471.76 216.585" stroke="black" stroke-width="1.5" stroke-miterlimit="10" stroke-linecap="round" stroke-linejoin="round"/>
<path d="M465.91 218.775L462.91 215.505" stroke="black" stroke-width="1.5" stroke-miterlimit="10" stroke-linecap="round" stroke-linejoin="round"/>
<path d="M461.19 219.195L459.9 216.265" stroke="black" stroke-width="1.5" stroke-miterlimit="10" stroke-linecap="round" stroke-linejoin="round"/>
<path d="M456.82 219.195L456.12 216.805" stroke="black" stroke-width="1.5" stroke-miterlimit="10" stroke-linecap="round" stroke-linejoin="round"/>
<path d="M451.74 218.775V216.935" stroke="black" stroke-width="1.5" stroke-miterlimit="10" stroke-linecap="round" stroke-linejoin="round"/>
<path d="M359.14 177.385L353.03 186.585" stroke="black" stroke-width="0.75" stroke-miterlimit="10" stroke-linecap="round" stroke-linejoin="round"/>
<path d="M353.03 173.585L354.28 182.675" stroke="black" stroke-width="0.75" stroke-miterlimit="10" stroke-linecap="round" stroke-linejoin="round"/>
<path d="M351.8 183.525L356.09 176.545" stroke="black" stroke-width="0.75" stroke-miterlimit="10" stroke-linecap="round" stroke-linejoin="round"/>
<path d="M347.83 183.525L354.7 173.585" stroke="black" stroke-width="0.75" stroke-miterlimit="10" stroke-linecap="round" stroke-linejoin="round"/>
<path d="M346.56 172.635L351.8 180.985" stroke="black" stroke-width="0.75" stroke-miterlimit="10" stroke-linecap="round" stroke-linejoin="round"/>
<path d="M344.76 180.455L357.7 177.385" stroke="black" stroke-width="0.75" stroke-miterlimit="10" stroke-linecap="round" stroke-linejoin="round"/>
<path d="M342.33 181.985L351.8 172.635" stroke="black" stroke-width="0.75" stroke-miterlimit="10" stroke-linecap="round" stroke-linejoin="round"/>
<path d="M351.8 176.015L340.53 175.375" stroke="black" stroke-width="0.75" stroke-miterlimit="10" stroke-linecap="round" stroke-linejoin="round"/>
<path d="M343.09 173.585L347.07 181.985" stroke="black" stroke-width="0.75" stroke-miterlimit="10" stroke-linecap="round" stroke-linejoin="round"/>
<path d="M356.09 179.605L339.79 177.785" stroke="black" stroke-width="0.75" stroke-miterlimit="10" stroke-linecap="round" stroke-linejoin="round"/>
<path d="M339.79 182.675L348.57 173.585" stroke="black" stroke-width="0.75" stroke-miterlimit="10" stroke-linecap="round" stroke-linejoin="round"/>
<path d="M339.26 173.585L341.48 183.525" stroke="black" stroke-width="0.75" stroke-miterlimit="10" stroke-linecap="round" stroke-linejoin="round"/>
<path d="M339.06 180.035V171.995" stroke="black" stroke-width="0.75" stroke-miterlimit="10" stroke-linecap="round" stroke-linejoin="round"/>
<path d="M335.35 180.455L342.33 174.535" stroke="black" stroke-width="0.75" stroke-miterlimit="10" stroke-linecap="round" stroke-linejoin="round"/>
<path d="M330.34 181.985L339.26 174.535" stroke="black" stroke-width="0.75" stroke-miterlimit="10" stroke-linecap="round" stroke-linejoin="round"/>
<path d="M327.63 180.985L337.57 174.535" stroke="black" stroke-width="0.75" stroke-miterlimit="10" stroke-linecap="round" stroke-linejoin="round"/>
<path d="M326.78 174.535C327.1 174.955 340.7 180.035 340.7 180.035" stroke="black" stroke-width="0.75" stroke-miterlimit="10" stroke-linecap="round" stroke-linejoin="round"/>
<path d="M331.54 174.535L341.48 178.925" stroke="black" stroke-width="0.75" stroke-miterlimit="10" stroke-linecap="round" stroke-linejoin="round"/>
<path d="M321.5 180.985L330.34 174.535" stroke="black" stroke-width="0.75" stroke-miterlimit="10" stroke-linecap="round" stroke-linejoin="round"/>
<path d="M337.04 173.585L326.78 180.035" stroke="black" stroke-width="0.75" stroke-miterlimit="10" stroke-linecap="round" stroke-linejoin="round"/>
<path d="M317.05 180.455L324.49 175.375" stroke="black" stroke-width="0.75" stroke-miterlimit="10" stroke-linecap="round" stroke-linejoin="round"/>
<path d="M318.01 175.695L331.54 182.675" stroke="black" stroke-width="0.75" stroke-miterlimit="10" stroke-linecap="round" stroke-linejoin="round"/>
<path d="M310.71 179.605L328.31 176.015" stroke="black" stroke-width="0.75" stroke-miterlimit="10" stroke-linecap="round" stroke-linejoin="round"/>
<path d="M307.33 180.455L319.51 175.375" stroke="black" stroke-width="0.75" stroke-miterlimit="10" stroke-linecap="round" stroke-linejoin="round"/>
<path d="M301.93 180.985L309.16 177.755" stroke="black" stroke-width="0.75" stroke-miterlimit="10" stroke-linecap="round" stroke-linejoin="round"/>
<path d="M296.86 180.985H305.32" stroke="black" stroke-width="0.75" stroke-miterlimit="10" stroke-linecap="round" stroke-linejoin="round"/>
<path d="M293.37 184.265L300.03 183.205" stroke="black" stroke-width="0.75" stroke-miterlimit="10" stroke-linecap="round" stroke-linejoin="round"/>
<path d="M291.15 186.585L295.48 185.955" stroke="black" stroke-width="0.75" stroke-miterlimit="10" stroke-linecap="round" stroke-linejoin="round"/>
<path d="M289.77 189.125L291.99 188.595" stroke="black" stroke-width="0.75" stroke-miterlimit="10" stroke-linecap="round" stroke-linejoin="round"/>
<path d="M287.45 191.345H289.24" stroke="black" stroke-width="0.75" stroke-miterlimit="10" stroke-linecap="round" stroke-linejoin="round"/>
<path d="M285.86 193.465H287.45" stroke="black" stroke-width="0.75" stroke-miterlimit="10" stroke-linecap="round" stroke-linejoin="round"/>
<path d="M351.8 173.585L345.43 182.675" stroke="black" stroke-width="0.75" stroke-miterlimit="10" stroke-linecap="round" stroke-linejoin="round"/>
<path d="M354.7 175.375L355.44 186.585" stroke="black" stroke-width="0.75" stroke-miterlimit="10" stroke-linecap="round" stroke-linejoin="round"/>
<path d="M353.33 183.525L342.33 176.545" stroke="black" stroke-width="0.75" stroke-miterlimit="10" stroke-linecap="round" stroke-linejoin="round"/>
<path d="M421.65 173.355L427.76 182.555" stroke="black" stroke-width="0.75" stroke-miterlimit="10" stroke-linecap="round" stroke-linejoin="round"/>
<path d="M427.76 169.555L426.51 178.645" stroke="black" stroke-width="0.75" stroke-miterlimit="10" stroke-linecap="round" stroke-linejoin="round"/>
<path d="M428.98 179.495L424.7 172.515" stroke="black" stroke-width="0.75" stroke-miterlimit="10" stroke-linecap="round" stroke-linejoin="round"/>
<path d="M432.96 179.495L426.09 169.555" stroke="black" stroke-width="0.75" stroke-miterlimit="10" stroke-linecap="round" stroke-linejoin="round"/>
<path d="M434.23 168.595L428.98 176.955" stroke="black" stroke-width="0.75" stroke-miterlimit="10" stroke-linecap="round" stroke-linejoin="round"/>
<path d="M436.03 176.425L423.09 173.355" stroke="black" stroke-width="0.75" stroke-miterlimit="10" stroke-linecap="round" stroke-linejoin="round"/>
<path d="M438.46 177.955L428.98 168.595" stroke="black" stroke-width="0.75" stroke-miterlimit="10" stroke-linecap="round" stroke-linejoin="round"/>
<path d="M428.98 171.985L440.26 171.345" stroke="black" stroke-width="0.75" stroke-miterlimit="10" stroke-linecap="round" stroke-linejoin="round"/>
<path d="M437.7 169.555L433.72 177.955" stroke="black" stroke-width="0.75" stroke-miterlimit="10" stroke-linecap="round" stroke-linejoin="round"/>
<path d="M424.7 175.575L441 173.755" stroke="black" stroke-width="0.75" stroke-miterlimit="10" stroke-linecap="round" stroke-linejoin="round"/>
<path d="M441 178.645L432.22 169.555" stroke="black" stroke-width="0.75" stroke-miterlimit="10" stroke-linecap="round" stroke-linejoin="round"/>
<path d="M441.53 169.555L439.31 179.495" stroke="black" stroke-width="0.75" stroke-miterlimit="10" stroke-linecap="round" stroke-linejoin="round"/>
<path d="M441.73 176.005V167.965" stroke="black" stroke-width="0.75" stroke-miterlimit="10" stroke-linecap="round" stroke-linejoin="round"/>
<path d="M445.44 176.425L438.46 170.505" stroke="black" stroke-width="0.75" stroke-miterlimit="10" stroke-linecap="round" stroke-linejoin="round"/>
<path d="M450.44 177.955L441.53 170.505" stroke="black" stroke-width="0.75" stroke-miterlimit="10" stroke-linecap="round" stroke-linejoin="round"/>
<path d="M453.16 176.955L443.22 170.505" stroke="black" stroke-width="0.75" stroke-miterlimit="10" stroke-linecap="round" stroke-linejoin="round"/>
<path d="M454 170.505C453.68 170.925 440.08 176.005 440.08 176.005" stroke="black" stroke-width="0.75" stroke-miterlimit="10" stroke-linecap="round" stroke-linejoin="round"/>
<path d="M449.25 170.505L439.31 174.895" stroke="black" stroke-width="0.75" stroke-miterlimit="10" stroke-linecap="round" stroke-linejoin="round"/>
<path d="M459.29 176.955L450.44 170.505" stroke="black" stroke-width="0.75" stroke-miterlimit="10" stroke-linecap="round" stroke-linejoin="round"/>
<path d="M443.75 169.555L454 176.005" stroke="black" stroke-width="0.75" stroke-miterlimit="10" stroke-linecap="round" stroke-linejoin="round"/>
<path d="M463.73 176.425L456.3 171.345" stroke="black" stroke-width="0.75" stroke-miterlimit="10" stroke-linecap="round" stroke-linejoin="round"/>
<path d="M462.78 171.665L449.25 178.645" stroke="black" stroke-width="0.75" stroke-miterlimit="10" stroke-linecap="round" stroke-linejoin="round"/>
<path d="M470.08 175.575L452.47 171.985" stroke="black" stroke-width="0.75" stroke-miterlimit="10" stroke-linecap="round" stroke-linejoin="round"/>
<path d="M473.46 176.425L461.28 171.345" stroke="black" stroke-width="0.75" stroke-miterlimit="10" stroke-linecap="round" stroke-linejoin="round"/>
<path d="M478.85 176.955L471.63 173.725" stroke="black" stroke-width="0.75" stroke-miterlimit="10" stroke-linecap="round" stroke-linejoin="round"/>
<path d="M483.93 176.955H475.47" stroke="black" stroke-width="0.75" stroke-miterlimit="10" stroke-linecap="round" stroke-linejoin="round"/>
<path d="M428.98 169.555L435.36 178.645" stroke="black" stroke-width="0.75" stroke-miterlimit="10" stroke-linecap="round" stroke-linejoin="round"/>
<path d="M426.09 171.345L425.35 182.555" stroke="black" stroke-width="0.75" stroke-miterlimit="10" stroke-linecap="round" stroke-linejoin="round"/>
<path d="M427.46 179.495L438.46 172.515" stroke="black" stroke-width="0.75" stroke-miterlimit="10" stroke-linecap="round" stroke-linejoin="round"/>
<path d="M441 191.065C441 191.065 463.11 184.325 479.7 202.145" stroke="black" stroke-width="1.5" stroke-miterlimit="10" stroke-linecap="round" stroke-linejoin="round"/>
<path d="M290.72 70.235C290.72 70.235 272.98 77.145 269.23 100.545" stroke="#D9D9D9" stroke-width="0.75" stroke-miterlimit="10" stroke-linecap="round" stroke-linejoin="round"/>
<path d="M311.45 72.915C311.45 72.915 299.18 71.925 293.12 79.825" stroke="#D9D9D9" stroke-width="0.75" stroke-miterlimit="10" stroke-linecap="round" stroke-linejoin="round"/>
<path d="M287.9 92.365C287.9 92.365 282.82 92.085 281.84 102.935C280.85 113.795 279.98 116.615 279.98 116.615" stroke="#D9D9D9" stroke-width="0.75" stroke-miterlimit="10" stroke-linecap="round" stroke-linejoin="round"/>
<path d="M267.18 78.415C267.18 78.415 281.42 58.395 294.53 57.685C302.28 57.685 302.99 60.085 302.99 60.085" stroke="#D9D9D9" stroke-width="0.75" stroke-miterlimit="10" stroke-linecap="round" stroke-linejoin="round"/>
<path d="M309.48 35.545C309.48 35.545 313 12.565 347.83 7.91501" stroke="#D9D9D9" stroke-width="0.75" stroke-miterlimit="10" stroke-linecap="round" stroke-linejoin="round"/>
<path d="M351.35 19.755C351.35 19.755 360.09 11.855 390.69 15.385C421.29 18.915 438.91 41.325 438.91 41.325" stroke="#D9D9D9" stroke-width="0.75" stroke-miterlimit="10" stroke-linecap="round" stroke-linejoin="round"/>
<path d="M424.95 21.735C424.95 21.735 459.07 34.385 471.76 76.355" stroke="#D9D9D9" stroke-width="0.75" stroke-miterlimit="10" stroke-linecap="round" stroke-linejoin="round"/>
<path d="M456.3 70.235C456.3 70.235 470.94 118.595 485.31 134.955" stroke="#D9D9D9" stroke-width="0.75" stroke-miterlimit="10" stroke-linecap="round" stroke-linejoin="round"/>
<path d="M427.76 44.435C427.76 44.435 440.55 56.425 443.75 77.075" stroke="#D9D9D9" stroke-width="0.75" stroke-miterlimit="10" stroke-linecap="round" stroke-linejoin="round"/>
<path d="M355.44 55.425C355.44 55.425 371.09 39.065 398.73 44.425" stroke="#D9D9D9" stroke-width="0.75" stroke-miterlimit="10" stroke-linecap="round" stroke-linejoin="round"/>
<path d="M367.71 57.685C367.71 57.685 392.71 51.935 409.16 60.755" stroke="#D9D9D9" stroke-width="0.75" stroke-miterlimit="10" stroke-linecap="round" stroke-linejoin="round"/>
<path d="M395.13 65.015C395.13 65.015 406.62 65.015 419.03 75.025" stroke="#D9D9D9" stroke-width="0.75" stroke-miterlimit="10" stroke-linecap="round" stroke-linejoin="round"/>
<path d="M332.16 65.015C332.16 65.015 322.16 44.715 350.57 30.615" stroke="#D9D9D9" stroke-width="0.75" stroke-miterlimit="10" stroke-linecap="round" stroke-linejoin="round"/>
<path d="M319.51 57.685C319.51 57.685 306.87 38.795 338.84 23.005" stroke="#D9D9D9" stroke-width="0.75" stroke-miterlimit="10" stroke-linecap="round" stroke-linejoin="round"/>
<path d="M493.34 60.755C493.34 60.755 517.16 72.915 533.51 109.005" stroke="#D9D9D9" stroke-width="0.75" stroke-miterlimit="10" stroke-linecap="round" stroke-linejoin="round"/>
<path d="M513.43 98.855C513.43 98.855 531.03 132.395 551.71 141.995" stroke="#D9D9D9" stroke-width="0.75" stroke-miterlimit="10" stroke-linecap="round" stroke-linejoin="round"/>
<path d="M491.02 76.345C491.02 76.345 494.89 99.135 506.45 111.545" stroke="#D9D9D9" stroke-width="0.75" stroke-miterlimit="10" stroke-linecap="round" stroke-linejoin="round"/>
<path d="M520.83 128.185C520.83 128.185 543.11 157.515 561.44 162.305" stroke="#D9D9D9" stroke-width="0.75" stroke-miterlimit="10" stroke-linecap="round" stroke-linejoin="round"/>
<path d="M482.48 102.595C482.48 102.595 494.32 159.775 553.82 177.965" stroke="#D9D9D9" stroke-width="0.75" stroke-miterlimit="10" stroke-linecap="round" stroke-linejoin="round"/>
<path d="M564.53 175.335C564.53 175.335 578.63 189.765 581.73 207.045" stroke="#D9D9D9" stroke-width="0.75" stroke-miterlimit="10" stroke-linecap="round" stroke-linejoin="round"/>
<path d="M508.98 168.595C508.98 168.595 532.1 196.985 570.74 200.935" stroke="#D9D9D9" stroke-width="0.75" stroke-miterlimit="10" stroke-linecap="round" stroke-linejoin="round"/>
<path d="M501.37 187.315C501.37 187.315 528.44 223.495 573.14 230.265" stroke="#D9D9D9" stroke-width="0.75" stroke-miterlimit="10" stroke-linecap="round" stroke-linejoin="round"/>
<path d="M508.98 212.145C508.98 212.145 540.84 245.495 578.91 250.285" stroke="#D9D9D9" stroke-width="0.75" stroke-miterlimit="10" stroke-linecap="round" stroke-linejoin="round"/>
<path d="M580.04 296.665C599.29 303.005 595.06 359.685 602.88 372.165" stroke="#D9D9D9" stroke-width="0.75" stroke-miterlimit="10" stroke-linecap="round" stroke-linejoin="round"/>
<path d="M528.65 259.875C528.65 259.875 555.09 270.875 566.08 297.735C577.07 324.595 584.27 333.055 584.27 333.055" stroke="#D9D9D9" stroke-width="0.75" stroke-miterlimit="10" stroke-linecap="round" stroke-linejoin="round"/>
<path d="M581.52 352.295C581.31 369.845 568.62 441.755 601.19 481.515" stroke="#D9D9D9" stroke-width="0.75" stroke-miterlimit="10" stroke-linecap="round" stroke-linejoin="round"/>
<path d="M596.33 413.835C593.3 457.825 657.87 477.285 643.77 556.805" stroke="#D9D9D9" stroke-width="0.75" stroke-miterlimit="10" stroke-linecap="round" stroke-linejoin="round"/>
<path d="M610.78 504.915C610.78 504.915 625.44 531.985 624.88 563.005" stroke="#D9D9D9" stroke-width="0.75" stroke-miterlimit="10" stroke-linecap="round" stroke-linejoin="round"/>
<path d="M592.45 533.965C592.45 533.965 589.07 574.855 631.36 612.635" stroke="#D9D9D9" stroke-width="0.75" stroke-miterlimit="10" stroke-linecap="round" stroke-linejoin="round"/>
<path d="M621.01 649.015C621.01 649.015 529.85 580.845 562 472.945" stroke="#D9D9D9" stroke-width="0.75" stroke-miterlimit="10" stroke-linecap="round" stroke-linejoin="round"/>
<path d="M580.04 504.915C580.04 504.915 580.04 441.745 547.89 396.915" stroke="#D9D9D9" stroke-width="0.75" stroke-miterlimit="10" stroke-linecap="round" stroke-linejoin="round"/>
<path d="M556.46 372.175C556.46 372.175 560.58 318.665 528.65 283.135" stroke="#D9D9D9" stroke-width="0.75" stroke-miterlimit="10" stroke-linecap="round" stroke-linejoin="round"/>
<path d="M524.21 309.575C524.21 309.575 539.44 337.705 532.25 372.175" stroke="#D9D9D9" stroke-width="0.75" stroke-miterlimit="10" stroke-linecap="round" stroke-linejoin="round"/>
<path d="M517.02 357.155C531.4 384.645 546.26 420.175 534.18 463.745" stroke="#D9D9D9" stroke-width="0.75" stroke-miterlimit="10" stroke-linecap="round" stroke-linejoin="round"/>
<path d="M506.66 372.175C506.66 372.175 512.79 399.035 491.22 448.525" stroke="#D9D9D9" stroke-width="0.75" stroke-miterlimit="10" stroke-linecap="round" stroke-linejoin="round"/>
<path d="M466.05 558.915C466.05 558.915 453.99 511.965 488.68 463.745" stroke="#D9D9D9" stroke-width="0.75" stroke-miterlimit="10" stroke-linecap="round" stroke-linejoin="round"/>
<path d="M499.34 492.515C513.21 470.515 516.6 436.685 512.79 421.875" stroke="#D9D9D9" stroke-width="0.75" stroke-miterlimit="10" stroke-linecap="round" stroke-linejoin="round"/>
<path d="M527.82 485.105C527.82 485.105 481.49 573.295 563.97 636.745" stroke="#D9D9D9" stroke-width="0.75" stroke-miterlimit="10" stroke-linecap="round" stroke-linejoin="round"/>
<path d="M542.82 560.925C543.24 561.455 555.09 618.135 608.38 663.815" stroke="#D9D9D9" stroke-width="0.75" stroke-miterlimit="10" stroke-linecap="round" stroke-linejoin="round"/>
<path d="M539.41 516.195C539.41 516.195 539.01 487.435 547.9 463.745" stroke="#D9D9D9" stroke-width="0.75" stroke-miterlimit="10" stroke-linecap="round" stroke-linejoin="round"/>
<path d="M263.54 111.615C265.56 120.705 255.83 138.895 255.83 138.895" stroke="#D9D9D9" stroke-width="0.75" stroke-miterlimit="10" stroke-linecap="round" stroke-linejoin="round"/>
<path d="M269.23 117.535C269.23 117.535 283.53 175.825 227.91 216.265" stroke="#D9D9D9" stroke-width="0.75" stroke-miterlimit="10" stroke-linecap="round" stroke-linejoin="round"/>
<path d="M256.67 150.105C256.67 150.105 250.11 169.135 218.81 189.125" stroke="#D9D9D9" stroke-width="0.75" stroke-miterlimit="10" stroke-linecap="round" stroke-linejoin="round"/>
<path d="M225.8 145.875C226.86 145.875 250.76 129.375 252.45 117.535" stroke="#D9D9D9" stroke-width="0.75" stroke-miterlimit="10" stroke-linecap="round" stroke-linejoin="round"/>
<path d="M229.6 125.255C229.6 125.255 199.99 139.675 201.05 197.545" stroke="#D9D9D9" stroke-width="0.75" stroke-miterlimit="10" stroke-linecap="round" stroke-linejoin="round"/>
<path d="M172.55 248.445C172.55 248.445 184.77 232.105 192.17 208.125" stroke="#D9D9D9" stroke-width="0.75" stroke-miterlimit="10" stroke-linecap="round" stroke-linejoin="round"/>
<path d="M223.05 230.265C223.05 230.265 155.37 288.075 155.37 349.825C155.37 379.435 159.6 385.355 159.6 385.355" stroke="#D9D9D9" stroke-width="0.75" stroke-miterlimit="10" stroke-linecap="round" stroke-linejoin="round"/>
<path d="M179.06 367.305C179.06 367.305 170.04 342.065 185.55 323.525" stroke="#D9D9D9" stroke-width="0.75" stroke-miterlimit="10" stroke-linecap="round" stroke-linejoin="round"/>
<path d="M180.99 312.035C180.99 312.035 188.08 276.505 242.5 237.025" stroke="#D9D9D9" stroke-width="0.75" stroke-miterlimit="10" stroke-linecap="round" stroke-linejoin="round"/>
<path d="M196.26 341.925C196.26 341.925 192.31 310.625 232.07 274.525" stroke="#D9D9D9" stroke-width="0.75" stroke-miterlimit="10" stroke-linecap="round" stroke-linejoin="round"/>
<path d="M252.09 256.765C252.09 256.765 255.61 334.875 189.21 393.815" stroke="#D9D9D9" stroke-width="0.75" stroke-miterlimit="10" stroke-linecap="round" stroke-linejoin="round"/>
<path d="M256.67 279.755C256.67 279.755 272.99 325.435 240.19 360.545" stroke="#D9D9D9" stroke-width="0.75" stroke-miterlimit="10" stroke-linecap="round" stroke-linejoin="round"/>
<path d="M268.88 344.885C268.88 344.885 261.96 401.565 227.91 415.525" stroke="#D9D9D9" stroke-width="0.75" stroke-miterlimit="10" stroke-linecap="round" stroke-linejoin="round"/>
<path d="M172.71 457.195C172.71 457.195 178.59 424.075 219.24 401.145" stroke="#D9D9D9" stroke-width="0.75" stroke-miterlimit="10" stroke-linecap="round" stroke-linejoin="round"/>
<path d="M206.97 438.365C206.97 438.365 178.21 470.935 201.47 511.325" stroke="#D9D9D9" stroke-width="0.75" stroke-miterlimit="10" stroke-linecap="round" stroke-linejoin="round"/>
<path d="M208.67 560.985C208.67 560.985 178.88 546.655 176.22 492.515" stroke="#D9D9D9" stroke-width="0.75" stroke-miterlimit="10" stroke-linecap="round" stroke-linejoin="round"/>
<path d="M137.32 581.335C137.6 582.605 178.46 583.875 176.22 546.655" stroke="#D9D9D9" stroke-width="0.75" stroke-miterlimit="10" stroke-linecap="round" stroke-linejoin="round"/>
<path d="M163.41 548.765C163.41 548.765 142.26 523.825 142.26 472.945C142.26 429.165 181 404.105 181 404.105" stroke="#D9D9D9" stroke-width="0.75" stroke-miterlimit="10" stroke-linecap="round" stroke-linejoin="round"/>
<path d="M232.07 435.405C232.07 435.405 216.7 468.505 223.05 511.335" stroke="#D9D9D9" stroke-width="0.75" stroke-miterlimit="10" stroke-linecap="round" stroke-linejoin="round"/>
<path d="M257.73 401.145C257.73 401.145 236.66 436.675 260.73 483.205" stroke="#D9D9D9" stroke-width="0.75" stroke-miterlimit="10" stroke-linecap="round" stroke-linejoin="round"/>
<path d="M274.97 446.405C274.97 446.405 256.04 404.525 282.69 376.185" stroke="#D9D9D9" stroke-width="0.75" stroke-miterlimit="10" stroke-linecap="round" stroke-linejoin="round"/>
<path d="M290.3 450.915C290.3 450.915 320.33 489.495 296.64 526.745" stroke="#D9D9D9" stroke-width="0.75" stroke-miterlimit="10" stroke-linecap="round" stroke-linejoin="round"/>
<path d="M279.94 466.705C279.94 466.705 297.49 565.045 223.05 584.395" stroke="#D9D9D9" stroke-width="0.75" stroke-miterlimit="10" stroke-linecap="round" stroke-linejoin="round"/>
<path d="M260.73 502.235C260.73 502.235 261.54 542.845 242.5 558.915" stroke="#D9D9D9" stroke-width="0.75" stroke-miterlimit="10" stroke-linecap="round" stroke-linejoin="round"/>
<path d="M220.67 602.485C220.67 602.485 300.03 592.335 321.61 523.815" stroke="#D9D9D9" stroke-width="0.75" stroke-miterlimit="10" stroke-linecap="round" stroke-linejoin="round"/>
<path d="M312.72 462.055C312.72 462.055 336.41 474.325 338.1 514.295" stroke="#D9D9D9" stroke-width="0.75" stroke-miterlimit="10" stroke-linecap="round" stroke-linejoin="round"/>
<path d="M301.27 373.335C301.27 373.335 305.67 406.795 303.83 434.145" stroke="black" stroke-width="1.5" stroke-miterlimit="10" stroke-linecap="round" stroke-linejoin="round"/>
</svg>
