<svg width="783" height="683" viewBox="0 0 783 683" fill="none" xmlns="http://www.w3.org/2000/svg">
<path d="M379.055 667.806C553.892 667.806 695.625 526.073 695.625 351.236C695.625 176.4 553.892 34.6664 379.055 34.6664C204.218 34.6664 62.4852 176.4 62.4852 351.236C62.4852 526.073 204.218 667.806 379.055 667.806Z" fill="#F8B625"/>
<path d="M679.425 521.686C736.128 521.686 782.095 475.719 782.095 419.016C782.095 362.313 736.128 316.346 679.425 316.346C622.722 316.346 576.755 362.313 576.755 419.016C576.755 475.719 622.722 521.686 679.425 521.686Z" fill="#9280FA"/>
<path d="M90.7652 315.256C140.349 315.256 180.545 275.061 180.545 225.476C180.545 175.892 140.349 135.696 90.7652 135.696C41.181 135.696 0.985168 175.892 0.985168 225.476C0.985168 275.061 41.181 315.256 90.7652 315.256Z" fill="#DD2638"/>
<path d="M58.9852 585.926C64.3152 561.036 91.1852 528.886 116.645 514.296C132.765 503.036 152.325 489.926 178.765 479.706C205.205 469.486 246.985 453.486 250.765 450.816C254.545 448.146 268.985 435.926 268.985 435.926C268.985 435.926 291.055 384.296 303.575 380.886V337.256C303.575 337.256 296.315 325.696 290.985 312.146C285.655 298.586 281.985 287.356 281.985 287.356C281.985 287.356 276.765 283.706 274.985 276.146C273.205 268.586 266.315 254.036 264.655 247.706C262.985 241.376 258.835 199.426 267.465 190.456C268.545 189.266 269.985 189.706 269.985 189.706C269.985 189.706 270.905 186.966 270.555 183.556C270.205 180.146 268.795 124.886 269.145 118.666C269.495 112.446 272.395 100.186 283.835 82.0864C295.275 63.9864 320.855 43.6964 330.135 35.8464C339.425 27.9964 382.315 1.45638 414.535 1.45638C446.755 1.45638 480.905 0.586384 511.275 34.8064C514.085 38.4764 515.975 42.1364 515.975 42.1364C515.975 42.1364 522.815 43.2264 527.885 47.6964C532.955 52.1564 542.725 60.6364 551.685 83.7264C560.645 106.816 562.535 128.806 562.535 128.806C562.535 128.806 565.535 138.586 563.095 166.366C560.655 194.146 556.735 219.676 556.745 219.856C556.755 220.036 552.875 259.926 540.095 275.256C540.095 275.256 531.835 305.256 532.025 305.586C532.215 305.916 530.325 315.696 529.875 322.806C529.435 329.916 520.915 363.396 513.805 376.586C506.695 389.776 492.915 400.186 492.915 400.186L487.135 419.986C487.135 419.986 516.975 450.556 522.495 461.786C528.015 473.016 522.495 462.466 522.495 462.466C522.495 462.466 548.845 471.596 555.985 473.346C563.125 475.096 612.015 479.686 633.945 491.836C655.875 503.986 672.015 517.766 679.425 541.246C686.835 564.726 691.855 682.806 492.525 682.806C293.195 682.806 58.9852 682.226 58.9852 585.926Z" fill="white"/>
<path d="M533.095 210.596C533.095 210.596 517.075 198.966 500.865 198.966C484.655 198.966 470.845 211.156 470.515 215.216C470.185 219.276 469.895 229.816 469.895 229.816C469.895 229.816 484.985 212.996 496.935 212.996C508.885 212.996 520.975 221.336 523.485 228.126C523.485 228.126 530.735 232.826 532.035 234.706C532.035 234.706 534.945 216.146 503.635 208.586C503.625 208.596 519.055 207.146 533.095 210.596Z" fill="#D8D8D8"/>
<path d="M479.095 229.926C479.425 229.926 491.345 234.026 499.445 234.336C499.445 234.336 496.355 244.146 507.275 246.146C507.275 246.146 496.535 249.256 480.085 236.146C476.205 232.596 478.075 229.636 479.095 229.926Z" fill="#D8D8D8"/>
<path d="M424.095 235.366C440.655 232.146 444.875 205.186 444.875 205.186C444.875 205.186 455.095 191.256 453.655 185.706C453.655 185.706 439.655 195.266 433.765 195.266C433.765 195.266 414.265 182.696 384.905 182.696C359.715 182.696 350.765 200.156 350.765 200.156C350.765 200.156 350.985 209.036 367.325 209.036C367.325 209.036 380.345 201.406 400.775 201.406C413.275 201.406 424.375 217.106 424.375 217.106C424.375 217.106 421.905 219.426 419.275 219.116C419.275 219.116 410.265 237.706 381.905 228.816C381.905 228.816 387.835 234.706 399.965 234.706C412.095 234.706 420.845 225.026 420.845 225.026L423.835 224.196C423.835 224.196 425.235 223.706 426.275 219.046L430.645 218.376C430.645 218.366 432.755 229.476 424.095 235.366Z" fill="#D8D8D8"/>
<path d="M417.895 280.256C417.895 284.396 421.505 284.476 424.765 283.646C428.025 282.816 428.985 280.666 439.285 280.666C449.585 280.666 447.435 285.206 456.695 286.116C465.955 287.036 473.315 281.516 474.115 279.086C474.115 279.086 473.995 285.476 467.235 288.586C460.465 291.696 473.375 292.836 475.955 290.156C478.545 287.476 478.505 282.286 478.505 282.286C478.505 282.286 479.875 285.176 479.875 289.326C479.875 293.476 472.465 302.516 462.465 305.026C457.205 306.586 459.795 315.246 448.885 315.246C438.175 315.246 443.285 309.986 433.285 305.316C429.285 303.536 423.065 299.616 422.095 291.356C422.095 291.366 417.685 288.596 417.895 280.256Z" fill="#D8D8D8"/>
<path d="M408.915 336.116C409.725 332.816 430.095 320.446 438.985 320.446C447.875 320.446 444.465 325.556 451.795 325.556C459.125 325.556 461.275 323.116 465.495 323.116C469.715 323.116 473.565 325.856 474.975 329.266C476.385 332.676 479.045 336.076 480.165 337.266C481.285 338.456 481.255 341.516 481.255 341.516C481.255 341.516 471.045 334.126 465.415 334.126C459.795 334.126 453.815 335.986 448.875 335.986C443.935 335.986 436.905 331.046 430.095 331.046C423.285 331.046 417.575 332.696 415.165 334.236C412.765 335.776 408.915 336.116 408.915 336.116Z" fill="#D8D8D8"/>
<path d="M424.315 343.476C421.505 344.146 419.355 346.366 420.905 349.696C422.465 353.026 426.385 355.396 425.945 360.656C425.945 360.656 418.015 365.766 410.835 366.286C407.985 366.786 406.435 368.976 406.045 369.596C405.975 369.706 405.945 369.766 405.945 369.766C405.945 369.766 405.945 371.246 411.875 369.766C417.805 368.286 430.245 363.176 438.465 363.176C446.685 363.176 462.615 372.956 462.615 372.956C462.615 372.956 467.725 373.176 464.615 369.106C461.505 365.036 457.135 361.256 453.055 361.256C453.055 361.256 464.985 357.326 467.275 348.066C467.275 348.066 452.825 350.016 444.595 348.706C436.375 347.396 424.315 343.476 424.315 343.476Z" fill="#D8D8D8"/>
<path d="M320.015 194.966C314.755 214.586 303.865 262.646 340.315 297.166C340.315 297.166 342.875 305.246 338.315 304.356C333.755 303.466 315.315 288.136 313.645 277.246C313.645 277.246 309.425 294.356 320.085 333.246C330.755 372.136 355.195 403.246 430.755 405.686C458.755 405.686 470.085 394.796 470.085 394.796C470.085 394.796 459.645 408.796 454.755 409.356C454.755 409.356 481.095 408.036 497.765 395.586C497.765 395.586 485.905 405.696 478.385 409.916C478.385 409.916 437.285 444.356 408.915 457.696C408.915 457.696 376.825 506.576 375.135 523.476C375.135 523.476 376.845 512.946 355.075 488.086C333.305 463.236 303.715 437.096 303.715 394.246C303.715 351.396 302.695 291.106 302.695 291.106C302.695 291.106 305.985 248.666 311.075 230.556C313.805 217.336 311.255 215.006 314.085 206.546C316.915 198.086 320.015 194.966 320.015 194.966Z" fill="#D8D8D8"/>
<path d="M462.095 499.406L451.425 516.296C451.425 516.296 457.795 519.996 465.945 507.856C474.095 495.706 481.645 479.046 481.645 479.046L477.305 532.606C477.305 532.606 483.425 515.646 484.605 505.826C485.795 496.016 491.715 481.046 491.715 481.046C491.715 481.046 499.415 483.566 499.865 493.936C499.865 493.936 501.775 467.866 492.525 447.126C489.945 440.456 493.795 438.456 496.165 438.456C498.535 438.456 530.535 474.066 534.385 481.786C534.385 481.786 513.255 445.266 500.785 434.196C488.315 423.126 487.565 419.026 487.565 419.026C487.565 419.026 474.165 468.506 473.385 473.366C472.615 478.226 462.095 499.406 462.095 499.406Z" fill="#D8D8D8"/>
<path d="M355.505 566.706C361.095 582.816 370.545 605.486 385.095 614.926C399.655 624.366 435.875 648.366 445.315 670.486C445.315 670.486 442.095 649.486 419.425 632.486C396.755 615.486 381.535 608.816 373.645 591.486C365.755 574.156 359.425 563.816 359.425 563.816C359.425 563.816 354.575 564.076 355.505 566.706Z" fill="#D8D8D8"/>
<path d="M219.645 558.366C219.645 558.366 259.425 619.036 259.205 677.696C259.205 677.696 264.535 594.136 224.765 555.916L219.645 558.366Z" fill="#D8D8D8"/>
<path d="M470.395 449.796C463.585 474.366 435.725 510.286 412.025 517.586C412.025 517.586 409.955 515.396 412.025 513.176C414.095 510.966 452.615 491.456 470.395 449.796Z" fill="#D8D8D8"/>
<path d="M389.205 560.756C389.205 563.536 399.135 568.066 413.355 568.066C427.575 568.066 446.165 562.736 460.245 562.736C460.245 562.736 453.615 560.256 440.745 560.256C427.875 560.256 410.905 563.816 402.765 563.816C394.615 563.816 389.205 560.756 389.205 560.756Z" fill="#D8D8D8"/>
<path d="M593.945 556.146C593.945 561.336 623.425 599.256 617.205 664.146C617.205 664.146 619.425 652.146 619.425 620.706C619.425 589.266 597.985 556.926 596.865 555.706C595.765 554.476 593.945 552.926 593.945 556.146Z" fill="#D8D8D8"/>
<path d="M650.585 551.406C649.065 556.366 666.115 601.276 641.125 661.476C641.125 661.476 646.775 650.656 656.005 620.596C665.235 590.536 654.225 553.336 653.525 551.836C652.825 550.336 651.525 548.326 650.585 551.406Z" fill="#D8D8D8"/>
<path d="M604.095 523.476C604.095 529.036 632.985 581.696 632.535 679.696C632.535 679.696 646.605 607.256 606.685 520.366C605.535 517.646 604.095 520.476 604.095 523.476Z" fill="#D8D8D8"/>
<path d="M274.985 252.706C274.985 252.706 273.945 250.596 273.945 244.816C273.945 239.036 279.205 225.486 284.875 225.486C290.545 225.486 293.985 233.486 293.985 237.706C293.985 241.926 283.545 241.266 279.875 245.596C276.205 249.926 274.985 252.706 274.985 252.706Z" fill="#D8D8D8"/>
<path d="M268.205 223.826C268.205 223.826 267.095 210.116 270.645 205.186C274.195 200.256 279.645 208.536 279.645 208.536C279.645 208.536 278.755 199.256 272.085 199.256C265.425 199.256 262.205 215.396 268.205 223.826Z" fill="#D8D8D8"/>
<path d="M542.985 232.146C542.985 220.296 541.505 218.516 541.505 195.706C541.505 172.896 545.355 173.776 545.355 152.746C545.355 131.716 534.985 93.4764 518.685 78.6664" stroke="black" stroke-width="1.5" stroke-miterlimit="10" stroke-linecap="round"/>
<path d="M503.875 62.6664C467.135 62.6664 439.285 118.666 368.765 118.666C339.725 118.666 327.875 109.186 327.875 109.186" stroke="black" stroke-width="1.5" stroke-miterlimit="10" stroke-linecap="round"/>
<path d="M329.355 135.556C329.355 194.226 312.765 200.446 312.765 212.596C312.765 224.746 310.695 232.156 310.695 232.156" stroke="black" stroke-width="1.5" stroke-miterlimit="10" stroke-linecap="round"/>
<path d="M302.685 291.106C307.295 337.806 304.755 356.586 335.575 380.886" stroke="black" stroke-width="1.5" stroke-miterlimit="10" stroke-linecap="round"/>
<path d="M367.275 394.816C383.275 405.776 426.535 416.746 448.465 412.596" stroke="black" stroke-width="1.5" stroke-miterlimit="10" stroke-linecap="round"/>
<path d="M478.395 409.926C478.395 409.926 496.765 400.446 510.695 380.886C524.625 361.326 530.545 317.476 530.545 317.476" stroke="black" stroke-width="1.5" stroke-miterlimit="10" stroke-linecap="round"/>
<path d="M532.015 305.036C532.015 305.036 542.995 268.906 542.975 249.626" stroke="black" stroke-width="1.5" stroke-miterlimit="10" stroke-linecap="round"/>
<path d="M396.315 337.036C419.425 337.036 413.425 331.036 430.095 331.036C439.425 331.036 440.765 335.996 449.875 335.996C456.315 335.996 457.655 334.036 463.875 334.036C473.435 334.036 479.875 343.476 488.315 343.476" stroke="black" stroke-width="1.5" stroke-miterlimit="10" stroke-linecap="round"/>
<path d="M424.315 343.476C424.315 343.476 440.985 351.806 463.425 348.146" stroke="black" stroke-width="1.5" stroke-miterlimit="10" stroke-linecap="round"/>
<path d="M458.095 294.366C461.425 291.256 470.205 288.926 473.205 281.586C475.765 275.916 473.875 272.916 473.875 272.916" stroke="black" stroke-width="1.5" stroke-miterlimit="10" stroke-linecap="round"/>
<path d="M470.985 292.816C470.985 292.816 479.575 292.036 478.395 280.256" stroke="black" stroke-width="1.5" stroke-miterlimit="10" stroke-linecap="round"/>
<path d="M422.095 291.366C422.095 291.036 417.875 289.146 417.875 281.036C417.875 272.926 424.435 266.816 424.435 266.816" stroke="black" stroke-width="1.5" stroke-miterlimit="10" stroke-linecap="round"/>
<path d="M431.985 286.536C431.985 286.536 431.765 283.646 437.425 283.646C443.095 283.646 449.985 288.586 449.985 288.586" stroke="black" stroke-width="1.5" stroke-miterlimit="10" stroke-linecap="round"/>
<path d="M449.425 306.146C449.425 306.146 445.645 310.816 445.645 314.256C445.645 317.696 447.535 318.146 447.535 318.146" stroke="black" stroke-width="1.5" stroke-miterlimit="10" stroke-linecap="round"/>
<path d="M492.535 400.196C492.535 400.196 476.325 461.486 474.545 469.486C472.765 477.486 462.105 499.416 462.105 499.416" stroke="black" stroke-width="1.5" stroke-miterlimit="10" stroke-linecap="round"/>
<path d="M379.275 543.106C379.275 543.106 393.945 550.516 416.165 550.516C438.385 550.516 441.355 543.106 469.495 543.106" stroke="black" stroke-width="1.5" stroke-miterlimit="10" stroke-linecap="round"/>
<path d="M481.645 479.036C481.645 509.476 470.975 565.036 471.645 583.926C472.315 602.816 469.495 628.816 469.495 628.816" stroke="black" stroke-width="1.5" stroke-miterlimit="10" stroke-linecap="round"/>
<path d="M374.535 546.816C389.285 580.516 430.535 594.146 462.095 659.926" stroke="black" stroke-width="1.5" stroke-miterlimit="10" stroke-linecap="round"/>
<path d="M477.645 661.476C464.975 620.366 532.535 562.586 516.315 544.586" stroke="black" stroke-width="1.5" stroke-miterlimit="10" stroke-linecap="round"/>
<path d="M511.205 541.256C511.205 541.256 530.315 520.146 530.315 509.036C530.315 497.926 524.535 493.926 524.535 493.926" stroke="black" stroke-width="1.5" stroke-miterlimit="10" stroke-linecap="round"/>
<path d="M539.645 527.706C539.645 527.706 547.425 518.816 547.425 514.596C547.425 510.376 537.205 481.036 517.205 454.376C497.205 427.706 491.485 426.336 487.565 419.026" stroke="black" stroke-width="1.5" stroke-miterlimit="10" stroke-linecap="round"/>
<path d="M679.425 541.256C679.425 541.256 668.755 500.586 617.205 485.696C565.655 470.806 563.785 480.296 522.495 461.796" stroke="black" stroke-width="1.5" stroke-miterlimit="10" stroke-linecap="round"/>
<path d="M300.315 391.256C300.315 391.256 296.755 419.996 328.755 457.926C360.755 495.856 381.795 511.116 373.195 541.256" stroke="black" stroke-width="1.5" stroke-miterlimit="10" stroke-linecap="round"/>
<path d="M368.765 536.446C361.505 514.376 366.395 505.926 342.245 496.146" stroke="black" stroke-width="1.5" stroke-miterlimit="10" stroke-linecap="round"/>
<path d="M332.315 500.296C314.245 500.296 291.425 538.666 284.165 538.666C276.905 538.666 277.495 530.666 276.165 525.626C274.835 520.586 263.425 479.256 264.315 447.406" stroke="black" stroke-width="1.5" stroke-miterlimit="10" stroke-linecap="round"/>
<path d="M303.575 380.886C294.245 380.886 273.505 425.036 268.315 437.476" stroke="black" stroke-width="1.5" stroke-miterlimit="10" stroke-linecap="round"/>
<path d="M261.055 442.666C250.755 459.476 153.795 474.966 89.6452 536.446C67.2652 559.076 58.9852 585.926 58.9852 585.926" stroke="black" stroke-width="1.5" stroke-miterlimit="10" stroke-linecap="round"/>
<path d="M551.425 249.626C551.425 249.626 564.015 187.406 564.015 148.586C564.015 109.766 547.135 51.9964 518.685 42.8164" stroke="black" stroke-width="1.5" stroke-miterlimit="10" stroke-linecap="round"/>
<path d="M511.275 34.8164C511.275 34.8164 492.015 1.03638 423.865 1.03638C355.715 1.03638 268.905 71.8464 268.905 123.406C268.905 163.476 270.755 176.596 270.535 186.146" stroke="black" stroke-width="1.5" stroke-miterlimit="10" stroke-linecap="round"/>
<path d="M284.985 296.596C284.985 296.596 292.545 319.706 296.985 326.376" stroke="black" stroke-width="1.5" stroke-miterlimit="10" stroke-linecap="round"/>
<path d="M305.425 403.036C305.425 403.036 303.575 399.406 303.575 390.146C303.575 380.886 304.965 312.816 300.195 296.586" stroke="black" stroke-width="1.5" stroke-miterlimit="10" stroke-linecap="round"/>
<path d="M296.985 295.476C296.985 295.476 277.655 289.916 274.315 275.476C270.985 261.036 266.985 257.036 264.755 249.256C262.535 241.476 258.385 192.586 268.905 189.696C279.425 186.806 301.205 206.806 301.205 233.916" stroke="black" stroke-width="1.5" stroke-miterlimit="10" stroke-linecap="round"/>
<path d="M296.985 237.706C296.985 241.706 290.985 241.926 290.985 253.266C290.985 264.596 296.985 261.706 296.985 267.706" stroke="black" stroke-width="1.5" stroke-miterlimit="10" stroke-linecap="round"/>
<path d="M288.985 232.146C288.985 232.146 287.655 212.146 274.985 204.816" stroke="black" stroke-width="1.5" stroke-miterlimit="10" stroke-linecap="round"/>
<path d="M278.985 218.476C278.985 218.476 268.915 225.476 268.915 237.696" stroke="black" stroke-width="1.5" stroke-miterlimit="10" stroke-linecap="round"/>
<path d="M473.535 202.146C467.755 215.146 471.095 239.256 469.205 253.256" stroke="black" stroke-width="1.5" stroke-miterlimit="10" stroke-linecap="round"/>
<path d="M481.985 227.706C477.655 227.706 476.315 225.706 476.315 225.036C476.315 224.366 486.535 212.926 498.535 212.926" stroke="black" stroke-width="1.5" stroke-miterlimit="10" stroke-linecap="round"/>
<path d="M520.875 229.366C522.095 229.366 523.545 228.926 523.545 227.696C523.545 226.476 514.545 212.586 487.435 211.256" stroke="black" stroke-width="1.5" stroke-miterlimit="10" stroke-linecap="round"/>
<path d="M493.505 233.336C493.505 233.336 503.285 235.706 511.285 234.226" stroke="black" stroke-width="1.5" stroke-miterlimit="10" stroke-linecap="round"/>
<path d="M374.425 209.036C374.425 209.036 379.535 218.816 388.755 220.316" stroke="black" stroke-width="1.5" stroke-miterlimit="10" stroke-linecap="round"/>
<path d="M367.315 209.036C367.315 209.036 387.755 198.366 410.985 202.146" stroke="black" stroke-width="1.5" stroke-miterlimit="10" stroke-linecap="round"/>
<path d="M415.985 219.476C415.985 219.476 421.205 219.586 423.545 218.146C425.885 216.706 414.325 202.856 400.215 201.336" stroke="black" stroke-width="1.5" stroke-miterlimit="10" stroke-linecap="round"/>
<path d="M394.535 223.366C394.535 223.366 406.865 225.146 410.315 221.696" stroke="black" stroke-width="1.5" stroke-miterlimit="10" stroke-linecap="round"/>
<path d="M420.405 212.056C422.335 214.366 421.225 219.096 418.325 219.396" stroke="black" stroke-width="1.5" stroke-miterlimit="10" stroke-linecap="round"/>
<path d="M389.195 216.726C389.265 216.266 389.685 216.056 389.985 215.746C387.915 213.936 386.405 211.116 386.405 208.166C386.405 206.206 386.985 204.386 387.975 202.846C387.605 202.966 387.225 203.066 386.865 203.196C386.555 203.306 386.265 203.346 385.995 203.356C385.305 204.816 384.915 206.446 384.915 208.166C384.915 211.746 386.585 214.936 389.175 217.026C389.175 216.916 389.185 216.826 389.195 216.726Z" fill="black"/>
<path d="M403.165 215.186C403.545 215.516 403.925 215.846 404.315 216.156C406.355 214.106 407.615 211.276 407.615 208.166C407.615 205.936 406.965 203.866 405.855 202.116C405.025 201.866 404.205 201.596 403.375 201.356C405.075 203.126 406.125 205.526 406.125 208.166C406.115 210.906 404.985 213.396 403.165 215.186Z" fill="black"/>
<path d="M396.255 213.706C399.315 213.706 401.795 211.226 401.795 208.166C401.795 205.107 399.315 202.626 396.255 202.626C393.195 202.626 390.715 205.107 390.715 208.166C390.715 211.226 393.195 213.706 396.255 213.706Z" fill="black"/>
<path d="M385.645 208.536C385.645 208.536 402.095 207.206 407.145 207.706C407.145 207.706 406.155 203.056 405.145 202.376C404.145 201.706 398.755 201.336 398.755 201.336L387.475 202.616C387.485 202.616 385.645 204.256 385.645 208.536Z" fill="black"/>
<path d="M396.255 208.166L402.425 212.866" stroke="black" stroke-width="1.5" stroke-miterlimit="10" stroke-linecap="round"/>
<path d="M490.505 228.596C490.545 228.116 490.685 227.666 490.895 227.266C488.575 225.456 487.075 222.646 487.075 219.486C487.075 218.326 487.285 217.216 487.655 216.186C487.515 216.256 487.385 216.326 487.245 216.396C486.795 216.626 486.355 216.726 485.925 216.726C485.705 217.616 485.575 218.536 485.575 219.486C485.575 223.356 487.525 226.766 490.485 228.826C490.475 228.746 490.495 228.666 490.505 228.596Z" fill="black"/>
<path d="M503.095 227.166C503.295 227.436 503.465 227.736 503.585 228.056C503.595 228.076 503.705 228.336 503.735 228.416C503.755 228.446 503.765 228.476 503.775 228.486C503.775 228.496 503.785 228.506 503.785 228.506C506.515 226.426 508.285 223.156 508.285 219.476C508.285 218.226 508.075 217.036 507.705 215.916C507.055 215.696 506.425 215.456 505.795 215.206C506.425 216.496 506.785 217.946 506.785 219.476C506.785 222.586 505.345 225.356 503.095 227.166Z" fill="black"/>
<path d="M496.925 225.026C499.985 225.026 502.465 222.546 502.465 219.486C502.465 216.427 499.985 213.946 496.925 213.946C493.866 213.946 491.385 216.427 491.385 219.486C491.385 222.546 493.866 225.026 496.925 225.026Z" fill="black"/>
<path d="M503.285 214.006C502.585 213.876 502.055 213.426 501.705 212.866C500.465 212.736 499.435 212.666 499.435 212.666L491.905 213.526C491.865 213.536 491.835 213.556 491.805 213.576C492.015 213.496 491.505 213.716 491.445 213.746C491.255 213.846 491.075 213.946 490.885 214.046C490.525 214.256 490.165 214.496 489.795 214.686C489.445 214.856 489.075 215.006 488.715 215.156C488.665 215.176 488.585 215.216 488.535 215.236C488.205 215.396 487.895 215.576 487.595 215.796C487.385 215.956 487.145 216.046 486.905 216.116C486.585 217.036 486.325 218.266 486.325 219.876C486.325 219.876 502.775 218.546 507.825 219.046C507.825 219.046 507.215 216.206 506.475 214.636C505.405 214.386 504.345 214.206 503.285 214.006Z" fill="black"/>
<path d="M496.925 219.486L503.095 224.186" stroke="black" stroke-width="1.5" stroke-miterlimit="10" stroke-linecap="round"/>
<path d="M389.545 217.106C389.959 217.106 390.295 216.771 390.295 216.356C390.295 215.942 389.959 215.606 389.545 215.606C389.131 215.606 388.795 215.942 388.795 216.356C388.795 216.771 389.131 217.106 389.545 217.106Z" fill="black"/>
<path d="M403.695 216.476C404.109 216.476 404.445 216.141 404.445 215.726C404.445 215.312 404.109 214.976 403.695 214.976C403.281 214.976 402.945 215.312 402.945 215.726C402.945 216.141 403.281 216.476 403.695 216.476Z" fill="black"/>
<path d="M490.805 228.876C491.219 228.876 491.555 228.541 491.555 228.126C491.555 227.712 491.219 227.376 490.805 227.376C490.391 227.376 490.055 227.712 490.055 228.126C490.055 228.541 490.391 228.876 490.805 228.876Z" fill="black"/>
<path d="M503.435 228.596C503.849 228.596 504.185 228.261 504.185 227.846C504.185 227.432 503.849 227.096 503.435 227.096C503.021 227.096 502.685 227.432 502.685 227.846C502.685 228.261 503.021 228.596 503.435 228.596Z" fill="black"/>
<path d="M490.875 227.256C491.085 227.406 491.215 227.506 491.215 227.506L491.095 227.826L490.495 227.956C490.495 227.956 490.295 227.466 490.325 227.446C490.365 227.426 490.875 227.256 490.875 227.256Z" fill="black"/>
<path d="M355.425 192.346L356.455 189.146" stroke="black" stroke-width="0.75" stroke-miterlimit="10" stroke-linecap="round" stroke-linejoin="round"/>
<path d="M357.745 190.046L360.745 185.666" stroke="black" stroke-width="0.75" stroke-miterlimit="10" stroke-linecap="round" stroke-linejoin="round"/>
<path d="M363.935 186.696L367.885 182.376" stroke="black" stroke-width="0.75" stroke-miterlimit="10" stroke-linecap="round" stroke-linejoin="round"/>
<path d="M366.495 186.676L376.445 179.226" stroke="black" stroke-width="0.75" stroke-miterlimit="10" stroke-linecap="round" stroke-linejoin="round"/>
<path d="M371.015 184.366L378.205 179.796" stroke="black" stroke-width="0.75" stroke-miterlimit="10" stroke-linecap="round" stroke-linejoin="round"/>
<path d="M378.025 182.616L385.775 178.186" stroke="black" stroke-width="0.75" stroke-miterlimit="10" stroke-linecap="round" stroke-linejoin="round"/>
<path d="M381.385 181.996L394.205 179.196" stroke="black" stroke-width="0.75" stroke-miterlimit="10" stroke-linecap="round" stroke-linejoin="round"/>
<path d="M386.115 185.796L398.865 181.316C398.865 181.316 385.635 183.496 385.345 183.276" stroke="black" stroke-width="0.75" stroke-miterlimit="10" stroke-linecap="round" stroke-linejoin="round"/>
<path d="M389.315 186.826L400.265 181.156" stroke="black" stroke-width="0.75" stroke-miterlimit="10" stroke-linecap="round" stroke-linejoin="round"/>
<path d="M392.235 187.196L402.315 181.326" stroke="black" stroke-width="0.75" stroke-miterlimit="10" stroke-linecap="round" stroke-linejoin="round"/>
<path d="M409.225 181.126L395.835 184.326" stroke="black" stroke-width="0.75" stroke-miterlimit="10" stroke-linecap="round" stroke-linejoin="round"/>
<path d="M393.935 188.316C394.395 188.386 403.485 181.706 403.485 181.706" stroke="black" stroke-width="0.75" stroke-miterlimit="10" stroke-linecap="round" stroke-linejoin="round"/>
<path d="M396.365 189.096L406.945 182.306" stroke="black" stroke-width="0.75" stroke-miterlimit="10" stroke-linecap="round" stroke-linejoin="round"/>
<path d="M409.575 183.156L392.015 185.426" stroke="black" stroke-width="0.75" stroke-miterlimit="10" stroke-linecap="round" stroke-linejoin="round"/>
<path d="M401.315 188.426L408.875 182.236" stroke="black" stroke-width="0.75" stroke-miterlimit="10" stroke-linecap="round" stroke-linejoin="round"/>
<path d="M411.225 182.986L400.435 191.186" stroke="black" stroke-width="0.75" stroke-miterlimit="10" stroke-linecap="round" stroke-linejoin="round"/>
<path d="M404.615 192.536L413.205 183.626" stroke="black" stroke-width="0.75" stroke-miterlimit="10" stroke-linecap="round" stroke-linejoin="round"/>
<path d="M419.635 184.486L399.485 186.076" stroke="black" stroke-width="0.75" stroke-miterlimit="10" stroke-linecap="round" stroke-linejoin="round"/>
<path d="M404.445 190.046L412.155 183.296" stroke="black" stroke-width="0.75" stroke-miterlimit="10" stroke-linecap="round" stroke-linejoin="round"/>
<path d="M426.275 184.196L419.165 194.186" stroke="black" stroke-width="0.75" stroke-miterlimit="10" stroke-linecap="round" stroke-linejoin="round"/>
<path d="M422.035 193.936L425.005 184.766" stroke="black" stroke-width="0.75" stroke-miterlimit="10" stroke-linecap="round" stroke-linejoin="round"/>
<path d="M424.205 192.956L423.985 185.286" stroke="black" stroke-width="0.75" stroke-miterlimit="10" stroke-linecap="round" stroke-linejoin="round"/>
<path d="M417.275 191.816L419.275 182.916" stroke="black" stroke-width="0.75" stroke-miterlimit="10" stroke-linecap="round" stroke-linejoin="round"/>
<path d="M422.215 184.716L412.515 190.866" stroke="black" stroke-width="0.75" stroke-miterlimit="10" stroke-linecap="round" stroke-linejoin="round"/>
<path d="M409.135 192.656L417.405 182.306" stroke="black" stroke-width="0.75" stroke-miterlimit="10" stroke-linecap="round" stroke-linejoin="round"/>
<path d="M408.695 190.806L421.475 183.626" stroke="black" stroke-width="0.75" stroke-miterlimit="10" stroke-linecap="round" stroke-linejoin="round"/>
<path d="M411.195 191.616L414.075 182.696" stroke="black" stroke-width="0.75" stroke-miterlimit="10" stroke-linecap="round" stroke-linejoin="round"/>
<path d="M399.965 188.596L423.015 184.126" stroke="black" stroke-width="0.75" stroke-miterlimit="10" stroke-linecap="round" stroke-linejoin="round"/>
<path d="M403.335 190.786L422.445 185.886" stroke="black" stroke-width="0.75" stroke-miterlimit="10" stroke-linecap="round" stroke-linejoin="round"/>
<path d="M415.565 191.266L424.375 184.076" stroke="black" stroke-width="0.75" stroke-miterlimit="10" stroke-linecap="round" stroke-linejoin="round"/>
<path d="M418.825 191.216L422.755 183.066" stroke="black" stroke-width="0.75" stroke-miterlimit="10" stroke-linecap="round" stroke-linejoin="round"/>
<path d="M421.075 192.776L420.845 182.936" stroke="black" stroke-width="0.75" stroke-miterlimit="10" stroke-linecap="round" stroke-linejoin="round"/>
<path d="M423.005 186.796L418.515 192.806" stroke="black" stroke-width="0.75" stroke-miterlimit="10" stroke-linecap="round" stroke-linejoin="round"/>
<path d="M533.975 202.256L527.845 195.766" stroke="black" stroke-width="0.75" stroke-miterlimit="10" stroke-linecap="round" stroke-linejoin="round"/>
<path d="M530.945 200.686L519.485 194.296" stroke="black" stroke-width="0.75" stroke-miterlimit="10" stroke-linecap="round" stroke-linejoin="round"/>
<path d="M525.315 202.956L514.405 194.976C514.405 194.976 526.435 200.896 526.775 200.766" stroke="black" stroke-width="0.75" stroke-miterlimit="10" stroke-linecap="round" stroke-linejoin="round"/>
<path d="M521.955 203.016L513.115 194.416" stroke="black" stroke-width="0.75" stroke-miterlimit="10" stroke-linecap="round" stroke-linejoin="round"/>
<path d="M519.055 202.526L511.105 193.986" stroke="black" stroke-width="0.75" stroke-miterlimit="10" stroke-linecap="round" stroke-linejoin="round"/>
<path d="M504.545 191.796L516.435 198.736" stroke="black" stroke-width="0.75" stroke-miterlimit="10" stroke-linecap="round" stroke-linejoin="round"/>
<path d="M517.095 203.106C516.635 203.036 509.865 194.016 509.865 194.016" stroke="black" stroke-width="0.75" stroke-miterlimit="10" stroke-linecap="round" stroke-linejoin="round"/>
<path d="M514.545 203.146L506.395 193.586" stroke="black" stroke-width="0.75" stroke-miterlimit="10" stroke-linecap="round" stroke-linejoin="round"/>
<path d="M503.625 193.636L519.775 200.896" stroke="black" stroke-width="0.75" stroke-miterlimit="10" stroke-linecap="round" stroke-linejoin="round"/>
<path d="M509.995 201.066L504.565 192.946" stroke="black" stroke-width="0.75" stroke-miterlimit="10" stroke-linecap="round" stroke-linejoin="round"/>
<path d="M502.095 192.996L510.055 203.966" stroke="black" stroke-width="0.75" stroke-miterlimit="10" stroke-linecap="round" stroke-linejoin="round"/>
<path d="M505.655 204.046L500.015 193.036" stroke="black" stroke-width="0.75" stroke-miterlimit="10" stroke-linecap="round" stroke-linejoin="round"/>
<path d="M493.605 191.986L512.435 199.346" stroke="black" stroke-width="0.75" stroke-miterlimit="10" stroke-linecap="round" stroke-linejoin="round"/>
<path d="M506.535 201.706L501.115 193.016" stroke="black" stroke-width="0.75" stroke-miterlimit="10" stroke-linecap="round" stroke-linejoin="round"/>
<path d="M487.335 189.786L491.255 201.406" stroke="black" stroke-width="0.75" stroke-miterlimit="10" stroke-linecap="round" stroke-linejoin="round"/>
<path d="M488.575 200.336L488.395 190.696" stroke="black" stroke-width="0.75" stroke-miterlimit="10" stroke-linecap="round" stroke-linejoin="round"/>
<path d="M486.785 198.766L489.225 191.496" stroke="black" stroke-width="0.75" stroke-miterlimit="10" stroke-linecap="round" stroke-linejoin="round"/>
<path d="M493.745 199.686L494.415 190.586" stroke="black" stroke-width="0.75" stroke-miterlimit="10" stroke-linecap="round" stroke-linejoin="round"/>
<path d="M491.075 191.456L498.575 200.156" stroke="black" stroke-width="0.75" stroke-miterlimit="10" stroke-linecap="round" stroke-linejoin="round"/>
<path d="M501.295 202.846L496.385 190.556" stroke="black" stroke-width="0.75" stroke-miterlimit="10" stroke-linecap="round" stroke-linejoin="round"/>
<path d="M502.245 201.206L492.095 190.626" stroke="black" stroke-width="0.75" stroke-miterlimit="10" stroke-linecap="round" stroke-linejoin="round"/>
<path d="M499.615 201.256L499.445 191.886" stroke="black" stroke-width="0.75" stroke-miterlimit="10" stroke-linecap="round" stroke-linejoin="round"/>
<path d="M511.245 201.626L490.475 190.656" stroke="black" stroke-width="0.75" stroke-miterlimit="10" stroke-linecap="round" stroke-linejoin="round"/>
<path d="M507.385 202.736L490.515 192.506" stroke="black" stroke-width="0.75" stroke-miterlimit="10" stroke-linecap="round" stroke-linejoin="round"/>
<path d="M495.535 199.656L489.195 190.216" stroke="black" stroke-width="0.75" stroke-miterlimit="10" stroke-linecap="round" stroke-linejoin="round"/>
<path d="M492.435 198.666L491.045 189.726" stroke="black" stroke-width="0.75" stroke-miterlimit="10" stroke-linecap="round" stroke-linejoin="round"/>
<path d="M489.825 199.506L492.905 190.156" stroke="black" stroke-width="0.75" stroke-miterlimit="10" stroke-linecap="round" stroke-linejoin="round"/>
<path d="M489.715 193.216L492.275 200.276" stroke="black" stroke-width="0.75" stroke-miterlimit="10" stroke-linecap="round" stroke-linejoin="round"/>
<path d="M502.835 38.6564C502.835 38.6564 503.575 36.1564 488.315 36.1564C473.055 36.1564 459.875 49.9364 459.875 49.9364" stroke="#C4C4C4" stroke-width="0.75" stroke-miterlimit="10" stroke-linecap="round" stroke-linejoin="round"/>
<path d="M494.395 49.0364C494.395 49.0364 473.955 52.7364 459.875 66.6664C445.795 80.5964 414.545 89.6264 414.545 89.6264" stroke="#C4C4C4" stroke-width="0.75" stroke-miterlimit="10" stroke-linecap="round" stroke-linejoin="round"/>
<path d="M432.905 70.5164C432.905 70.5164 385.055 99.4064 354.095 89.6264" stroke="#C4C4C4" stroke-width="0.75" stroke-miterlimit="10" stroke-linecap="round" stroke-linejoin="round"/>
<path d="M322.985 89.6264C322.985 89.6264 350.245 104.886 376.765 99.5564" stroke="#C4C4C4" stroke-width="0.75" stroke-miterlimit="10" stroke-linecap="round" stroke-linejoin="round"/>
<path d="M309.205 73.1864C309.205 73.1864 334.985 83.7064 344.015 83.9964" stroke="#C4C4C4" stroke-width="0.75" stroke-miterlimit="10" stroke-linecap="round" stroke-linejoin="round"/>
<path d="M373.795 81.0864C373.795 81.0864 339.125 75.7064 333.495 72.2964" stroke="#C4C4C4" stroke-width="0.75" stroke-miterlimit="10" stroke-linecap="round" stroke-linejoin="round"/>
<path d="M336.165 62.6664C336.165 62.6664 372.605 81.0364 411.725 58.3664" stroke="#C4C4C4" stroke-width="0.75" stroke-miterlimit="10" stroke-linecap="round" stroke-linejoin="round"/>
<path d="M394.395 75.8464C394.395 75.8464 417.505 73.9864 423.435 64.0264" stroke="#C4C4C4" stroke-width="0.75" stroke-miterlimit="10" stroke-linecap="round" stroke-linejoin="round"/>
<path d="M434.245 51.8464C434.245 51.8464 451.435 26.0664 489.805 27.4064" stroke="#C4C4C4" stroke-width="0.75" stroke-miterlimit="10" stroke-linecap="round" stroke-linejoin="round"/>
<path d="M481.355 22.3664C481.355 22.3664 471.125 11.8464 453.505 12.7364" stroke="#C4C4C4" stroke-width="0.75" stroke-miterlimit="10" stroke-linecap="round" stroke-linejoin="round"/>
<path d="M440.315 13.3364C440.315 13.3364 421.205 9.63637 408.905 13.3364" stroke="#C4C4C4" stroke-width="0.75" stroke-miterlimit="10" stroke-linecap="round" stroke-linejoin="round"/>
<path d="M451.575 23.9964C451.575 23.9964 425.715 27.0264 405.205 47.6964" stroke="#C4C4C4" stroke-width="0.75" stroke-miterlimit="10" stroke-linecap="round" stroke-linejoin="round"/>
<path d="M338.835 53.1864C351.135 49.3364 375.575 61.4864 388.765 58.3764" stroke="#C4C4C4" stroke-width="0.75" stroke-miterlimit="10" stroke-linecap="round" stroke-linejoin="round"/>
<path d="M385.795 50.6664C362.535 50.6664 349.865 31.7064 321.945 51.8564" stroke="#C4C4C4" stroke-width="0.75" stroke-miterlimit="10" stroke-linecap="round" stroke-linejoin="round"/>
<path d="M356.905 34.3664C356.905 34.3664 373.345 12.1464 400.015 13.3264" stroke="#C4C4C4" stroke-width="0.75" stroke-miterlimit="10" stroke-linecap="round" stroke-linejoin="round"/>
<path d="M376.265 29.6264C376.265 29.6264 412.465 28.8864 428.395 18.3664" stroke="#C4C4C4" stroke-width="0.75" stroke-miterlimit="10" stroke-linecap="round" stroke-linejoin="round"/>
<path d="M373.945 39.6064C373.945 39.6064 401.795 41.0364 418.095 28.5964" stroke="#C4C4C4" stroke-width="0.75" stroke-miterlimit="10" stroke-linecap="round" stroke-linejoin="round"/>
<path d="M306.095 62.6664C306.095 62.6664 313.985 59.8164 327.095 65.2564" stroke="#C4C4C4" stroke-width="0.75" stroke-miterlimit="10" stroke-linecap="round" stroke-linejoin="round"/>
<path d="M298.095 85.2564C298.425 85.2564 308.795 98.1464 326.615 102.816" stroke="#C4C4C4" stroke-width="0.75" stroke-miterlimit="10" stroke-linecap="round" stroke-linejoin="round"/>
<path d="M310.685 104.926C310.685 104.926 318.165 119.816 310.685 150.596" stroke="#C4C4C4" stroke-width="0.75" stroke-miterlimit="10" stroke-linecap="round" stroke-linejoin="round"/>
<path d="M301.095 126.036C301.095 126.036 306.205 110.816 298.765 97.9264" stroke="#C4C4C4" stroke-width="0.75" stroke-miterlimit="10" stroke-linecap="round" stroke-linejoin="round"/>
<path d="M291.765 92.9264C291.765 92.9264 276.655 101.816 276.985 123.366" stroke="#C4C4C4" stroke-width="0.75" stroke-miterlimit="10" stroke-linecap="round" stroke-linejoin="round"/>
<path d="M285.535 114.036C285.535 114.036 287.545 138.276 278.755 154.036" stroke="#C4C4C4" stroke-width="0.75" stroke-miterlimit="10" stroke-linecap="round" stroke-linejoin="round"/>
<path d="M292.985 118.666C292.985 118.666 299.315 129.366 293.875 151.366" stroke="#C4C4C4" stroke-width="0.75" stroke-miterlimit="10" stroke-linecap="round" stroke-linejoin="round"/>
<path d="M300.785 150.036C300.785 150.036 297.655 171.596 292.985 176.256" stroke="#C4C4C4" stroke-width="0.75" stroke-miterlimit="10" stroke-linecap="round" stroke-linejoin="round"/>
<path d="M320.765 149.036C320.765 149.036 317.505 174.086 310.695 180.396" stroke="#C4C4C4" stroke-width="0.75" stroke-miterlimit="10" stroke-linecap="round" stroke-linejoin="round"/>
<path d="M305.315 172.366C305.315 172.366 296.425 185.696 301.645 208.536" stroke="#C4C4C4" stroke-width="0.75" stroke-miterlimit="10" stroke-linecap="round" stroke-linejoin="round"/>
<path d="M286.535 164.716C286.535 164.716 280.425 170.596 281.205 181.316" stroke="#C4C4C4" stroke-width="0.75" stroke-miterlimit="10" stroke-linecap="round" stroke-linejoin="round"/>
<path d="M518.685 67.4064C518.685 67.4064 535.125 82.0764 536.015 97.6264" stroke="#C4C4C4" stroke-width="0.75" stroke-miterlimit="10" stroke-linecap="round" stroke-linejoin="round"/>
<path d="M534.985 73.7764C534.985 73.7764 547.875 89.6264 549.795 114.966" stroke="#C4C4C4" stroke-width="0.75" stroke-miterlimit="10" stroke-linecap="round" stroke-linejoin="round"/>
<path d="M545.355 119.996C545.355 119.996 555.725 136.436 553.055 165.476" stroke="#C4C4C4" stroke-width="0.75" stroke-miterlimit="10" stroke-linecap="round" stroke-linejoin="round"/>
<path d="M549.795 165.476C549.795 165.476 550.385 187.906 546.985 195.806" stroke="#C4C4C4" stroke-width="0.75" stroke-miterlimit="10" stroke-linecap="round" stroke-linejoin="round"/>
<path d="M554.395 180.646C554.395 180.646 553.505 203.626 549.425 216.256" stroke="#C4C4C4" stroke-width="0.75" stroke-miterlimit="10" stroke-linecap="round" stroke-linejoin="round"/>
<path d="M513.875 51.8464C513.875 51.8464 532.765 54.4364 537.875 67.4064" stroke="#C4C4C4" stroke-width="0.75" stroke-miterlimit="10" stroke-linecap="round" stroke-linejoin="round"/>
</svg>
