<svg width="783" height="683" fill="none" xmlns="http://www.w3.org/2000/svg"><path d="M379.055 667.806c174.837 0 316.57-141.733 316.57-316.57 0-174.836-141.733-316.57-316.57-316.57S62.485 176.4 62.485 351.236c0 174.837 141.733 316.57 316.57 316.57z" fill="#F8B625"/><path d="M679.425 521.686c56.703 0 102.67-45.967 102.67-102.67s-45.967-102.67-102.67-102.67-102.67 45.967-102.67 102.67 45.967 102.67 102.67 102.67z" fill="#9280FA"/><path d="M90.765 315.256c49.584 0 89.78-40.195 89.78-89.78 0-49.584-40.196-89.78-89.78-89.78S.985 175.892.985 225.476c0 49.585 40.196 89.78 89.78 89.78z" fill="#DD2638"/><path d="M58.985 585.926c5.33-24.89 32.2-57.04 57.66-71.63 16.12-11.26 35.68-24.37 62.12-34.59 26.44-10.22 68.22-26.22 72-28.89 3.78-2.67 18.22-14.89 18.22-14.89s22.07-51.63 34.59-55.04v-43.63s-7.26-11.56-12.59-25.11c-5.33-13.56-9-24.79-9-24.79s-5.22-3.65-7-11.21c-1.78-7.56-8.67-22.11-10.33-28.44-1.67-6.33-5.82-48.28 2.81-57.25 1.08-1.19 2.52-.75 2.52-.75s.92-2.74.57-6.15c-.35-3.41-1.76-58.67-1.41-64.89.35-6.22 3.25-18.48 14.69-36.58 11.44-18.1 37.02-38.39 46.3-46.24 9.29-7.85 52.18-34.39 84.4-34.39 32.22 0 66.37-.87 96.74 33.35 2.81 3.67 4.7 7.33 4.7 7.33s6.84 1.09 11.91 5.56c5.07 4.46 14.84 12.94 23.8 36.03 8.96 23.09 10.85 45.08 10.85 45.08s3 9.78.56 37.56-6.36 53.31-6.35 53.49c.01.18-3.87 40.07-16.65 55.4 0 0-8.26 30-8.07 30.33.19.33-1.7 10.11-2.15 17.22-.44 7.11-8.96 40.59-16.07 53.78-7.11 13.19-20.89 23.6-20.89 23.6l-5.78 19.8s29.84 30.57 35.36 41.8c5.52 11.23 0 .68 0 .68s26.35 9.13 33.49 10.88c7.14 1.75 56.03 6.34 77.96 18.49 21.93 12.15 38.07 25.93 45.48 49.41 7.41 23.48 12.43 141.56-186.9 141.56s-433.54-.58-433.54-96.88z" fill="#fff"/><path d="M533.095 210.596s-16.02-11.63-32.23-11.63c-16.21 0-30.02 12.19-30.35 16.25-.33 4.06-.62 14.6-.62 14.6s15.09-16.82 27.04-16.82 24.04 8.34 26.55 15.13c0 0 7.25 4.7 8.55 6.58 0 0 2.91-18.56-28.4-26.12-.01.01 15.42-1.44 29.46 2.01z" fill="#D8D8D8"/><path d="M479.095 229.926c.33 0 12.25 4.1 20.35 4.41 0 0-3.09 9.81 7.83 11.81 0 0-10.74 3.11-27.19-10-3.88-3.55-2.01-6.51-.99-6.22zM424.095 235.366c16.56-3.22 20.78-30.18 20.78-30.18s10.22-13.93 8.78-19.48c0 0-14 9.56-19.89 9.56 0 0-19.5-12.57-48.86-12.57-25.19 0-34.14 17.46-34.14 17.46s.22 8.88 16.56 8.88c0 0 13.02-7.63 33.45-7.63 12.5 0 23.6 15.7 23.6 15.7s-2.47 2.32-5.1 2.01c0 0-9.01 18.59-37.37 9.7 0 0 5.93 5.89 18.06 5.89 12.13 0 20.88-9.68 20.88-9.68l2.99-.83s1.4-.49 2.44-5.15l4.37-.67c0-.01 2.11 11.1-6.55 16.99zM417.895 280.256c0 4.14 3.61 4.22 6.87 3.39 3.26-.83 4.22-2.98 14.52-2.98s8.15 4.54 17.41 5.45c9.26.92 16.62-4.6 17.42-7.03 0 0-.12 6.39-6.88 9.5-6.77 3.11 6.14 4.25 8.72 1.57 2.59-2.68 2.55-7.87 2.55-7.87s1.37 2.89 1.37 7.04-7.41 13.19-17.41 15.7c-5.26 1.56-2.67 10.22-13.58 10.22-10.71 0-5.6-5.26-15.6-9.93-4-1.78-10.22-5.7-11.19-13.96 0 .01-4.41-2.76-4.2-11.1zM408.915 336.116c.81-3.3 21.18-15.67 30.07-15.67s5.48 5.11 12.81 5.11 9.48-2.44 13.7-2.44c4.22 0 8.07 2.74 9.48 6.15 1.41 3.41 4.07 6.81 5.19 8 1.12 1.19 1.09 4.25 1.09 4.25s-10.21-7.39-15.84-7.39c-5.62 0-11.6 1.86-16.54 1.86-4.94 0-11.97-4.94-18.78-4.94-6.81 0-12.52 1.65-14.93 3.19-2.4 1.54-6.25 1.88-6.25 1.88zM424.315 343.476c-2.81.67-4.96 2.89-3.41 6.22 1.56 3.33 5.48 5.7 5.04 10.96 0 0-7.93 5.11-15.11 5.63-2.85.5-4.4 2.69-4.79 3.31-.07.11-.1.17-.1.17s0 1.48 5.93 0 18.37-6.59 26.59-6.59c8.22 0 24.15 9.78 24.15 9.78s5.11.22 2-3.85c-3.11-4.07-7.48-7.85-11.56-7.85 0 0 11.93-3.93 14.22-13.19 0 0-14.45 1.95-22.68.64-8.22-1.31-20.28-5.23-20.28-5.23z" fill="#D8D8D8"/><path d="M320.015 194.966c-5.26 19.62-16.15 67.68 20.3 102.2 0 0 2.56 8.08-2 7.19-4.56-.89-23-16.22-24.67-27.11 0 0-4.22 17.11 6.44 56 10.67 38.89 35.11 70 110.67 72.44 28 0 39.33-10.89 39.33-10.89s-10.44 14-15.33 14.56c0 0 26.34-1.32 43.01-13.77 0 0-11.86 10.11-19.38 14.33 0 0-41.1 34.44-69.47 47.78 0 0-32.09 48.88-33.78 65.78 0 0 1.71-10.53-20.06-35.39-21.77-24.85-51.36-50.99-51.36-93.84s-1.02-103.14-1.02-103.14 3.29-42.44 8.38-60.55c2.73-13.22.18-15.55 3.01-24.01 2.83-8.46 5.93-11.58 5.93-11.58zM462.095 499.406l-10.67 16.89s6.37 3.7 14.52-8.44c8.15-12.15 15.7-28.81 15.7-28.81l-4.34 53.56s6.12-16.96 7.3-26.78c1.19-9.81 7.11-24.78 7.11-24.78s7.7 2.52 8.15 12.89c0 0 1.91-26.07-7.34-46.81-2.58-6.67 1.27-8.67 3.64-8.67s34.37 35.61 38.22 43.33c0 0-21.13-36.52-33.6-47.59-12.47-11.07-13.22-15.17-13.22-15.17s-13.4 49.48-14.18 54.34c-.77 4.86-11.29 26.04-11.29 26.04zM355.505 566.706c5.59 16.11 15.04 38.78 29.59 48.22 14.56 9.44 50.78 33.44 60.22 55.56 0 0-3.22-21-25.89-38s-37.89-23.67-45.78-41c-7.89-17.33-14.22-27.67-14.22-27.67s-4.85.26-3.92 2.89zM219.645 558.366s39.78 60.67 39.56 119.33c0 0 5.33-83.56-34.44-121.78l-5.12 2.45zM470.395 449.796c-6.81 24.57-34.67 60.49-58.37 67.79 0 0-2.07-2.19 0-4.41 2.07-2.21 40.59-21.72 58.37-63.38zM389.205 560.756c0 2.78 9.93 7.31 24.15 7.31 14.22 0 32.81-5.33 46.89-5.33 0 0-6.63-2.48-19.5-2.48-12.87 0-29.84 3.56-37.98 3.56-8.15 0-13.56-3.06-13.56-3.06zM593.945 556.146c0 5.19 29.48 43.11 23.26 108 0 0 2.22-12 2.22-43.44 0-31.44-21.44-63.78-22.56-65-1.1-1.23-2.92-2.78-2.92.44zM650.585 551.406c-1.52 4.96 15.53 49.87-9.46 110.07 0 0 5.65-10.82 14.88-40.88 9.23-30.06-1.78-67.26-2.48-68.76s-2-3.51-2.94-.43z" fill="#D8D8D8"/><path d="M604.095 523.476c0 5.56 28.89 58.22 28.44 156.22 0 0 14.07-72.44-25.85-159.33-1.15-2.72-2.59.11-2.59 3.11zM274.985 252.706s-1.04-2.11-1.04-7.89c0-5.78 5.26-19.33 10.93-19.33s9.11 8 9.11 12.22c0 4.22-10.44 3.56-14.11 7.89s-4.89 7.11-4.89 7.11zM268.205 223.826s-1.11-13.71 2.44-18.64 9 3.35 9 3.35-.89-9.28-7.56-9.28c-6.66 0-9.88 16.14-3.88 24.57z" fill="#D8D8D8"/><path d="M542.985 232.146c0-11.85-1.48-13.63-1.48-36.44 0-22.81 3.85-21.93 3.85-42.96s-10.37-59.27-26.67-74.08M503.875 62.666c-36.74 0-64.59 56-135.11 56-29.04 0-40.89-9.48-40.89-9.48M329.355 135.556c0 58.67-16.59 64.89-16.59 77.04 0 12.15-2.07 19.56-2.07 19.56M302.685 291.106c4.61 46.7 2.07 65.48 32.89 89.78M367.275 394.816c16 10.96 59.26 21.93 81.19 17.78M478.395 409.926s18.37-9.48 32.3-29.04c13.93-19.56 19.85-63.41 19.85-63.41M532.015 305.036s10.98-36.13 10.96-55.41M396.315 337.036c23.11 0 17.11-6 33.78-6 9.33 0 10.67 4.96 19.78 4.96 6.44 0 7.78-1.96 14-1.96 9.56 0 16 9.44 24.44 9.44M424.315 343.476s16.67 8.33 39.11 4.67M458.095 294.366c3.33-3.11 12.11-5.44 15.11-12.78 2.56-5.67.67-8.67.67-8.67M470.985 292.816s8.59-.78 7.41-12.56M422.095 291.366c0-.33-4.22-2.22-4.22-10.33s6.56-14.22 6.56-14.22M431.985 286.536s-.22-2.89 5.44-2.89c5.67 0 12.56 4.94 12.56 4.94M449.425 306.146s-3.78 4.67-3.78 8.11c0 3.44 1.89 3.89 1.89 3.89" stroke="#000" stroke-width="1.5" stroke-miterlimit="10" stroke-linecap="round"/><path d="M492.535 400.196s-16.21 61.29-17.99 69.29c-1.78 8-12.44 29.93-12.44 29.93M379.275 543.106s14.67 7.41 36.89 7.41 25.19-7.41 53.33-7.41M481.645 479.036c0 30.44-10.67 86-10 104.89.67 18.89-2.15 44.89-2.15 44.89M374.535 546.816c14.75 33.7 56 47.33 87.56 113.11M477.645 661.476c-12.67-41.11 54.89-98.89 38.67-116.89M511.205 541.256s19.11-21.11 19.11-32.22-5.78-15.11-5.78-15.11" stroke="#000" stroke-width="1.5" stroke-miterlimit="10" stroke-linecap="round"/><path d="M539.645 527.706s7.78-8.89 7.78-13.11c0-4.22-10.22-33.56-30.22-60.22-20-26.67-25.72-28.04-29.64-35.35" stroke="#000" stroke-width="1.5" stroke-miterlimit="10" stroke-linecap="round"/><path d="M679.425 541.256s-10.67-40.67-62.22-55.56-53.42-5.4-94.71-23.9M300.315 391.256s-3.56 28.74 28.44 66.67c32 37.93 53.04 53.19 44.44 83.33M368.765 536.446c-7.26-22.07-2.37-30.52-26.52-40.3M332.315 500.296c-18.07 0-40.89 38.37-48.15 38.37-7.26 0-6.67-8-8-13.04-1.33-5.04-12.74-46.37-11.85-78.22M303.575 380.886c-9.33 0-30.07 44.15-35.26 56.59M261.055 442.666c-10.3 16.81-107.26 32.3-171.41 93.78-22.38 22.63-30.66 49.48-30.66 49.48M551.425 249.626s12.59-62.22 12.59-101.04c0-38.82-16.88-96.59-45.33-105.77M511.275 34.816s-19.26-33.78-87.41-33.78c-68.15 0-154.96 70.81-154.96 122.37 0 40.07 1.85 53.19 1.63 62.74M284.985 296.596s7.56 23.11 12 29.78" stroke="#000" stroke-width="1.5" stroke-miterlimit="10" stroke-linecap="round"/><path d="M305.425 403.036s-1.85-3.63-1.85-12.89c0-9.26 1.39-77.33-3.38-93.56M296.985 295.476s-19.33-5.56-22.67-20c-3.33-14.44-7.33-18.44-9.56-26.22-2.22-7.78-6.37-56.67 4.15-59.56 10.52-2.89 32.3 17.11 32.3 44.22" stroke="#000" stroke-width="1.5" stroke-miterlimit="10" stroke-linecap="round"/><path d="M296.985 237.706c0 4-6 4.22-6 15.56 0 11.33 6 8.44 6 14.44M288.985 232.146s-1.33-20-14-27.33M278.985 218.476s-10.07 7-10.07 19.22M473.535 202.146c-5.78 13-2.44 37.11-4.33 51.11M481.985 227.706c-4.33 0-5.67-2-5.67-2.67 0-.67 10.22-12.11 22.22-12.11" stroke="#000" stroke-width="1.5" stroke-miterlimit="10" stroke-linecap="round"/><path d="M520.875 229.366c1.22 0 2.67-.44 2.67-1.67 0-1.22-9-15.11-36.11-16.44M493.505 233.336s9.78 2.37 17.78.89M374.425 209.036s5.11 9.78 14.33 11.28M367.315 209.036s20.44-10.67 43.67-6.89" stroke="#000" stroke-width="1.5" stroke-miterlimit="10" stroke-linecap="round"/><path d="M415.985 219.476s5.22.11 7.56-1.33c2.34-1.44-9.22-15.29-23.33-16.81M394.535 223.366s12.33 1.78 15.78-1.67M420.405 212.056c1.93 2.31.82 7.04-2.08 7.34" stroke="#000" stroke-width="1.5" stroke-miterlimit="10" stroke-linecap="round"/><path d="M389.195 216.726c.07-.46.49-.67.79-.98-2.07-1.81-3.58-4.63-3.58-7.58 0-1.96.58-3.78 1.57-5.32-.37.12-.75.22-1.11.35-.31.11-.6.15-.87.16-.69 1.46-1.08 3.09-1.08 4.81 0 3.58 1.67 6.77 4.26 8.86 0-.11.01-.2.02-.3zM403.165 215.186c.38.33.76.66 1.15.97a11.303 11.303 0 001.54-14.04c-.83-.25-1.65-.52-2.48-.76a9.807 9.807 0 012.75 6.81 9.878 9.878 0 01-2.96 7.02zM396.255 213.706a5.54 5.54 0 100-11.08 5.54 5.54 0 000 11.08z" fill="#000"/><path d="M385.645 208.536s16.45-1.33 21.5-.83c0 0-.99-4.65-2-5.33-1-.67-6.39-1.04-6.39-1.04l-11.28 1.28c.01 0-1.83 1.64-1.83 5.92z" fill="#000"/><path d="M396.255 208.166l6.17 4.7" stroke="#000" stroke-width="1.5" stroke-miterlimit="10" stroke-linecap="round"/><path d="M490.505 228.596c.04-.48.18-.93.39-1.33-2.32-1.81-3.82-4.62-3.82-7.78 0-1.16.21-2.27.58-3.3-.14.07-.27.14-.41.21-.45.23-.89.33-1.32.33-.22.89-.35 1.81-.35 2.76 0 3.87 1.95 7.28 4.91 9.34-.01-.08.01-.16.02-.23zM503.095 227.166c.2.27.37.57.49.89.01.02.12.28.15.36.02.03.03.06.04.07 0 .01.01.02.01.02 2.73-2.08 4.5-5.35 4.5-9.03 0-1.25-.21-2.44-.58-3.56-.65-.22-1.28-.46-1.91-.71.63 1.29.99 2.74.99 4.27 0 3.11-1.44 5.88-3.69 7.69zM496.925 225.026a5.54 5.54 0 100-11.08 5.54 5.54 0 000 11.08z" fill="#000"/><path d="M503.285 214.006c-.7-.13-1.23-.58-1.58-1.14-1.24-.13-2.27-.2-2.27-.2l-7.53.86c-.04.01-.07.03-.1.05.21-.08-.3.14-.36.17-.19.1-.37.2-.56.3-.36.21-.72.45-1.09.64-.35.17-.72.32-1.08.47-.05.02-.13.06-.18.08-.33.16-.64.34-.94.56-.21.16-.45.25-.69.32-.32.92-.58 2.15-.58 3.76 0 0 16.45-1.33 21.5-.83 0 0-.61-2.84-1.35-4.41-1.07-.25-2.13-.43-3.19-.63z" fill="#000"/><path d="M496.925 219.486l6.17 4.7" stroke="#000" stroke-width="1.5" stroke-miterlimit="10" stroke-linecap="round"/><path d="M389.545 217.106a.75.75 0 100-1.5.75.75 0 000 1.5zM403.695 216.476a.75.75 0 100-1.5.75.75 0 000 1.5zM490.805 228.876a.75.75 0 100-1.5.75.75 0 000 1.5zM503.435 228.596a.75.75 0 100-1.5.75.75 0 000 1.5z" fill="#000"/><path d="M490.875 227.256c.21.15.34.25.34.25l-.12.32-.6.13s-.2-.49-.17-.51c.04-.02.55-.19.55-.19z" fill="#000"/><path d="M355.425 192.346l1.03-3.2M357.745 190.046l3-4.38M363.935 186.696l3.95-4.32M366.495 186.676l9.95-7.45M371.015 184.366l7.19-4.57M378.025 182.616l7.75-4.43M381.385 181.996l12.82-2.8M386.115 185.796l12.75-4.48s-13.23 2.18-13.52 1.96M389.315 186.826l10.95-5.67M392.235 187.196l10.08-5.87M409.225 181.126l-13.39 3.2M393.935 188.316c.46.07 9.55-6.61 9.55-6.61M396.365 189.096l10.58-6.79M409.575 183.156l-17.56 2.27M401.315 188.426l7.56-6.19M411.225 182.986l-10.79 8.2M404.615 192.536l8.59-8.91M419.635 184.486l-20.15 1.59M404.445 190.046l7.71-6.75M426.275 184.196l-7.11 9.99M422.035 193.936l2.97-9.17M424.205 192.956l-.22-7.67M417.275 191.816l2-8.9M422.215 184.716l-9.7 6.15M409.135 192.656l8.27-10.35M408.695 190.806l12.78-7.18M411.195 191.616l2.88-8.92M399.965 188.596l23.05-4.47M403.335 190.786l19.11-4.9M415.565 191.266l8.81-7.19M418.825 191.216l3.93-8.15M421.075 192.776l-.23-9.84M423.005 186.796l-4.49 6.01M533.975 202.256l-6.13-6.49M530.945 200.686l-11.46-6.39M525.315 202.956l-10.91-7.98s12.03 5.92 12.37 5.79M521.955 203.016l-8.84-8.6M519.055 202.526l-7.95-8.54M504.545 191.796l11.89 6.94M517.095 203.106c-.46-.07-7.23-9.09-7.23-9.09M514.545 203.146l-8.15-9.56M503.625 193.636l16.15 7.26M509.995 201.066l-5.43-8.12M502.095 192.996l7.96 10.97M505.655 204.046l-5.64-11.01M493.605 191.986l18.83 7.36M506.535 201.706l-5.42-8.69M487.335 189.786l3.92 11.62M488.575 200.336l-.18-9.64M486.785 198.766l2.44-7.27M493.745 199.686l.67-9.1M491.075 191.456l7.5 8.7M501.295 202.846l-4.91-12.29M502.245 201.206l-10.15-10.58M499.615 201.256l-.17-9.37M511.245 201.626l-20.77-10.97M507.385 202.736l-16.87-10.23M495.535 199.656l-6.34-9.44M492.435 198.666l-1.39-8.94M489.825 199.506l3.08-9.35M489.715 193.216l2.56 7.06" stroke="#000" stroke-width=".75" stroke-miterlimit="10" stroke-linecap="round" stroke-linejoin="round"/><path d="M502.835 38.656s.74-2.5-14.52-2.5-28.44 13.78-28.44 13.78M494.395 49.036s-20.44 3.7-34.52 17.63c-14.08 13.93-45.33 22.96-45.33 22.96M432.905 70.516s-47.85 28.89-78.81 19.11M322.985 89.626s27.26 15.26 53.78 9.93M309.205 73.186s25.78 10.52 34.81 10.81M373.795 81.086s-34.67-5.38-40.3-8.79M336.165 62.666s36.44 18.37 75.56-4.3M394.395 75.846s23.11-1.86 29.04-11.82M434.245 51.846s17.19-25.78 55.56-24.44M481.355 22.366s-10.23-10.52-27.85-9.63M440.315 13.336s-19.11-3.7-31.41 0M451.575 23.996s-25.86 3.03-46.37 23.7M338.835 53.186c12.3-3.85 36.74 8.3 49.93 5.19M385.795 50.666c-23.26 0-35.93-18.96-63.85 1.19M356.905 34.366s16.44-22.22 43.11-21.04M376.265 29.626s36.2-.74 52.13-11.26M373.945 39.606s27.85 1.43 44.15-11.01M306.095 62.666s7.89-2.85 21 2.59M298.095 85.256c.33 0 10.7 12.89 28.52 17.56M310.685 104.926s7.48 14.89 0 45.67M301.095 126.036s5.11-15.22-2.33-28.11M291.765 92.926s-15.11 8.89-14.78 30.44M285.535 114.036s2.01 24.24-6.78 40M292.985 118.666s6.33 10.7.89 32.7M300.785 150.036s-3.13 21.56-7.8 26.22M320.765 149.036s-3.26 25.05-10.07 31.36M305.315 172.366s-8.89 13.33-3.67 36.17M286.535 164.716s-6.11 5.88-5.33 16.6M518.685 67.406s16.44 14.67 17.33 30.22M534.985 73.776s12.89 15.85 14.81 41.19M545.355 119.996s10.37 16.44 7.7 45.48M549.795 165.476s.59 22.43-2.81 30.33M554.395 180.646s-.89 22.98-4.97 35.61M513.875 51.846s18.89 2.59 24 15.56" stroke="#C4C4C4" stroke-width=".75" stroke-miterlimit="10" stroke-linecap="round" stroke-linejoin="round"/></svg>