<svg width="740" height="679" viewBox="0 0 740 679" fill="none" xmlns="http://www.w3.org/2000/svg">
<path d="M639.78 295.49C694.826 295.49 739.45 250.866 739.45 195.82C739.45 140.774 694.826 96.15 639.78 96.15C584.734 96.15 540.11 140.774 540.11 195.82C540.11 250.866 584.734 295.49 639.78 295.49Z" fill="#DD2638"/>
<path d="M362.93 657.36C537.767 657.36 679.5 515.627 679.5 340.79C679.5 165.953 537.767 24.22 362.93 24.22C188.093 24.22 46.36 165.953 46.36 340.79C46.36 515.627 188.093 657.36 362.93 657.36Z" fill="#9280FA"/>
<path d="M66.67 503.01C102.635 503.01 131.79 473.855 131.79 437.89C131.79 401.925 102.635 372.77 66.67 372.77C30.7052 372.77 1.54999 401.925 1.54999 437.89C1.54999 473.855 30.7052 503.01 66.67 503.01Z" fill="#F8B625"/>
<path d="M352.17 1.62998C383.02 1.62998 396.78 5.05998 410.07 12.56C423.36 20.06 446.59 30.87 461.56 58.2C476.53 85.53 479.99 142.41 480.11 149.52C480.23 156.64 480.99 178.68 477.39 188.89C477.39 188.89 479.09 186.23 480.03 184.1C480.97 181.97 484.3 180.63 485.56 180.63C486.82 180.63 492.91 180.65 492.91 190.34C492.91 197.26 489.33 207.95 489.33 218.99C489.33 230.03 489.12 237.61 488.35 240.64C487.57 243.67 486.46 242.88 486.46 246.82C486.46 251.89 484.87 259.32 484.87 259.32C484.87 259.32 478.95 268.42 475.13 268.42C471.3 268.42 468.1 266.71 467.84 264.34C467.84 264.34 464.7 296.03 461.46 305.83C458.22 315.64 451.15 331.74 447.51 337.87C447.51 337.87 445.39 377.67 446.76 383.89C446.76 383.89 447.64 383.76 448.4 384.31C449.16 384.86 467.45 402.92 478.96 419.74C480.97 422.1 482.83 422.02 482.83 422.02C482.83 422.02 486.21 427.54 529.4 438.6C572.59 449.66 637.62 473.4 678.6 509.76C690.47 519.56 709.14 583.59 709.14 583.59C709.14 583.59 725.41 679 345.56 679C87.19 679 1.56 585.89 1.56 585.89C1.56 585.89 19.19 544.63 23.56 536.33C27.93 528.03 21.61 515.23 26.18 509.26C30.75 503.29 27.13 508.75 49.71 497.06C72.29 485.37 112.25 463.25 138.46 458.75C164.67 454.25 186.11 444.98 195.83 439.09C205.56 433.21 216.07 428.92 223.19 428.62C230.3 428.32 248.89 415.54 255.15 408.88C265.56 398.84 276.11 381.23 278.76 379.89C278.76 379.89 282.25 338.41 274.25 300.7C272.89 292.22 271.85 300.36 269.26 279.23C266.67 258.1 265.43 258.46 265.43 258.46C265.43 258.46 257.22 272.08 252.89 272.08C248.56 272.08 242.81 271.65 240.79 266.99C238.77 262.33 236.33 248.78 230.77 240.44C229.84 238.94 228.83 236.92 229.15 235.14C229.47 233.36 230.87 220.4 230.87 220.4C230.87 220.4 229.74 205.2 229.72 204.98C229.7 204.76 228.54 191.48 229.12 190.44C229.69 189.4 234.44 182.55 237.1 182.55C239.76 182.55 240.42 186.08 242.09 186.08C242.09 186.08 237.15 149.67 236.99 147.89C236.83 146.11 235.02 127.59 236.95 118.41C238.88 109.23 241.39 83.11 247.3 66.61C253.21 50.11 294.1 14.33 310.76 7.88998C327.44 1.43998 352.17 1.62998 352.17 1.62998Z" fill="white"/>
<path d="M341.56 307C347.67 304.56 363.67 298.44 368.23 298.44C372.79 298.44 373.9 302.72 381.56 302.72C389.23 302.72 387.56 299.22 394.67 299.22C401.78 299.22 416.78 304.33 416.78 304.33C416.78 304.33 395.85 310.57 390.65 310.23C386.67 310.23 386.78 313.95 379.17 313.95C371.56 313.95 371.81 309.14 367.89 309.14C363.97 309.14 342.67 307 341.56 307Z" fill="#D8D8D8"/>
<path d="M409 263C408.56 267.89 409 280.11 401.33 285.44C393.66 290.77 386.89 299.33 381.55 299.33C369.88 299.33 363.33 287.11 356.77 284.77C350.21 282.44 344.35 275.14 351.39 264.23C351.39 264.23 354.66 271.21 359.99 272.1L355.92 269.64C355.92 269.64 360.11 266.43 363.55 266.99C366.99 267.55 375.44 274.43 382.88 274.43C393.55 274.43 393.44 266.99 399.32 266.99C405.2 266.99 403.54 268.62 403.54 268.62C403.54 268.62 406.44 266.22 409 263Z" fill="#D8D8D8"/>
<path d="M441.11 66.89C441.11 66.89 464.19 129.43 461.54 164.11C460.45 171.89 444.02 166.61 435.9 166.04C427.78 165.47 402.76 165.59 394.83 185.19C391.43 193.9 390.71 198.47 390.71 198.47C390.71 198.47 397.22 198.99 402.83 193.89C408.44 188.79 416.42 182.03 418.55 181.57C420.68 181.1 425.94 178.56 440.61 179.89C455.28 181.22 461.8 187.9 464.98 191.08C464.98 191.08 465.47 185.48 461.56 181.83C461.56 181.83 469.87 184.11 469.87 193.88C469.87 203.65 462.76 234.1 458.02 240.92C453.28 247.74 466.61 251.73 459.95 288.03C453.28 324.33 413.58 377.96 403.51 377.96C393.44 377.96 359.66 387.89 332.7 364.63C305.74 341.37 274.66 309.22 266.27 263C266.27 263 271.26 293.59 274.27 300.71C274.27 300.71 277.68 317.52 277.68 324.93C277.68 332.34 281.58 362.86 292.84 372.78C304.1 382.71 334.32 419.45 340.54 438.56C344.69 449.97 357.13 446.83 361.13 446.85C365.13 446.86 394.46 449.08 399.65 452.64C404.84 456.2 410.02 455.6 414.02 446.27C418.02 436.94 435.35 399.16 441.43 393.83C441.43 393.83 441.28 425.24 447.13 431.68V421.53C447.13 421.53 459.35 441.83 464.46 444.79C464.46 444.79 464.33 435.23 458.36 425.95C452.39 416.67 446.81 410.72 446.81 399.16C446.81 387.6 446.33 344.25 448.02 336.97C448.02 336.97 467.84 301.53 467.84 263.02C467.84 263.02 468.68 268.65 472.46 268.65C476.24 268.65 480.16 265.65 481.24 264.45C481.24 264.45 472.61 266.42 471.13 253.16C469.65 239.9 471.4 221.9 471.4 221.9C471.4 221.9 471.53 216.5 472.66 212.83C473.79 209.16 471.92 199.51 472.39 198.71C472.83 197.91 478.44 104.33 441.11 66.89Z" fill="#D8D8D8"/>
<path d="M462.81 455.61C462.81 455.61 466.45 476.52 460.89 485.65C455.33 494.78 422.45 512.45 404.89 514C387.33 515.56 373 516.56 371.78 517C370.56 517.44 368.34 518.89 375.22 519.33C382.11 519.77 447.78 516.15 468.07 485.65C472.96 479.59 476.29 470.04 478.66 470.04C481.03 470.04 503.75 519.45 500.57 551C497.4 582.56 515.32 658.56 515.32 658.56C515.32 658.56 515.32 628.12 510.21 601C505.1 573.88 502.72 551.74 509.46 535.26C509.46 535.26 510.88 547.15 510.21 552.48C509.54 557.81 522.28 572.92 522.88 574.11C523.47 575.3 524.88 568.55 524.88 550.11C524.88 531.67 518.43 478.51 486.88 449.96C455.33 421.41 451.54 406.92 452.32 387.79L446.55 382.7C446.55 382.7 446.16 402.29 447.88 407.11C449.6 411.93 461.99 429.89 463.88 438.78C465.78 447.67 462.81 455.61 462.81 455.61Z" fill="#D8D8D8"/>
<path d="M404.81 203.3C407.55 200.86 410.18 200.41 411.5 200.41C412.82 200.41 422 205.52 428.78 205.52C435.56 205.52 437.19 205 437.19 205C437.19 205 437.63 206.78 439.56 208.56C441.49 210.34 442.67 213.3 442.67 213.3C442.67 213.3 428.67 214.63 425.34 213.67C422 212.7 404.67 206.11 404.81 203.3Z" fill="#D8D8D8"/>
<path d="M308.51 206.32C311 209.11 326.8 208.22 326.8 210.33C326.8 212.44 315.84 217.22 306.14 215.89C303.33 215.67 303.78 217.22 305.22 217.45C306.66 217.67 319.44 217.12 323.89 217.45C328.33 217.78 342.89 211.45 344.56 209.12C346.23 206.79 346.67 202.84 346.67 202.84C346.67 202.84 324.68 208.31 308.51 206.32Z" fill="#D8D8D8"/>
<path d="M359.04 200.41C359.04 200.41 351.68 190.06 341.14 190.06C330.6 190.06 325.18 188.89 325.18 188.89C325.18 188.89 303.49 190.75 298.52 196.88L294 197.26C294 197.26 302.56 186.08 326.8 186.08C331.56 186.08 339.29 186.08 339.29 186.08C339.29 186.08 343.06 185.77 343.61 185C344.17 184.22 341.33 179.93 323.78 179.93C306.22 179.93 292.32 188.33 287 196.44C285.23 198.77 278.78 192.93 279.01 191.29C279.24 189.65 293.98 172.92 314.72 172.92C335.46 172.92 343.24 175.43 349.68 180.43C356.12 185.43 362.01 193.76 362.01 196.43C362 199.11 360.96 201.37 359.04 200.41Z" fill="#D8D8D8"/>
<path d="M362.89 329.96C362.89 329.96 359.89 336.11 356.11 340.89C352.33 345.67 352.22 348.78 354.11 348.56C356 348.34 357.11 346 366 346C374.89 346 392.39 344.5 398.33 338.56C401.44 334.78 396.9 327.49 392.17 329.97C387.44 332.44 377.89 335.15 362.89 329.96Z" fill="#D8D8D8"/>
<path d="M243.89 250.39C244.78 254.45 251.22 254.5 252.78 252.83C253.56 252.33 250.22 261.66 247.72 261.33C245.22 261 246.66 258.78 242.44 255.86C241.33 254.28 242.72 249.33 243.89 250.39Z" fill="#D8D8D8"/>
<path d="M234.56 234.17C234.56 237.5 237.56 244.84 241.39 244.84C245.22 244.84 247.5 240.34 245.95 238.51C244.39 236.68 245.12 239.95 241.73 239.95C238.34 239.95 234.94 235.78 234.56 234.17Z" fill="#D8D8D8"/>
<path d="M471.55 219.2C473.22 224.33 478.17 230.11 478.17 230.11C478.17 230.11 478.01 216.41 478.89 212.91C479.77 209.4 478.3 199.52 472.37 198.71C466.44 197.89 471.55 219.2 471.55 219.2Z" fill="#D8D8D8"/>
<path d="M263.11 245.22C263.11 245.22 270.89 290.78 273.55 298.78C276.22 306.78 286.66 329.43 300.88 342.55" stroke="black" stroke-width="1.5" stroke-miterlimit="10" stroke-linecap="round" stroke-linejoin="round"/>
<path d="M316.52 361.96C316.52 361.96 339.93 388.03 352.96 392.18C366 396.33 384.96 398.4 399.48 393.37C414 388.34 454 339.15 462.29 302.41C469.4 269.82 467.62 253.52 467.62 253.52" stroke="black" stroke-width="1.5" stroke-miterlimit="10" stroke-linecap="round" stroke-linejoin="round"/>
<path d="M265.43 258.47C265.43 258.47 257 272.11 252.56 272.11C248.12 272.11 241.56 271.35 240.23 265.29C238.9 259.22 234.01 243.56 230.79 240.45C227.57 237.34 229.9 224.78 230.79 221.23C231.68 217.67 227.82 193.34 229.14 190.45C230.46 187.56 235.46 182.56 237.12 182.56C238.78 182.56 242.23 186.78 242.23 186.78C242.23 186.78 236.12 150.67 236.12 132.34C236.12 114.01 242.95 77.01 247.15 67.01C251.35 57.01 284.68 21.23 305.79 10.34C326.9 -0.550014 362.9 1.22999 377.57 2.77999C392.24 4.33999 430.01 16.78 454.01 46.11C478.01 75.44 485.21 161.34 476.98 190.45" stroke="black" stroke-width="1.5" stroke-miterlimit="10" stroke-linecap="round" stroke-linejoin="round"/>
<path d="M471.63 228.63C471.63 222.7 470.59 217.07 472.37 213.52C474.15 209.96 472.37 198.71 472.37 198.71C472.37 198.71 478.44 188.34 479.18 185.67C479.92 183 484.22 180.63 485.55 180.63C486.88 180.63 492.96 181.37 492.96 188.63C492.96 195.89 489.26 207.15 489.26 222.26C489.26 237.37 488.96 239.89 487.63 242.26C486.3 244.63 485.56 254.11 485.41 257.37C485.26 260.63 478.89 268.63 473.56 268.63C468.23 268.63 467.83 262.85 467.83 262.85" stroke="black" stroke-width="1.5" stroke-miterlimit="10" stroke-linecap="round" stroke-linejoin="round"/>
<path d="M341.56 307C353.34 308.56 367.34 308.11 370.89 310.78C374.45 313.45 378.89 316.34 389.11 310.78C392.22 309.08 405.85 309.08 416.37 304.34" stroke="black" stroke-width="1.5" stroke-miterlimit="10" stroke-linecap="round" stroke-linejoin="round"/>
<path d="M362.89 329.96C362.89 329.96 378.49 336.63 392.17 329.96" stroke="black" stroke-width="1.5" stroke-miterlimit="10" stroke-linecap="round" stroke-linejoin="round"/>
<path d="M381.56 295.22C381.56 295.22 377.54 292.78 377.54 287.55C377.54 282.33 379.55 279.11 379.55 279.11" stroke="black" stroke-width="1.5" stroke-miterlimit="10" stroke-linecap="round" stroke-linejoin="round"/>
<path d="M362.33 267C368.11 267 373.44 274.44 382.89 274.44C393.22 274.44 395.89 267 398.89 267" stroke="black" stroke-width="1.5" stroke-miterlimit="10" stroke-linecap="round" stroke-linejoin="round"/>
<path d="M402.11 270.22C402.11 270.22 409 266.11 409 259.55C409 252.99 404.33 248.77 404.33 248.77" stroke="black" stroke-width="1.5" stroke-miterlimit="10" stroke-linecap="round" stroke-linejoin="round"/>
<path d="M360 272.11C360 272.11 350.33 268.11 350.33 259.5C350.33 250.89 355.66 248.78 355.66 248.78" stroke="black" stroke-width="1.5" stroke-miterlimit="10" stroke-linecap="round" stroke-linejoin="round"/>
<path d="M396.11 182.89C396.11 182.89 390.44 191.56 390.44 202.56C390.44 213.56 398.11 236.78 398.11 236.78" stroke="black" stroke-width="1.5" stroke-miterlimit="10" stroke-linecap="round" stroke-linejoin="round"/>
<path d="M405.11 196.44C405.11 196.44 403.11 194.88 403.11 194.11C403.11 193.34 415.89 181.33 419.89 181.33" stroke="black" stroke-width="1.5" stroke-miterlimit="10" stroke-linecap="round" stroke-linejoin="round"/>
<path d="M409.78 181.33C409.78 181.33 421.11 180.77 425.67 181.33C430.23 181.89 439.67 184.44 445.67 191.33C445.95 192 441 193.89 441 193.89" stroke="black" stroke-width="1.5" stroke-miterlimit="10" stroke-linecap="round" stroke-linejoin="round"/>
<path d="M415.39 198.3C415.39 198.3 426.8 204.44 437.7 197.26" stroke="black" stroke-width="1.5" stroke-miterlimit="10" stroke-linecap="round" stroke-linejoin="round"/>
<path d="M424.77 192.89C427.752 192.89 430.17 190.472 430.17 187.49C430.17 184.508 427.752 182.09 424.77 182.09C421.788 182.09 419.37 184.508 419.37 187.49C419.37 190.472 421.788 192.89 424.77 192.89Z" fill="black"/>
<path d="M414.92 190.62C414.92 190.62 419.74 188.89 424.77 188.89C429.79 188.89 434.45 191.08 434.45 191.08C434.45 191.08 436.07 186.33 434.45 183.68C432.83 181.03 419.37 181.09 419.37 181.09L414.92 183.66C414.92 183.66 413.76 188.17 414.92 190.62Z" fill="black"/>
<path d="M424.77 187.49L428.78 195.11" stroke="black" stroke-width="1.5" stroke-miterlimit="10" stroke-linecap="round" stroke-linejoin="round"/>
<path d="M343.02 202.02C343.02 202.02 345.02 200.46 345.02 199.69C345.02 198.92 332.24 186.91 328.24 186.91" stroke="black" stroke-width="1.5" stroke-miterlimit="10" stroke-linecap="round" stroke-linejoin="round"/>
<path d="M338.35 186.91C338.35 186.91 327.02 186.35 322.46 186.91C317.9 187.47 308.46 190.02 302.46 196.91C302.18 197.58 307.13 199.47 307.13 199.47" stroke="black" stroke-width="1.5" stroke-miterlimit="10" stroke-linecap="round" stroke-linejoin="round"/>
<path d="M332.74 203.88C332.74 203.88 321.33 210.02 310.43 202.84" stroke="black" stroke-width="1.5" stroke-miterlimit="10" stroke-linecap="round" stroke-linejoin="round"/>
<path d="M323.37 198.46C326.352 198.46 328.77 196.042 328.77 193.06C328.77 190.078 326.352 187.66 323.37 187.66C320.388 187.66 317.97 190.078 317.97 193.06C317.97 196.042 320.388 198.46 323.37 198.46Z" fill="black"/>
<path d="M333.22 196.2C333.22 196.2 328.4 194.47 323.37 194.47C318.35 194.47 313.69 196.66 313.69 196.66C313.69 196.66 312.07 191.91 313.69 189.26C315.31 186.61 328.77 186.67 328.77 186.67L333.22 189.24C333.22 189.24 334.37 193.75 333.22 196.2Z" fill="black"/>
<path d="M323.37 193.06L326.11 200.69" stroke="black" stroke-width="1.5" stroke-miterlimit="10" stroke-linecap="round" stroke-linejoin="round"/>
<path d="M231.63 194.47C231.63 194.47 244.22 207.75 244.22 217.38" stroke="black" stroke-width="1.5" stroke-miterlimit="10" stroke-linecap="round" stroke-linejoin="round"/>
<path d="M250.74 220.78C250.74 226.11 246.74 231 246.74 233.52C246.74 236.04 250.74 239 250.74 243.89C250.74 248.78 250.74 249.52 250.74 249.52" stroke="black" stroke-width="1.5" stroke-miterlimit="10" stroke-linecap="round" stroke-linejoin="round"/>
<path d="M235.44 204.58C235.44 207.22 235.33 214.45 233.66 219.33" stroke="black" stroke-width="1.5" stroke-miterlimit="10" stroke-linecap="round" stroke-linejoin="round"/>
<path d="M485.78 197.26C485.78 197.26 478.67 207.89 478.67 215.33" stroke="black" stroke-width="1.5" stroke-miterlimit="10" stroke-linecap="round"/>
<path d="M478 226C478 227.22 481.22 230.56 481.22 233.78C481.22 237 475.11 241.89 475.11 244.89" stroke="black" stroke-width="1.5" stroke-miterlimit="10" stroke-linecap="round"/>
<path d="M274.6 301.63C275.92 309.22 279.78 338.11 279.78 357.81C279.78 377.51 274 437.37 272.08 443.29C270.15 449.22 265.56 464.03 284.67 476.77C303.78 489.51 320.82 500.62 361.86 500.62C402.9 500.62 464.45 484.55 464.45 444.77C464.45 425.99 446.89 416.88 446.89 400.55" stroke="black" stroke-width="1.5" stroke-miterlimit="10" stroke-linecap="round"/>
<path d="M447.11 431.67C447.11 431.67 446.74 381.82 446.3 372.63C445.86 363.44 448.01 336.96 448.01 336.96" stroke="black" stroke-width="1.5" stroke-miterlimit="10" stroke-linecap="round"/>
<path d="M271.04 446.84C258.45 499.55 268.22 559.59 268.22 588.63C268.22 617.67 257.26 652.63 257.26 652.63" stroke="black" stroke-width="1.5" stroke-miterlimit="10" stroke-linecap="round"/>
<path d="M456.6 423.19C468.89 442.78 510.44 495.67 510.22 548.12" stroke="black" stroke-width="1.5" stroke-miterlimit="10" stroke-linecap="round"/>
<path d="M502.66 506.19C502.66 506.19 497.98 561.22 502.66 586.55C507.34 611.88 515.34 658.55 515.34 658.55" stroke="black" stroke-width="1.5" stroke-miterlimit="10" stroke-linecap="round"/>
<path d="M278.76 379.9C269.11 390.34 258.89 413.45 227.78 427.45C196.67 441.45 175.56 473.89 175.56 476.12C175.56 478.34 193.78 506.56 205.56 517.23" stroke="black" stroke-width="1.5" stroke-miterlimit="10" stroke-linecap="round"/>
<path d="M160.67 625C160.67 625 150.89 561.44 152.23 551.89C153.56 542.33 151.34 533.22 150.45 527.89C149.56 522.56 166.67 518.78 170.89 518.78C175.11 518.78 202.22 513.93 202.22 513.93" stroke="black" stroke-width="1.5" stroke-miterlimit="10" stroke-linecap="round"/>
<path d="M225.26 428.63C206.45 428.63 184.89 450.78 144 457.67C103.11 464.56 44.67 501.89 29.56 506.56C20.23 509.89 27.34 527.67 23.56 536.34C19.78 545.01 2 581.23 1.56 585.9" stroke="black" stroke-width="1.5" stroke-miterlimit="10" stroke-linecap="round"/>
<path d="M446.56 382.7C464.07 396.63 476.82 420.92 489.56 430.4C502.3 439.88 604.52 508.62 604.52 528.47C604.52 548.32 598.59 546.25 598.59 564.62C598.59 582.99 639.78 610.84 639.78 644.03" stroke="black" stroke-width="1.5" stroke-miterlimit="10" stroke-linecap="round"/>
<path d="M709.11 583.59C709.11 583.59 692.22 521.66 677.41 508.63C662.6 495.6 622 467.74 566 449.67C510 431.6 491.85 431.18 477.07 417.46" stroke="black" stroke-width="1.5" stroke-miterlimit="10" stroke-linecap="round"/>
<path d="M277.11 63C295.18 48.48 351.18 71 374 71C396.82 71 429.11 62.11 431.33 54.11" stroke="#5B5B5B" stroke-miterlimit="10" stroke-linecap="round" stroke-linejoin="round"/>
<path d="M446.89 71C446.89 71 473.01 104.03 472.08 186.08" stroke="#5B5B5B" stroke-miterlimit="10" stroke-linecap="round" stroke-linejoin="round"/>
<path d="M272.67 118.41C265.41 102.26 266 77.08 266 77.08" stroke="#5B5B5B" stroke-miterlimit="10" stroke-linecap="round" stroke-linejoin="round"/>
<path d="M259.19 207.3C259.19 193.82 250.45 148.04 264.97 131.45" stroke="#5B5B5B" stroke-miterlimit="10" stroke-linecap="round" stroke-linejoin="round"/>
<path d="M337.11 10.67C337.11 10.67 345.22 22.56 347.89 45" stroke="#C4C4C4" stroke-width="0.75" stroke-miterlimit="10" stroke-linecap="round" stroke-linejoin="round"/>
<path d="M349.22 27.83C349.22 27.83 349.78 34.89 352.66 45C355.54 55.11 355.88 61.33 353.66 63.44" stroke="#C4C4C4" stroke-width="0.75" stroke-miterlimit="10" stroke-linecap="round" stroke-linejoin="round"/>
<path d="M357.91 36.56C357.91 36.56 363.45 56.56 362.89 64.56" stroke="#C4C4C4" stroke-width="0.75" stroke-miterlimit="10" stroke-linecap="round" stroke-linejoin="round"/>
<path d="M372.44 65.78C372.44 65.78 367.33 40.11 361.33 32.78" stroke="#C4C4C4" stroke-width="0.75" stroke-miterlimit="10" stroke-linecap="round" stroke-linejoin="round"/>
<path d="M342.5 7.89001C342.5 7.89001 351 13.22 355.78 26.22" stroke="#C4C4C4" stroke-width="0.75" stroke-miterlimit="10" stroke-linecap="round" stroke-linejoin="round"/>
<path d="M354.22 7.89001C354.22 7.89001 363 17.56 368.55 33.67" stroke="#C4C4C4" stroke-width="0.75" stroke-miterlimit="10" stroke-linecap="round" stroke-linejoin="round"/>
<path d="M370.44 27.83C370.44 27.83 379.11 49 380.77 63.44" stroke="#C4C4C4" stroke-width="0.75" stroke-miterlimit="10" stroke-linecap="round" stroke-linejoin="round"/>
<path d="M385.11 49.28C385.11 49.28 388.67 56.11 389 63.45" stroke="#C4C4C4" stroke-width="0.75" stroke-miterlimit="10" stroke-linecap="round" stroke-linejoin="round"/>
<path d="M370.44 19.15C370.44 19.15 376.37 26.41 379.18 35.89" stroke="#C4C4C4" stroke-width="0.75" stroke-miterlimit="10" stroke-linecap="round" stroke-linejoin="round"/>
<path d="M368.56 6.70001C368.56 6.70001 376 11.44 380.78 20.18" stroke="#C4C4C4" stroke-width="0.75" stroke-miterlimit="10" stroke-linecap="round" stroke-linejoin="round"/>
<path d="M387.78 33.67C387.78 33.67 399.63 53.23 401.56 63.45" stroke="#C4C4C4" stroke-width="0.75" stroke-miterlimit="10" stroke-linecap="round" stroke-linejoin="round"/>
<path d="M385.11 10.67C385.11 10.67 395.67 18.45 401.55 29.23" stroke="#C4C4C4" stroke-width="0.75" stroke-miterlimit="10" stroke-linecap="round" stroke-linejoin="round"/>
<path d="M400.67 16.56C400.67 16.56 413.56 33.56 414.67 38.45" stroke="#C4C4C4" stroke-width="0.75" stroke-miterlimit="10" stroke-linecap="round" stroke-linejoin="round"/>
<path d="M399.33 35.89C399.33 35.89 411.11 53.06 411.22 56.36" stroke="#C4C4C4" stroke-width="0.75" stroke-miterlimit="10" stroke-linecap="round" stroke-linejoin="round"/>
<path d="M421.11 36.56C421.11 36.56 427.33 49.23 428 54.12" stroke="#C4C4C4" stroke-width="0.75" stroke-miterlimit="10" stroke-linecap="round" stroke-linejoin="round"/>
<path d="M412.67 20.78C412.67 20.78 430 28.45 439 52.89" stroke="#C4C4C4" stroke-width="0.75" stroke-miterlimit="10" stroke-linecap="round" stroke-linejoin="round"/>
<path d="M444.44 55.33C444.44 55.33 452.33 67.44 456.88 78.44" stroke="#C4C4C4" stroke-width="0.75" stroke-miterlimit="10" stroke-linecap="round" stroke-linejoin="round"/>
<path d="M453.78 55.33C453.78 55.33 464.78 73.33 466.45 87" stroke="#C4C4C4" stroke-width="0.75" stroke-miterlimit="10" stroke-linecap="round" stroke-linejoin="round"/>
<path d="M461.56 88C461.56 88 467.45 99.33 468.23 115.89" stroke="#C4C4C4" stroke-width="0.75" stroke-miterlimit="10" stroke-linecap="round" stroke-linejoin="round"/>
<path d="M472.1 112.78C472.1 112.78 474 126.89 473 133.78" stroke="#C4C4C4" stroke-width="0.75" stroke-miterlimit="10" stroke-linecap="round" stroke-linejoin="round"/>
<path d="M475.56 138.44C475.56 138.44 475.56 151.77 473.89 157.77" stroke="#C4C4C4" stroke-width="0.75" stroke-miterlimit="10" stroke-linecap="round" stroke-linejoin="round"/>
<path d="M476.56 160.33C476.56 160.33 475.71 170.11 473.89 173.89" stroke="#C4C4C4" stroke-width="0.75" stroke-miterlimit="10" stroke-linecap="round" stroke-linejoin="round"/>
<path d="M475.22 182.89C475.22 182.89 476.89 175.78 476.55 172.67" stroke="#C4C4C4" stroke-width="0.75" stroke-miterlimit="10" stroke-linecap="round" stroke-linejoin="round"/>
<path d="M328 22.78C328 22.78 322.92 46.98 314.89 52.89" stroke="#C4C4C4" stroke-width="0.75" stroke-miterlimit="10" stroke-linecap="round" stroke-linejoin="round"/>
<path d="M324 55.78C324 55.78 340.22 29.78 327.56 10.67" stroke="#C4C4C4" stroke-width="0.75" stroke-miterlimit="10" stroke-linecap="round" stroke-linejoin="round"/>
<path d="M338.67 27.83C338.67 27.83 343.45 47.89 337.11 57.55" stroke="#C4C4C4" stroke-width="0.75" stroke-miterlimit="10" stroke-linecap="round" stroke-linejoin="round"/>
<path d="M318 12.56C318 12.56 322 27.89 317.33 35.89" stroke="#C4C4C4" stroke-width="0.75" stroke-miterlimit="10" stroke-linecap="round" stroke-linejoin="round"/>
<path d="M313.44 27.83C313.44 27.83 312.11 45.55 301.11 55.22" stroke="#C4C4C4" stroke-width="0.75" stroke-miterlimit="10" stroke-linecap="round" stroke-linejoin="round"/>
<path d="M305.11 35.89C305.11 35.89 309.33 23.45 307.28 16.56" stroke="#C4C4C4" stroke-width="0.75" stroke-miterlimit="10" stroke-linecap="round" stroke-linejoin="round"/>
<path d="M301.67 27.83C301.67 27.83 296.65 48.37 289.89 54.11" stroke="#C4C4C4" stroke-width="0.75" stroke-miterlimit="10" stroke-linecap="round" stroke-linejoin="round"/>
<path d="M290.67 42.69C290.67 42.69 296.34 31.44 295.23 20.77" stroke="#C4C4C4" stroke-width="0.75" stroke-miterlimit="10" stroke-linecap="round" stroke-linejoin="round"/>
<path d="M287.89 30C287.89 30 283.78 53.78 276.33 58.67" stroke="#C4C4C4" stroke-width="0.75" stroke-miterlimit="10" stroke-linecap="round" stroke-linejoin="round"/>
<path d="M278.22 40.97C278.22 40.97 268 71.81 258.89 77.07" stroke="#C4C4C4" stroke-width="0.75" stroke-miterlimit="10" stroke-linecap="round" stroke-linejoin="round"/>
<path d="M273.33 42C273.33 42 268.89 57.33 264.44 61" stroke="#C4C4C4" stroke-width="0.75" stroke-miterlimit="10" stroke-linecap="round" stroke-linejoin="round"/>
<path d="M264.44 55.78C264.44 55.78 250 69.22 247.22 84.67" stroke="#C4C4C4" stroke-width="0.75" stroke-miterlimit="10" stroke-linecap="round" stroke-linejoin="round"/>
<path d="M255.11 74.67C255.11 74.67 244.78 96.45 244 106.45" stroke="#C4C4C4" stroke-width="0.75" stroke-miterlimit="10" stroke-linecap="round" stroke-linejoin="round"/>
<path d="M247.22 111.33C247.22 111.33 250.22 92.89 255.83 86.22" stroke="#C4C4C4" stroke-width="0.75" stroke-miterlimit="10" stroke-linecap="round" stroke-linejoin="round"/>
<path d="M256.58 95.89C256.58 95.89 247.45 114 247.23 124.45" stroke="#C4C4C4" stroke-width="0.75" stroke-miterlimit="10" stroke-linecap="round" stroke-linejoin="round"/>
<path d="M243.44 114.44C243.44 114.44 239 137.22 241.77 148.55" stroke="#C4C4C4" stroke-width="0.75" stroke-miterlimit="10" stroke-linecap="round" stroke-linejoin="round"/>
<path d="M245.11 163.78C245.11 163.78 244.33 141.34 249.55 129.22" stroke="#C4C4C4" stroke-width="0.75" stroke-miterlimit="10" stroke-linecap="round" stroke-linejoin="round"/>
<path d="M265.99 103.44C265.99 103.44 253.24 119.33 251.9 132.22" stroke="#C4C4C4" stroke-width="0.75" stroke-miterlimit="10" stroke-linecap="round" stroke-linejoin="round"/>
<path d="M252.44 146.5C252.44 146.5 247.59 165.44 248.74 185.67" stroke="#C4C4C4" stroke-width="0.75" stroke-miterlimit="10" stroke-linecap="round" stroke-linejoin="round"/>
<path d="M253.44 179.56C253.44 179.56 249.92 193.83 250.74 204.58" stroke="#C4C4C4" stroke-width="0.75" stroke-miterlimit="10" stroke-linecap="round" stroke-linejoin="round"/>
<path d="M254.56 112.56C254.56 112.56 261.34 97.12 263 95" stroke="#C4C4C4" stroke-width="0.75" stroke-miterlimit="10" stroke-linecap="round" stroke-linejoin="round"/>
<path d="M315.94 200.84C316.34 200.53 316.76 200.23 317.19 199.95C315.07 198.18 313.71 195.52 313.71 192.55C313.71 191.06 314.06 189.66 314.66 188.4C314.27 188.62 313.9 188.85 313.54 189.12C313.23 189.36 312.92 189.5 312.62 189.59C312.36 190.53 312.21 191.52 312.21 192.55C312.22 195.85 313.66 198.8 315.94 200.84Z" fill="black"/>
<path d="M328.43 202.24C328.46 202.28 328.5 202.33 328.54 202.38C332.07 200.51 334.48 196.82 334.48 192.55C334.48 191.65 334.37 190.78 334.16 189.94C333.63 189.32 333.08 188.69 332.67 187.99C332.42 188.06 332.16 188.11 331.88 188.11C332.58 189.44 332.98 190.95 332.98 192.56C332.98 196.24 330.9 199.43 327.85 201.05C327.85 201.2 327.86 201.35 327.87 201.5C328.06 201.74 328.24 202 328.43 202.24Z" fill="black"/>
<path d="M430.6 194.55C430.88 194.97 431.14 195.39 431.4 195.82C434.12 193.79 435.89 190.55 435.89 186.91C435.89 186.02 435.77 185.16 435.58 184.33C435.08 184.38 434.56 184.36 434.02 184.29C434.26 185.12 434.39 186 434.39 186.9C434.4 190.02 432.9 192.79 430.6 194.55Z" fill="black"/>
<path d="M417.35 195.19C417.75 194.88 418.15 194.57 418.53 194.24C416.45 192.47 415.13 189.84 415.13 186.91C415.13 185.75 415.35 184.64 415.72 183.61C415.17 183.74 414.62 183.8 414.08 183.81C413.79 184.8 413.63 185.83 413.63 186.91C413.63 190.2 415.08 193.15 417.35 195.19Z" fill="black"/>
<path d="M284.32 189.4V186.42" stroke="black" stroke-width="0.75" stroke-miterlimit="10" stroke-linecap="round" stroke-linejoin="round"/>
<path d="M285.65 186.83L286.99 182.3" stroke="black" stroke-width="0.75" stroke-miterlimit="10" stroke-linecap="round" stroke-linejoin="round"/>
<path d="M289.98 182.3L292.14 177.56" stroke="black" stroke-width="0.75" stroke-miterlimit="10" stroke-linecap="round" stroke-linejoin="round"/>
<path d="M292.14 181.58L298.52 172.55" stroke="black" stroke-width="0.75" stroke-miterlimit="10" stroke-linecap="round" stroke-linejoin="round"/>
<path d="M295.33 178.39L300.17 172.55" stroke="black" stroke-width="0.75" stroke-miterlimit="10" stroke-linecap="round" stroke-linejoin="round"/>
<path d="M300.79 174.99L306.14 169.12" stroke="black" stroke-width="0.75" stroke-miterlimit="10" stroke-linecap="round" stroke-linejoin="round"/>
<path d="M303.46 173.55L313.55 167.68" stroke="black" stroke-width="0.75" stroke-miterlimit="10" stroke-linecap="round" stroke-linejoin="round"/>
<path d="M308.51 175.47L318.08 168.2C318.08 168.2 307.48 173.66 307.17 173.55" stroke="black" stroke-width="0.75" stroke-miterlimit="10" stroke-linecap="round" stroke-linejoin="round"/>
<path d="M311.49 175.47L319.21 167.68" stroke="black" stroke-width="0.75" stroke-miterlimit="10" stroke-linecap="round" stroke-linejoin="round"/>
<path d="M314.07 174.99L321 167.27" stroke="black" stroke-width="0.75" stroke-miterlimit="10" stroke-linecap="round" stroke-linejoin="round"/>
<path d="M326.8 165.21L316.33 171.58" stroke="black" stroke-width="0.75" stroke-miterlimit="10" stroke-linecap="round" stroke-linejoin="round"/>
<path d="M315.82 175.47C316.23 175.4 322.1 167.27 322.1 167.27" stroke="black" stroke-width="0.75" stroke-miterlimit="10" stroke-linecap="round" stroke-linejoin="round"/>
<path d="M318.08 175.47L325.18 166.83" stroke="black" stroke-width="0.75" stroke-miterlimit="10" stroke-linecap="round" stroke-linejoin="round"/>
<path d="M327.65 166.83L313.4 173.55" stroke="black" stroke-width="0.75" stroke-miterlimit="10" stroke-linecap="round" stroke-linejoin="round"/>
<path d="M322.1 173.55L326.8 166.24" stroke="black" stroke-width="0.75" stroke-miterlimit="10" stroke-linecap="round" stroke-linejoin="round"/>
<path d="M328.99 166.24L322.1 176.12" stroke="black" stroke-width="0.75" stroke-miterlimit="10" stroke-linecap="round" stroke-linejoin="round"/>
<path d="M326.01 176.12L330.85 166.24" stroke="black" stroke-width="0.75" stroke-miterlimit="10" stroke-linecap="round" stroke-linejoin="round"/>
<path d="M336.53 165.21L319.9 172.06" stroke="black" stroke-width="0.75" stroke-miterlimit="10" stroke-linecap="round" stroke-linejoin="round"/>
<path d="M325.18 174.06L329.87 166.24" stroke="black" stroke-width="0.75" stroke-miterlimit="10" stroke-linecap="round" stroke-linejoin="round"/>
<path d="M342.07 163.15L338.77 173.55" stroke="black" stroke-width="0.75" stroke-miterlimit="10" stroke-linecap="round" stroke-linejoin="round"/>
<path d="M341.14 172.55V163.98" stroke="black" stroke-width="0.75" stroke-miterlimit="10" stroke-linecap="round" stroke-linejoin="round"/>
<path d="M342.7 171.13L340.42 164.7" stroke="black" stroke-width="0.75" stroke-miterlimit="10" stroke-linecap="round" stroke-linejoin="round"/>
<path d="M336.53 172.06L335.79 163.98" stroke="black" stroke-width="0.75" stroke-miterlimit="10" stroke-linecap="round" stroke-linejoin="round"/>
<path d="M338.77 164.7L332.24 172.55" stroke="black" stroke-width="0.75" stroke-miterlimit="10" stroke-linecap="round" stroke-linejoin="round"/>
<path d="M329.87 174.99L334.04 163.98" stroke="black" stroke-width="0.75" stroke-miterlimit="10" stroke-linecap="round" stroke-linejoin="round"/>
<path d="M328.99 173.55L337.85 163.98" stroke="black" stroke-width="0.75" stroke-miterlimit="10" stroke-linecap="round" stroke-linejoin="round"/>
<path d="M331.33 173.55V165.21" stroke="black" stroke-width="0.75" stroke-miterlimit="10" stroke-linecap="round" stroke-linejoin="round"/>
<path d="M321 174.06L339.29 163.98" stroke="black" stroke-width="0.75" stroke-miterlimit="10" stroke-linecap="round" stroke-linejoin="round"/>
<path d="M324.45 174.99L339.29 165.62" stroke="black" stroke-width="0.75" stroke-miterlimit="10" stroke-linecap="round" stroke-linejoin="round"/>
<path d="M334.93 172.06L340.42 163.56" stroke="black" stroke-width="0.75" stroke-miterlimit="10" stroke-linecap="round" stroke-linejoin="round"/>
<path d="M337.68 171.13L338.77 163.15" stroke="black" stroke-width="0.75" stroke-miterlimit="10" stroke-linecap="round" stroke-linejoin="round"/>
<path d="M340.01 171.83L337.13 163.56" stroke="black" stroke-width="0.75" stroke-miterlimit="10" stroke-linecap="round" stroke-linejoin="round"/>
<path d="M340.01 166.24L337.85 172.55" stroke="black" stroke-width="0.75" stroke-miterlimit="10" stroke-linecap="round" stroke-linejoin="round"/>
<path d="M461.54 186.67V183.69" stroke="black" stroke-width="0.75" stroke-miterlimit="10" stroke-linecap="round" stroke-linejoin="round"/>
<path d="M460.2 184.1L458.86 179.57" stroke="black" stroke-width="0.75" stroke-miterlimit="10" stroke-linecap="round" stroke-linejoin="round"/>
<path d="M455.88 179.57L453.72 174.84" stroke="black" stroke-width="0.75" stroke-miterlimit="10" stroke-linecap="round" stroke-linejoin="round"/>
<path d="M453.72 178.85L447.33 169.83" stroke="black" stroke-width="0.75" stroke-miterlimit="10" stroke-linecap="round" stroke-linejoin="round"/>
<path d="M450.52 175.66L445.69 169.83" stroke="black" stroke-width="0.75" stroke-miterlimit="10" stroke-linecap="round" stroke-linejoin="round"/>
<path d="M445.07 172.26L439.72 166.4" stroke="black" stroke-width="0.75" stroke-miterlimit="10" stroke-linecap="round" stroke-linejoin="round"/>
<path d="M442.39 170.82L432.3 164.95" stroke="black" stroke-width="0.75" stroke-miterlimit="10" stroke-linecap="round" stroke-linejoin="round"/>
<path d="M437.35 172.74L427.78 165.47C427.78 165.47 438.38 170.93 438.69 170.82" stroke="black" stroke-width="0.75" stroke-miterlimit="10" stroke-linecap="round" stroke-linejoin="round"/>
<path d="M434.36 172.74L426.64 164.95" stroke="black" stroke-width="0.75" stroke-miterlimit="10" stroke-linecap="round" stroke-linejoin="round"/>
<path d="M431.79 172.26L424.86 164.54" stroke="black" stroke-width="0.75" stroke-miterlimit="10" stroke-linecap="round" stroke-linejoin="round"/>
<path d="M419.06 162.48L429.52 168.85" stroke="black" stroke-width="0.75" stroke-miterlimit="10" stroke-linecap="round" stroke-linejoin="round"/>
<path d="M430.04 172.74C429.63 172.67 423.76 164.54 423.76 164.54" stroke="black" stroke-width="0.75" stroke-miterlimit="10" stroke-linecap="round" stroke-linejoin="round"/>
<path d="M427.77 172.74L420.67 164.1" stroke="black" stroke-width="0.75" stroke-miterlimit="10" stroke-linecap="round" stroke-linejoin="round"/>
<path d="M418.21 164.1L432.46 170.82" stroke="black" stroke-width="0.75" stroke-miterlimit="10" stroke-linecap="round" stroke-linejoin="round"/>
<path d="M423.76 170.82L419.06 163.51" stroke="black" stroke-width="0.75" stroke-miterlimit="10" stroke-linecap="round" stroke-linejoin="round"/>
<path d="M416.86 163.51L423.76 173.4" stroke="black" stroke-width="0.75" stroke-miterlimit="10" stroke-linecap="round" stroke-linejoin="round"/>
<path d="M419.85 173.4L415.01 163.51" stroke="black" stroke-width="0.75" stroke-miterlimit="10" stroke-linecap="round" stroke-linejoin="round"/>
<path d="M409.33 162.48L425.96 169.33" stroke="black" stroke-width="0.75" stroke-miterlimit="10" stroke-linecap="round" stroke-linejoin="round"/>
<path d="M420.67 171.34L415.99 163.51" stroke="black" stroke-width="0.75" stroke-miterlimit="10" stroke-linecap="round" stroke-linejoin="round"/>
<path d="M404.7 168.51L406.99 162.07" stroke="black" stroke-width="0.75" stroke-miterlimit="10" stroke-linecap="round" stroke-linejoin="round"/>
<path d="M409.33 169.33L410.07 161.25" stroke="black" stroke-width="0.75" stroke-miterlimit="10" stroke-linecap="round" stroke-linejoin="round"/>
<path d="M407.08 161.97L413.61 169.83" stroke="black" stroke-width="0.75" stroke-miterlimit="10" stroke-linecap="round" stroke-linejoin="round"/>
<path d="M415.99 172.26L411.82 161.25" stroke="black" stroke-width="0.75" stroke-miterlimit="10" stroke-linecap="round" stroke-linejoin="round"/>
<path d="M416.86 170.82L408.01 161.25" stroke="black" stroke-width="0.75" stroke-miterlimit="10" stroke-linecap="round" stroke-linejoin="round"/>
<path d="M414.52 170.82V162.48" stroke="black" stroke-width="0.75" stroke-miterlimit="10" stroke-linecap="round" stroke-linejoin="round"/>
<path d="M424.86 171.34L406.57 161.25" stroke="black" stroke-width="0.75" stroke-miterlimit="10" stroke-linecap="round" stroke-linejoin="round"/>
<path d="M421.41 172.26L406.57 162.9" stroke="black" stroke-width="0.75" stroke-miterlimit="10" stroke-linecap="round" stroke-linejoin="round"/>
<path d="M410.92 169.33L405.44 160.84" stroke="black" stroke-width="0.75" stroke-miterlimit="10" stroke-linecap="round" stroke-linejoin="round"/>
<path d="M408.18 168.4L407.08 160.42" stroke="black" stroke-width="0.75" stroke-miterlimit="10" stroke-linecap="round" stroke-linejoin="round"/>
<path d="M405.85 169.11L408.73 160.84" stroke="black" stroke-width="0.75" stroke-miterlimit="10" stroke-linecap="round" stroke-linejoin="round"/>
<path d="M405.85 163.51L408.01 169.83" stroke="black" stroke-width="0.75" stroke-miterlimit="10" stroke-linecap="round" stroke-linejoin="round"/>
</svg>
