<svg width="740" height="679" fill="none" xmlns="http://www.w3.org/2000/svg"><path d="M639.78 295.49c55.046 0 99.67-44.624 99.67-99.67s-44.624-99.67-99.67-99.67-99.67 44.624-99.67 99.67 44.624 99.67 99.67 99.67z" fill="#DD2638"/><path d="M362.93 657.36c174.837 0 316.57-141.733 316.57-316.57S537.767 24.22 362.93 24.22 46.36 165.953 46.36 340.79s141.733 316.57 316.57 316.57z" fill="#9280FA"/><path d="M66.67 503.01c35.965 0 65.12-29.155 65.12-65.12s-29.155-65.12-65.12-65.12-65.12 29.155-65.12 65.12 29.155 65.12 65.12 65.12z" fill="#F8B625"/><path d="M352.17 1.63c30.85 0 44.61 3.43 57.9 10.93s36.52 18.31 51.49 45.64c14.97 27.33 18.43 84.21 18.55 91.32.12 7.12.88 29.16-2.72 39.37 0 0 1.7-2.66 2.64-4.79.94-2.13 4.27-3.47 5.53-3.47 1.26 0 7.35.02 7.35 9.71 0 6.92-3.58 17.61-3.58 28.65s-.21 18.62-.98 21.65c-.78 3.03-1.89 2.24-1.89 6.18 0 5.07-1.59 12.5-1.59 12.5s-5.92 9.1-9.74 9.1c-3.83 0-7.03-1.71-7.29-4.08 0 0-3.14 31.69-6.38 41.49-3.24 9.81-10.31 25.91-13.95 32.04 0 0-2.12 39.8-.75 46.02 0 0 .88-.13 1.64.42.76.55 19.05 18.61 30.56 35.43 2.01 2.36 3.87 2.28 3.87 2.28s3.38 5.52 46.57 16.58c43.19 11.06 108.22 34.8 149.2 71.16 11.87 9.8 30.54 73.83 30.54 73.83S725.41 679 345.56 679c-258.37 0-344-93.11-344-93.11s17.63-41.26 22-49.56c4.37-8.3-1.95-21.1 2.62-27.07 4.57-5.97.95-.51 23.53-12.2 22.58-11.69 62.54-33.81 88.75-38.31s47.65-13.77 57.37-19.66c9.73-5.88 20.24-10.17 27.36-10.47 7.11-.3 25.7-13.08 31.96-19.74 10.41-10.04 20.96-27.65 23.61-28.99 0 0 3.49-41.48-4.51-79.19-1.36-8.48-2.4-.34-4.99-21.47-2.59-21.13-3.83-20.77-3.83-20.77s-8.21 13.62-12.54 13.62c-4.33 0-10.08-.43-12.1-5.09-2.02-4.66-4.46-18.21-10.02-26.55-.93-1.5-1.94-3.52-1.62-5.3.32-1.78 1.72-14.74 1.72-14.74s-1.13-15.2-1.15-15.42c-.02-.22-1.18-13.5-.6-14.54.57-1.04 5.32-7.89 7.98-7.89s3.32 3.53 4.99 3.53c0 0-4.94-36.41-5.1-38.19-.16-1.78-1.97-20.3-.04-29.48s4.44-35.3 10.35-51.8c5.91-16.5 46.8-52.28 63.46-58.72 16.68-6.45 41.41-6.26 41.41-6.26z" fill="#fff"/><path d="M341.56 307c6.11-2.44 22.11-8.56 26.67-8.56 4.56 0 5.67 4.28 13.33 4.28 7.67 0 6-3.5 13.11-3.5 7.11 0 22.11 5.11 22.11 5.11s-20.93 6.24-26.13 5.9c-3.98 0-3.87 3.72-11.48 3.72s-7.36-4.81-11.28-4.81c-3.92 0-25.22-2.14-26.33-2.14z" fill="#D8D8D8"/><path d="M409 263c-.44 4.89 0 17.11-7.67 22.44-7.67 5.33-14.44 13.89-19.78 13.89-11.67 0-18.22-12.22-24.78-14.56-6.56-2.33-12.42-9.63-5.38-20.54 0 0 3.27 6.98 8.6 7.87l-4.07-2.46s4.19-3.21 7.63-2.65c3.44.56 11.89 7.44 19.33 7.44 10.67 0 10.56-7.44 16.44-7.44 5.88 0 4.22 1.63 4.22 1.63s2.9-2.4 5.46-5.62z" fill="#D8D8D8"/><path d="M441.11 66.89s23.08 62.54 20.43 97.22c-1.09 7.78-17.52 2.5-25.64 1.93-8.12-.57-33.14-.45-41.07 19.15-3.4 8.71-4.12 13.28-4.12 13.28s6.51.52 12.12-4.58c5.61-5.1 13.59-11.86 15.72-12.32 2.13-.47 7.39-3.01 22.06-1.68 14.67 1.33 21.19 8.01 24.37 11.19 0 0 .49-5.6-3.42-9.25 0 0 8.31 2.28 8.31 12.05 0 9.77-7.11 40.22-11.85 47.04-4.74 6.82 8.59 10.81 1.93 47.11-6.67 36.3-46.37 89.93-56.44 89.93s-43.85 9.93-70.81-13.33c-26.96-23.26-58.04-55.41-66.43-101.63 0 0 4.99 30.59 8 37.71 0 0 3.41 16.81 3.41 24.22s3.9 37.93 15.16 47.85c11.26 9.93 41.48 46.67 47.7 65.78 4.15 11.41 16.59 8.27 20.59 8.29 4 .01 33.33 2.23 38.52 5.79 5.19 3.56 10.37 2.96 14.37-6.37s21.33-47.11 27.41-52.44c0 0-.15 31.41 5.7 37.85v-10.15s12.22 20.3 17.33 23.26c0 0-.13-9.56-6.1-18.84s-11.55-15.23-11.55-26.79c0-11.56-.48-54.91 1.21-62.19 0 0 19.82-35.44 19.82-73.95 0 0 .84 5.63 4.62 5.63 3.78 0 7.7-3 8.78-4.2 0 0-8.63 1.97-10.11-11.29-1.48-13.26.27-31.26.27-31.26s.13-5.4 1.26-9.07-.74-13.32-.27-14.12c.44-.8 6.05-94.38-31.28-131.82z" fill="#D8D8D8"/><path d="M462.81 455.61s3.64 20.91-1.92 30.04c-5.56 9.13-38.44 26.8-56 28.35-17.56 1.56-31.89 2.56-33.11 3-1.22.44-3.44 1.89 3.44 2.33 6.89.44 72.56-3.18 92.85-33.68 4.89-6.06 8.22-15.61 10.59-15.61 2.37 0 25.09 49.41 21.91 80.96-3.17 31.56 14.75 107.56 14.75 107.56s0-30.44-5.11-57.56-7.49-49.26-.75-65.74c0 0 1.42 11.89.75 17.22-.67 5.33 12.07 20.44 12.67 21.63.59 1.19 2-5.56 2-24s-6.45-71.6-38-100.15c-31.55-28.55-35.34-43.04-34.56-62.17l-5.77-5.09s-.39 19.59 1.33 24.41c1.72 4.82 14.11 22.78 16 31.67 1.9 8.89-1.07 16.83-1.07 16.83zM404.81 203.3c2.74-2.44 5.37-2.89 6.69-2.89 1.32 0 10.5 5.11 17.28 5.11 6.78 0 8.41-.52 8.41-.52s.44 1.78 2.37 3.56c1.93 1.78 3.11 4.74 3.11 4.74s-14 1.33-17.33.37c-3.34-.97-20.67-7.56-20.53-10.37zM308.51 206.32c2.49 2.79 18.29 1.9 18.29 4.01s-10.96 6.89-20.66 5.56c-2.81-.22-2.36 1.33-.92 1.56 1.44.22 14.22-.33 18.67 0 4.44.33 19-6 20.67-8.33 1.67-2.33 2.11-6.28 2.11-6.28s-21.99 5.47-38.16 3.48zM359.04 200.41s-7.36-10.35-17.9-10.35-15.96-1.17-15.96-1.17-21.69 1.86-26.66 7.99l-4.52.38s8.56-11.18 32.8-11.18h12.49s3.77-.31 4.32-1.08c.56-.78-2.28-5.07-19.83-5.07-17.56 0-31.46 8.4-36.78 16.51-1.77 2.33-8.22-3.51-7.99-5.15.23-1.64 14.97-18.37 35.71-18.37 20.74 0 28.52 2.51 34.96 7.51 6.44 5 12.33 13.33 12.33 16-.01 2.68-1.05 4.94-2.97 3.98zM362.89 329.96s-3 6.15-6.78 10.93c-3.78 4.78-3.89 7.89-2 7.67 1.89-.22 3-2.56 11.89-2.56s26.39-1.5 32.33-7.44c3.11-3.78-1.43-11.07-6.16-8.59-4.73 2.47-14.28 5.18-29.28-.01zM243.89 250.39c.89 4.06 7.33 4.11 8.89 2.44.78-.5-2.56 8.83-5.06 8.5-2.5-.33-1.06-2.55-5.28-5.47-1.11-1.58.28-6.53 1.45-5.47zM234.56 234.17c0 3.33 3 10.67 6.83 10.67s6.11-4.5 4.56-6.33c-1.56-1.83-.83 1.44-4.22 1.44-3.39 0-6.79-4.17-7.17-5.78zM471.55 219.2c1.67 5.13 6.62 10.91 6.62 10.91s-.16-13.7.72-17.2c.88-3.51-.59-13.39-6.52-14.2-5.93-.82-.82 20.49-.82 20.49z" fill="#D8D8D8"/><path d="M263.11 245.22s7.78 45.56 10.44 53.56c2.67 8 13.11 30.65 27.33 43.77M316.52 361.96s23.41 26.07 36.44 30.22c13.04 4.15 32 6.22 46.52 1.19 14.52-5.03 54.52-54.22 62.81-90.96 7.11-32.59 5.33-48.89 5.33-48.89" stroke="#000" stroke-width="1.5" stroke-miterlimit="10" stroke-linecap="round" stroke-linejoin="round"/><path d="M265.43 258.47s-8.43 13.64-12.87 13.64c-4.44 0-11-.76-12.33-6.82-1.33-6.07-6.22-21.73-9.44-24.84-3.22-3.11-.89-15.67 0-19.22.89-3.56-2.97-27.89-1.65-30.78 1.32-2.89 6.32-7.89 7.98-7.89 1.66 0 5.11 4.22 5.11 4.22s-6.11-36.11-6.11-54.44 6.83-55.33 11.03-65.33c4.2-10 37.53-45.78 58.64-56.67s57.11-9.11 71.78-7.56c14.67 1.56 52.44 14 76.44 43.33s31.2 115.23 22.97 144.34" stroke="#000" stroke-width="1.5" stroke-miterlimit="10" stroke-linecap="round" stroke-linejoin="round"/><path d="M471.63 228.63c0-5.93-1.04-11.56.74-15.11 1.78-3.56 0-14.81 0-14.81s6.07-10.37 6.81-13.04c.74-2.67 5.04-5.04 6.37-5.04s7.41.74 7.41 8-3.7 18.52-3.7 33.63c0 15.11-.3 17.63-1.63 20-1.33 2.37-2.07 11.85-2.22 15.11-.15 3.26-6.52 11.26-11.85 11.26s-5.73-5.78-5.73-5.78M341.56 307c11.78 1.56 25.78 1.11 29.33 3.78 3.56 2.67 8 5.56 18.22 0 3.11-1.7 16.74-1.7 27.26-6.44M362.89 329.96s15.6 6.67 29.28 0M381.56 295.22s-4.02-2.44-4.02-7.67c0-5.22 2.01-8.44 2.01-8.44M362.33 267c5.78 0 11.11 7.44 20.56 7.44 10.33 0 13-7.44 16-7.44M402.11 270.22s6.89-4.11 6.89-10.67-4.67-10.78-4.67-10.78M360 272.11s-9.67-4-9.67-12.61 5.33-10.72 5.33-10.72M396.11 182.89s-5.67 8.67-5.67 19.67c0 11 7.67 34.22 7.67 34.22M405.11 196.44s-2-1.56-2-2.33 12.78-12.78 16.78-12.78" stroke="#000" stroke-width="1.5" stroke-miterlimit="10" stroke-linecap="round" stroke-linejoin="round"/><path d="M409.78 181.33s11.33-.56 15.89 0c4.56.56 14 3.11 20 10 .28.67-4.67 2.56-4.67 2.56M415.39 198.3s11.41 6.14 22.31-1.04" stroke="#000" stroke-width="1.5" stroke-miterlimit="10" stroke-linecap="round" stroke-linejoin="round"/><path d="M424.77 192.89a5.4 5.4 0 100-10.8 5.4 5.4 0 000 10.8z" fill="#000"/><path d="M414.92 190.62s4.82-1.73 9.85-1.73c5.02 0 9.68 2.19 9.68 2.19s1.62-4.75 0-7.4c-1.62-2.65-15.08-2.59-15.08-2.59l-4.45 2.57s-1.16 4.51 0 6.96z" fill="#000"/><path d="M424.77 187.49l4.01 7.62M343.02 202.02s2-1.56 2-2.33-12.78-12.78-16.78-12.78" stroke="#000" stroke-width="1.5" stroke-miterlimit="10" stroke-linecap="round" stroke-linejoin="round"/><path d="M338.35 186.91s-11.33-.56-15.89 0c-4.56.56-14 3.11-20 10-.28.67 4.67 2.56 4.67 2.56M332.74 203.88s-11.41 6.14-22.31-1.04" stroke="#000" stroke-width="1.5" stroke-miterlimit="10" stroke-linecap="round" stroke-linejoin="round"/><path d="M323.37 198.46a5.4 5.4 0 100-10.8 5.4 5.4 0 000 10.8z" fill="#000"/><path d="M333.22 196.2s-4.82-1.73-9.85-1.73c-5.02 0-9.68 2.19-9.68 2.19s-1.62-4.75 0-7.4c1.62-2.65 15.08-2.59 15.08-2.59l4.45 2.57s1.15 4.51 0 6.96z" fill="#000"/><path d="M323.37 193.06l2.74 7.63M231.63 194.47s12.59 13.28 12.59 22.91M250.74 220.78c0 5.33-4 10.22-4 12.74 0 2.52 4 5.48 4 10.37v5.63M235.44 204.58c0 2.64-.11 9.87-1.78 14.75" stroke="#000" stroke-width="1.5" stroke-miterlimit="10" stroke-linecap="round" stroke-linejoin="round"/><path d="M485.78 197.26s-7.11 10.63-7.11 18.07M478 226c0 1.22 3.22 4.56 3.22 7.78 0 3.22-6.11 8.11-6.11 11.11M274.6 301.63c1.32 7.59 5.18 36.48 5.18 56.18 0 19.7-5.78 79.56-7.7 85.48-1.93 5.93-6.52 20.74 12.59 33.48 19.11 12.74 36.15 23.85 77.19 23.85s102.59-16.07 102.59-55.85c0-18.78-17.56-27.89-17.56-44.22" stroke="#000" stroke-width="1.5" stroke-miterlimit="10" stroke-linecap="round"/><path d="M447.11 431.67s-.37-49.85-.81-59.04c-.44-9.19 1.71-35.67 1.71-35.67M271.04 446.84c-12.59 52.71-2.82 112.75-2.82 141.79 0 29.04-10.96 64-10.96 64M456.6 423.19c12.29 19.59 53.84 72.48 53.62 124.93" stroke="#000" stroke-width="1.5" stroke-miterlimit="10" stroke-linecap="round"/><path d="M502.66 506.19s-4.68 55.03 0 80.36 12.68 72 12.68 72M278.76 379.9c-9.65 10.44-19.87 33.55-50.98 47.55-31.11 14-52.22 46.44-52.22 48.67 0 2.22 18.22 30.44 30 41.11" stroke="#000" stroke-width="1.5" stroke-miterlimit="10" stroke-linecap="round"/><path d="M160.67 625s-9.78-63.56-8.44-73.11c1.33-9.56-.89-18.67-1.78-24-.89-5.33 16.22-9.11 20.44-9.11 4.22 0 31.33-4.85 31.33-4.85M225.26 428.63c-18.81 0-40.37 22.15-81.26 29.04-40.89 6.89-99.33 44.22-114.44 48.89-9.33 3.33-2.22 21.11-6 29.78-3.78 8.67-21.56 44.89-22 49.56M446.56 382.7c17.51 13.93 30.26 38.22 43 47.7 12.74 9.48 114.96 78.22 114.96 98.07 0 19.85-5.93 17.78-5.93 36.15 0 18.37 41.19 46.22 41.19 79.41" stroke="#000" stroke-width="1.5" stroke-miterlimit="10" stroke-linecap="round"/><path d="M709.11 583.59s-16.89-61.93-31.7-74.96C662.6 495.6 622 467.74 566 449.67s-74.15-18.49-88.93-32.21" stroke="#000" stroke-width="1.5" stroke-miterlimit="10" stroke-linecap="round"/><path d="M277.11 63c18.07-14.52 74.07 8 96.89 8 22.82 0 55.11-8.89 57.33-16.89M446.89 71s26.12 33.03 25.19 115.08M272.67 118.41c-7.26-16.15-6.67-41.33-6.67-41.33M259.19 207.3c0-13.48-8.74-59.26 5.78-75.85" stroke="#5B5B5B" stroke-miterlimit="10" stroke-linecap="round" stroke-linejoin="round"/><path d="M337.11 10.67s8.11 11.89 10.78 34.33M349.22 27.83s.56 7.06 3.44 17.17c2.88 10.11 3.22 16.33 1 18.44M357.91 36.56s5.54 20 4.98 28M372.44 65.78s-5.11-25.67-11.11-33M342.5 7.89s8.5 5.33 13.28 18.33M354.22 7.89s8.78 9.67 14.33 25.78M370.44 27.83s8.67 21.17 10.33 35.61M385.11 49.28s3.56 6.83 3.89 14.17M370.44 19.15s5.93 7.26 8.74 16.74M368.56 6.7s7.44 4.74 12.22 13.48M387.78 33.67s11.85 19.56 13.78 29.78M385.11 10.67s10.56 7.78 16.44 18.56M400.67 16.56s12.89 17 14 21.89M399.33 35.89s11.78 17.17 11.89 20.47M421.11 36.56s6.22 12.67 6.89 17.56M412.67 20.78S430 28.45 439 52.89M444.44 55.33s7.89 12.11 12.44 23.11M453.78 55.33s11 18 12.67 31.67M461.56 88s5.89 11.33 6.67 27.89M472.1 112.78s1.9 14.11.9 21M475.56 138.44s0 13.33-1.67 19.33M476.56 160.33s-.85 9.78-2.67 13.56M475.22 182.89s1.67-7.11 1.33-10.22M328 22.78s-5.08 24.2-13.11 30.11M324 55.78s16.22-26 3.56-45.11M338.67 27.83s4.78 20.06-1.56 29.72M318 12.56s4 15.33-.67 23.33M313.44 27.83s-1.33 17.72-12.33 27.39M305.11 35.89s4.22-12.44 2.17-19.33M301.67 27.83s-5.02 20.54-11.78 26.28M290.67 42.69s5.67-11.25 4.56-21.92M287.89 30s-4.11 23.78-11.56 28.67M278.22 40.97S268 71.81 258.89 77.07M273.33 42s-4.44 15.33-8.89 19M264.44 55.78S250 69.22 247.22 84.67M255.11 74.67S244.78 96.45 244 106.45M247.22 111.33s3-18.44 8.61-25.11M256.58 95.89s-9.13 18.11-9.35 28.56M243.44 114.44s-4.44 22.78-1.67 34.11M245.11 163.78s-.78-22.44 4.44-34.56M265.99 103.44s-12.75 15.89-14.09 28.78M252.44 146.5s-4.85 18.94-3.7 39.17M253.44 179.56s-3.52 14.27-2.7 25.02M254.56 112.56S261.34 97.12 263 95" stroke="#C4C4C4" stroke-width=".75" stroke-miterlimit="10" stroke-linecap="round" stroke-linejoin="round"/><path d="M315.94 200.84c.4-.31.82-.61 1.25-.89-2.12-1.77-3.48-4.43-3.48-7.4 0-1.49.35-2.89.95-4.15-.39.22-.76.45-1.12.72-.31.24-.62.38-.92.47-.26.94-.41 1.93-.41 2.96.01 3.3 1.45 6.25 3.73 8.29zM328.43 202.24c.03.04.07.09.11.14 3.53-1.87 5.94-5.56 5.94-9.83 0-.9-.11-1.77-.32-2.61-.53-.62-1.08-1.25-1.49-1.95a2.9 2.9 0 01-.79.12c.7 1.33 1.1 2.84 1.1 4.45 0 3.68-2.08 6.87-5.13 8.49 0 .15.01.3.02.45.19.24.37.5.56.74zM430.6 194.55c.28.42.54.84.8 1.27 2.72-2.03 4.49-5.27 4.49-8.91 0-.89-.12-1.75-.31-2.58-.5.05-1.02.03-1.56-.04.24.83.37 1.71.37 2.61.01 3.12-1.49 5.89-3.79 7.65zM417.35 195.19c.4-.31.8-.62 1.18-.95a9.606 9.606 0 01-3.4-7.33c0-1.16.22-2.27.59-3.3-.55.13-1.1.19-1.64.2-.29.99-.45 2.02-.45 3.1 0 3.29 1.45 6.24 3.72 8.28z" fill="#000"/><path d="M284.32 189.4v-2.98M285.65 186.83l1.34-4.53M289.98 182.3l2.16-4.74M292.14 181.58l6.38-9.03M295.33 178.39l4.84-5.84M300.79 174.99l5.35-5.87M303.46 173.55l10.09-5.87M308.51 175.47l9.57-7.27s-10.6 5.46-10.91 5.35M311.49 175.47l7.72-7.79M314.07 174.99l6.93-7.72M326.8 165.21l-10.47 6.37M315.82 175.47c.41-.07 6.28-8.2 6.28-8.2M318.08 175.47l7.1-8.64M327.65 166.83l-14.25 6.72M322.1 173.55l4.7-7.31M328.99 166.24l-6.89 9.88M326.01 176.12l4.84-9.88M336.53 165.21l-16.63 6.85M325.18 174.06l4.69-7.82M342.07 163.15l-3.3 10.4M341.14 172.55v-8.57M342.7 171.13l-2.28-6.43M336.53 172.06l-.74-8.08M338.77 164.7l-6.53 7.85M329.87 174.99l4.17-11.01M328.99 173.55l8.86-9.57M331.33 173.55v-8.34M321 174.06l18.29-10.08M324.45 174.99l14.84-9.37M334.93 172.06l5.49-8.5M337.68 171.13l1.09-7.98M340.01 171.83l-2.88-8.27M340.01 166.24l-2.16 6.31M461.54 186.67v-2.98M460.2 184.1l-1.34-4.53M455.88 179.57l-2.16-4.73M453.72 178.85l-6.39-9.02M450.52 175.66l-4.83-5.83M445.07 172.26l-5.35-5.86M442.39 170.82l-10.09-5.87M437.35 172.74l-9.57-7.27s10.6 5.46 10.91 5.35M434.36 172.74l-7.72-7.79M431.79 172.26l-6.93-7.72M419.06 162.48l10.46 6.37M430.04 172.74c-.41-.07-6.28-8.2-6.28-8.2M427.77 172.74l-7.1-8.64M418.21 164.1l14.25 6.72M423.76 170.82l-4.7-7.31M416.86 163.51l6.9 9.89M419.85 173.4l-4.84-9.89M409.33 162.48l16.63 6.85M420.67 171.34l-4.68-7.83M404.7 168.51l2.29-6.44M409.33 169.33l.74-8.08M407.08 161.97l6.53 7.86M415.99 172.26l-4.17-11.01M416.86 170.82l-8.85-9.57M414.52 170.82v-8.34M424.86 171.34l-18.29-10.09M421.41 172.26l-14.84-9.36M410.92 169.33l-5.48-8.49M408.18 168.4l-1.1-7.98M405.85 169.11l2.88-8.27M405.85 163.51l2.16 6.32" stroke="#000" stroke-width=".75" stroke-miterlimit="10" stroke-linecap="round" stroke-linejoin="round"/></svg>