<svg width="12" height="12" viewBox="0 0 12 12" fill="none" xmlns="http://www.w3.org/2000/svg">
<path d="M10.9017 5.18548C9.88966 6.19745 8.12723 6.07586 6.96531 4.9139C5.80328 3.75194 5.68168 1.98961 6.69372 0.977658C6.87001 0.807392 7.0728 0.666909 7.29416 0.561706C6.98791 0.505541 6.67737 0.475911 6.36602 0.473145C5.27263 0.473184 4.2038 0.797449 3.2947 1.40493C2.3856 2.01242 1.67705 2.87584 1.25865 3.88602C0.840258 4.89619 0.730808 6.00775 0.944144 7.08012C1.15748 8.1525 1.68402 9.13754 2.45718 9.91067C3.23034 10.6838 4.2154 11.2103 5.28778 11.4236C6.36017 11.6369 7.47172 11.5274 8.48188 11.109C9.49204 10.6905 10.3554 9.98194 10.9629 9.07281C11.5703 8.16368 11.8946 7.09485 11.8946 6.00145C11.8939 5.32099 11.7661 4.64663 11.5177 4.01309C11.4308 4.45551 11.2167 4.86296 10.9017 5.18548V5.18548Z" fill="#DD2538"/>
</svg>
