<svg width="413" height="195" viewBox="0 0 413 195" fill="none" xmlns="http://www.w3.org/2000/svg">
<path d="M130.2 140.059C130.2 140.059 111.217 161.187 85.0182 161.187C64.5336 161.187 52.5636 134.661 48.3445 123.079L61.2627 112.047V85.1941H83.9109V80.8146H61.2627V40.6122C67.0664 51.5544 87.5573 53.8529 97.72 53.8529C109.334 53.8529 117.651 45.9584 117.651 45.9584L133.815 33.0122C133.815 33.0122 140.719 25.7516 147 25.7516C157.984 25.7516 167.555 39.8375 185.602 39.8375C203.649 39.8375 223.733 21.0456 223.733 21.0456C223.733 21.0456 234.965 11.5248 234.965 21.9612V118.36L229.963 122.253C238.318 122.611 246.909 132.535 246.909 132.535L240.673 139.053L262.093 128.988L279.631 112.982H275.507L263.62 118.507V117.873C260.317 113.717 255.746 110.769 250.613 109.486L254.272 107.36V9.32871C254.272 -0.217688 246.559 -2.43302 239.145 2.66352C239.145 2.66352 228.55 10.2379 220.118 16.7494C220.118 16.7494 210.859 24.0165 204.114 24.0165C180.415 24.0165 178.061 9.32871 164.252 9.32871C156.919 9.35391 149.842 12.0464 144.327 16.9095L122.984 32.3848C122.984 32.3848 119.375 36.4953 109.486 36.4953C85.1645 36.4953 72.6154 23.0497 72.6154 23.0497L61.2627 31.1618V31.117L42.2736 44.6971V80.8146H33.0909V54.1859L35.9482 52.1498V45.7472L1.43182 70.3463V76.7489L14.0827 67.7276V80.821H0V85.2005H14.0827V153.664L27.5545 142.139C30.7364 151.827 42.0318 176.413 74.7345 176.413C99.7627 176.413 118.122 157.352 118.122 157.352L133.496 143.42L130.2 140.059ZM33.0909 131.53V85.1941H42.2736V122.163L33.0909 131.53Z" fill="#1A3606"/>
<path d="M277.862 85.9815C277.862 85.9239 279.071 85.3413 280.866 84.4961V118.546H283.252L279.199 122.137L281.948 124.193L285.632 121.19C289.45 122.592 294.586 127.593 297.475 130.627C294.929 133.253 293.243 135.218 293.243 135.218L294.63 136.031C295.069 135.807 310.285 129.251 310.285 129.251C319.455 118.187 343 109.268 343 109.268V108.237C323.909 106.957 313.448 117.841 313.448 117.841L313.308 117.899C309.489 114.275 303.654 109.332 300.192 109.332V78.2087L300.561 78.484C300.561 78.484 303.158 81.0451 309.127 82.5561C304.405 87.038 300.218 92.6723 300.218 97.9225C300.218 104.965 304.882 105.606 306.919 104.869C308.955 104.133 329.191 93.3446 329.191 93.3446V90.1945C329.191 90.1945 323.502 93.1077 321.657 93.1077C319.811 93.1077 312.169 93.7992 337.146 70.8584C337.509 70.5959 337.833 70.3526 338.107 70.1285V68.2077C338.107 68.2077 326.455 72.3502 313.091 61.5105L275.966 81.8774C275.966 81.8774 277.786 86.2184 277.862 85.9815Z" fill="#1A3606"/>
<path d="M396.372 90.8156C393.229 88.389 388.532 87.339 383.925 86.974L413 60.4477L410.85 58.7894L401.043 67.7532V66.0117C389.589 65.3714 384.568 57.0095 384.568 57.0095L367.462 68.8544C367.462 68.8544 357.28 83.5358 350.828 83.5358L350.121 85.1173L351.61 85.9944V103.57C355.194 103.063 358.811 102.849 362.429 102.929L350.21 114.07H350.096L325.564 136.582L327.715 138.24L327.836 138.131L328.001 138.24C328.271 137.873 328.562 137.523 328.873 137.19L331.68 134.629C336.253 131.196 341.833 129.394 347.538 129.507C360.952 129.507 365.356 137.402 365.356 137.402C365.356 137.402 388.583 119.717 398.86 115.139V88.5875L396.385 90.8156H396.372ZM391.867 76.0895L380.145 86.7883C377.062 86.7621 373.98 86.9332 370.918 87.3006V78.6569C372.827 79.2524 375.792 79.7454 380.17 79.7454C384.364 79.7454 388.45 78.1127 391.867 76.1023V76.0895ZM354.379 113.929L366.183 103.166C371.274 103.653 376.422 104.998 379.547 108.148V118.558C374.36 114.16 361.207 113.795 354.379 113.916V113.929Z" fill="#1A3606"/>
<path d="M341.18 81.5253L342.981 82.1144L360.36 68.8544C360.36 68.8544 361.264 65.4162 361.264 58.0787C361.264 50.7412 353.182 44.934 353.182 44.934L338.59 58.0787C352.24 61.1584 341.18 81.5253 341.18 81.5253Z" fill="#1A3606"/>
<path d="M174.612 164.293H174.778C174.472 171.15 172.054 183.161 164.099 183.161C153.918 183.161 146.167 172.578 146.167 161.687C146.167 144.003 161.586 142.901 167.167 149.375C172.34 155.924 186.385 160.105 197.216 151.737L223.733 129.635L224.675 126.479C223.485 124.971 222.815 123.114 222.766 121.19V77.6901C226.1 75.8205 229.384 73.6756 231.242 71.614C231.242 71.614 221.474 69.738 218.235 64.7695L218.413 63.1112C218.413 63.1112 208.759 69.2642 204.228 69.2066L190.165 80.0911L201.231 76.7745C201.231 76.7745 204.114 80.7762 208.619 82.3256L203.458 85.9816V112.425C202.09 113.34 200.277 114.506 198.285 115.728C193.894 118.418 184.609 115.728 184.609 104.524V75.8013C184.609 64.5902 201.74 60.7998 201.74 60.7998L200.398 56.382C200.398 56.382 165.302 59.2248 165.302 76.4288V112.111C165.302 112.572 165.302 113.02 165.366 113.455C163.253 113.974 160.275 115.312 156.622 118.578C156.622 118.578 152.168 113.353 146.44 111.663V73.8869C148.385 72.7387 150.264 71.4796 152.066 70.1157V68.1949C152.066 68.1949 140.522 72.3503 127.165 61.5105L90.033 81.8775C90.033 81.8775 91.8339 86.2185 91.9421 85.9816C91.9421 85.9239 93.1511 85.3413 94.9393 84.4962V118.546H97.3257L93.2721 122.138L96.0211 124.193L99.7057 121.19C105.28 123.245 113.75 133.028 113.75 133.028C114.858 129.795 122.309 125.774 127.076 123.488C129.723 124.551 133.694 127.01 138.626 132.638L134.935 137.12L136.271 137.907L151.334 132.222L166.607 117.944C170.425 126.216 181.816 129.142 185.456 129.142C189.853 129.142 196.274 123.956 196.274 123.956L203.484 118.648V133.009C203.484 140.513 200.665 142.882 197.839 142.882C190.311 142.882 183.248 131.037 173.021 131.037C153.72 131.037 131.021 161.354 131.021 176.983C131.021 186.139 138.658 194.981 146.421 194.981C176.808 194.981 180.371 172.879 180.371 167.827C180.363 166.569 180.006 165.338 179.34 164.274H207.455V160.086H174.618L174.612 164.293ZM114.221 109.351V78.2087L114.59 78.484C114.59 78.484 118.332 82.172 127.165 83.3053V117.752C123.347 114.147 117.632 109.351 114.221 109.351Z" fill="#1A3606"/>
<path d="M397.161 160.105H364.325V164.286H397.161V160.105Z" fill="#1A3606"/>
<path d="M227.64 162.916C229.39 162.494 230.236 161.239 230.236 159.933V155.668C230.247 155.336 230.187 155.005 230.061 154.697C229.934 154.39 229.745 154.113 229.504 153.885C229.263 153.657 228.977 153.482 228.665 153.374C228.352 153.265 228.02 153.224 227.691 153.255H215.937V172.463H227.818C228.151 172.496 228.487 172.457 228.803 172.348C229.12 172.239 229.409 172.062 229.651 171.829C229.892 171.597 230.081 171.314 230.204 171.002C230.328 170.689 230.382 170.353 230.364 170.017V165.829C230.364 164.549 229.39 163.345 227.64 162.916ZM225.515 168.519C225.517 168.557 225.512 168.595 225.499 168.63C225.486 168.666 225.466 168.699 225.439 168.726C225.413 168.753 225.381 168.775 225.345 168.788C225.31 168.802 225.272 168.809 225.235 168.807H220.818V164.549H225.228C225.268 164.55 225.306 164.558 225.342 164.575C225.378 164.591 225.41 164.615 225.436 164.644C225.462 164.674 225.482 164.708 225.495 164.746C225.507 164.783 225.512 164.823 225.508 164.863L225.515 168.519ZM225.515 160.733C225.519 160.772 225.515 160.812 225.503 160.85C225.491 160.887 225.471 160.922 225.445 160.951C225.418 160.98 225.385 161.003 225.349 161.019C225.313 161.034 225.274 161.041 225.235 161.04H220.818V157.064H225.228C225.268 157.065 225.306 157.074 225.342 157.09C225.378 157.107 225.41 157.13 225.436 157.16C225.462 157.189 225.482 157.224 225.495 157.261C225.507 157.299 225.512 157.338 225.508 157.378L225.515 160.733Z" fill="#1A3606"/>
<path d="M249.225 166.361C249.792 166.351 250.333 166.119 250.733 165.716C251.133 165.312 251.362 164.767 251.37 164.197V155.412C251.371 155.129 251.316 154.848 251.208 154.586C251.101 154.323 250.943 154.085 250.744 153.885C250.544 153.684 250.308 153.525 250.047 153.417C249.787 153.309 249.507 153.254 249.225 153.255H237.243V172.463H242.162V166.38H244.249L246.623 172.463H251.427L249.085 166.38L249.225 166.361ZM246.483 162.237C246.474 162.302 246.444 162.362 246.398 162.408C246.352 162.455 246.292 162.484 246.228 162.494H242.162V157.371H246.228C246.296 157.382 246.359 157.415 246.405 157.467C246.452 157.518 246.479 157.584 246.483 157.653V162.237Z" fill="#1A3606"/>
<path d="M258.319 172.443H270.779V168.294H263.206V164.824H269.767V160.733H263.206V157.378H270.779V153.255H258.319V172.443Z" fill="#1A3606"/>
<path d="M291.066 164.965L288.635 153.255H284.601L282.03 165.311L280.356 153.255H275.558L279.172 172.443H283.411L286.433 161.751L289.373 172.443H293.694L297.283 153.255H292.88L291.066 164.965Z" fill="#1A3606"/>
<path d="M302.737 172.443H315.197V168.294H307.624V164.824H314.179V160.733H307.624V157.378H315.197V153.255H302.737V172.443Z" fill="#1A3606"/>
<path d="M333.817 166.361C334.384 166.351 334.926 166.12 335.327 165.716C335.728 165.312 335.958 164.768 335.968 164.197V155.412C335.968 155.128 335.912 154.847 335.804 154.585C335.696 154.323 335.537 154.085 335.338 153.884C335.138 153.684 334.901 153.525 334.64 153.417C334.379 153.309 334.099 153.254 333.817 153.255H321.834V172.463H326.753V166.38H328.847L331.221 172.463H336L333.652 166.38L333.817 166.361ZM331.074 162.237C331.066 162.301 331.037 162.361 330.992 162.407C330.947 162.453 330.889 162.483 330.826 162.494H326.753V157.371H330.826C330.893 157.383 330.954 157.417 330.999 157.468C331.044 157.52 331.071 157.585 331.074 157.653V162.237Z" fill="#1A3606"/>
<path d="M351.476 162.097C351.476 162.237 351.476 162.378 351.279 162.378H347.352C347.276 162.375 347.203 162.345 347.146 162.293C347.089 162.242 347.052 162.173 347.04 162.097V153.255H342.121V164.549C342.114 165.135 342.335 165.701 342.737 166.126C343.139 166.55 343.69 166.8 344.272 166.822H346.818V172.45H351.737V166.822H354.25C354.833 166.8 355.384 166.55 355.785 166.126C356.187 165.701 356.408 165.135 356.401 164.549V153.255H351.482L351.476 162.097Z" fill="#1A3606"/>
<path d="M47.1541 117.668L56.3813 109.768V40.6378L51.7677 47.86V107.463L47.1541 117.668Z" fill="#0F1E02"/>
<path d="M18.9633 143.004L28.0314 135.462V57.2912L23.5005 65.4098V133.867L18.9633 143.004Z" fill="#0F1E02"/>
<path d="M40.8477 138.938L32.1868 140.584C32.1868 140.584 42.5213 171.374 71.1768 171.374C91.9858 171.374 101.569 163.652 101.569 163.652C60.524 181.708 40.8477 138.938 40.8477 138.938Z" fill="#0F1E02"/>
<path d="M109.549 76.7617V111.791L99.3231 117.668L104.439 109.748V83.9135L109.549 76.7617Z" fill="#0F1E02"/>
<path d="M101.57 118.731C101.57 118.731 112.572 112.329 122.213 119.852L113.616 125.736C110.467 122.142 106.237 119.682 101.57 118.731Z" fill="#0F1E02"/>
<path d="M141.585 73.887L136.621 79.15V117.752L142.145 112.194L141.585 73.887Z" fill="#0F1E02"/>
<path d="M115.544 73.4772C115.544 73.4772 124.027 81.9223 135.271 76.7618C135.271 76.7618 123.938 73.2019 122.207 70.4359L115.544 73.4772Z" fill="#0F1E02"/>
<path d="M133.109 121.164C133.109 121.164 141.559 127.253 143.348 130.909L150.774 126.037C150.774 126.037 141.209 120.518 133.109 121.164Z" fill="#0F1E02"/>
<path d="M62.8851 35.9831C62.8851 35.9831 67.836 48.9421 97.7197 48.9421C108.538 48.9421 116.327 40.7403 116.327 40.7403C116.327 40.7403 93.8506 52.7709 71.0179 35.9831H62.8851Z" fill="#0F1E02"/>
<path d="M147.248 20.8407C161.885 10.5196 179.225 35.791 204.406 28.9209C204.406 28.9209 195.625 34.8882 186.62 34.8882C169.515 34.8882 157.958 20.4886 147.248 20.8407Z" fill="#0F1E02"/>
<path d="M244.905 113.552V16.2308C244.905 16.2308 242.996 5.90329 239.375 8.5476C239.375 8.5476 243.524 4.99411 247.38 4.99411C249.83 4.99411 249.391 13.8554 249.391 13.8554V106.579L244.905 113.552Z" fill="#0F1E02"/>
<path d="M250.378 129.091L253.528 123.655C253.528 123.655 248.118 117.38 243.257 116.548C243.257 116.548 249.111 113.276 254.482 116.298C259.853 119.32 261.482 122.951 261.482 122.951L250.378 129.091Z" fill="#0F1E02"/>
<path d="M208.192 136.204L213.226 126.011V83.7534L217.903 78.9642V122.067C217.978 123.792 218.442 125.478 219.259 126.997L208.192 136.204Z" fill="#0F1E02"/>
<path d="M203.267 73.8869C203.267 73.8869 208.549 79.8542 213.226 79.9759L219.259 75.7885L213.729 73.8677C213.729 73.8677 210.114 74.9113 203.267 73.8869Z" fill="#0F1E02"/>
<path d="M175 75.4236V111.349C175 117.38 185.774 124.225 191.641 121.292C191.641 121.292 179.728 119.007 179.728 104.537V74.444C179.728 71.1274 184.368 64.6158 184.368 64.6158C184.368 64.6158 175 67.9196 175 75.4236Z" fill="#0F1E02"/>
<path d="M194.728 147.422C173.18 159.933 172.372 140.891 159.817 140.891C177.278 135.967 180.81 152.653 194.728 147.422Z" fill="#0F1E02"/>
<path d="M141.272 161.687C136.08 178.846 145.091 191.479 159.81 187.605C159.822 187.599 142.405 183.482 141.272 161.687Z" fill="#0F1E02"/>
<path d="M327.192 73.4515C321.949 72.5926 316.983 70.4949 312.702 67.3306L309.482 71.8573C309.482 71.8573 318.258 78.2279 327.192 73.4515Z" fill="#0F1E02"/>
<path d="M317.119 94.0105C314.185 90.9372 318.633 82.4857 324.908 75.7309C324.908 75.7309 309.482 84.8931 309.482 92.5251C309.482 98.39 317.119 94.0105 317.119 94.0105Z" fill="#0F1E02"/>
<path d="M353.181 51.5479L351.018 56.382C351.018 56.382 356.802 60.7998 350.057 70.5703L355.931 66.0884C355.931 66.0884 359.119 55.3575 353.181 51.5479Z" fill="#0F1E02"/>
<path d="M295.502 76.7617C295.502 76.7617 295.292 79.4508 295.292 81.2948V110.363L291.13 113.564V85.0788L295.502 76.7617Z" fill="#0F1E02"/>
<path d="M301.42 127.733L302.737 122.451C302.737 122.451 299.479 117.361 294.433 115.018C294.433 115.018 299.81 112.854 304.462 116.785C309.114 120.716 310.558 121.99 310.558 121.99L301.42 127.733Z" fill="#0F1E02"/>
<path d="M366.036 78.6569V92.1858L362.574 95.5792V87.1213L366.036 78.6569Z" fill="#0F1E02"/>
<path d="M384.312 98.1979L377.751 101.047C377.751 101.047 368.842 97.5512 364.579 98.486C364.579 98.5116 369.778 92.6788 384.312 98.1979Z" fill="#0F1E02"/>
<path d="M393.966 95.0926L388.347 100.151V110.85L384.42 117.816L393.966 112.053V95.0926Z" fill="#0F1E02"/>
<path d="M345.888 124.609C345.888 124.609 356.796 118.917 367.894 124.609L377.077 122.784L365.985 130.768C365.985 130.768 359.927 124.174 345.888 124.609Z" fill="#0F1E02"/>
<path d="M370.364 73.1954C377.033 76.2239 392.394 73.5988 395.182 70.0517C395.182 70.0517 385.636 72.4079 380.374 69.4563L370.364 73.1954Z" fill="#0F1E02"/>
</svg>
